<svg width="232" height="239" viewBox="0 0 232 239" fill="none" xmlns="http://www.w3.org/2000/svg">
<path d="M124.149 52.388L123.722 52.393L16.0327 135.047L36.3749 186.075L109.019 187.056L216.054 103.482L196.382 53.4361L196.246 52.3965L124.149 52.388ZM106.561 184.283L38.2211 183.359L19.7479 136.924L88.2909 137.811L106.561 184.283ZM21.8945 134.221L124.594 55.1242L190.829 55.134L88.7994 135.081L21.8945 134.221ZM212.729 102.507L109.209 183.528L90.901 136.933L194.408 55.9025L212.729 102.507Z" fill="#50C9FC"/>
<path d="M190.819 55.1295L88.8002 135.081L21.8969 134.217L124.59 55.1264L190.819 55.1295Z" fill="#50C9FC"/>
<path d="M88.2995 137.814L106.563 184.283L38.2225 183.359L19.7565 136.927L88.2995 137.814Z" fill="#F0DC28"/>
<path d="M194.405 55.9095L212.714 102.5L109.206 183.535L90.8979 136.94L194.405 55.9095Z" fill="#F0DC28"/>
</svg>
