<svg width="205" height="211" viewBox="0 0 205 211" fill="none" xmlns="http://www.w3.org/2000/svg">
<path d="M126.593 52.675L126.229 52.3224L43.6844 42.2199L19.5962 100.695L78.8221 159.738L161.565 168.557L185.44 111.437L186.154 110.484L126.593 52.675ZM79.0013 155.466L23.2915 99.9232L45.2587 46.7639L101.175 102.439L79.0013 155.466ZM49.1958 46.2352L124.755 55.2961L179.465 108.387L103.77 100.557L49.1958 46.2352ZM159.588 165.069L81.7908 156.967L104.004 103.806L181.808 111.902L159.588 165.069Z" fill="#50C9FC"/>
<path d="M179.467 108.381L103.773 100.58L49.1939 46.2383L124.763 55.2904L179.467 108.381Z" fill="#F0DC28"/>
<path d="M101.17 102.432L79.0058 155.464L23.2867 99.9165L45.2539 46.7572L101.17 102.432Z" fill="#FFA1C4"/>
<path d="M181.808 111.902L159.588 165.069L81.7906 156.968L104.014 103.797L181.808 111.902Z" fill="#FFA1C4"/>
</svg>
