<svg width="151" height="169" viewBox="0 0 151 169" fill="none" xmlns="http://www.w3.org/2000/svg">
<path d="M130.455 138.768C127.069 140.151 123.495 140.757 119.933 140.55C113.75 140.198 107.88 137.446 103.259 132.733C98.6368 128.019 95.5283 121.613 94.4277 114.536L130.455 138.768Z" fill="#50C9FC"/>
<path d="M133.714 137.228L133.604 137.284L94.0407 110.673C93.7504 104.747 94.8748 98.8157 97.2897 93.534C99.7046 88.2523 103.316 83.8265 107.724 80.7459L108.879 79.9182L97.4947 57.5171L32.5491 2.03858L31.7815 2.57556C24.5002 7.67802 18.4087 14.8113 14.0684 23.3177C9.7281 31.824 7.27877 41.4297 6.94626 51.2492C6.61374 61.0687 8.40874 70.7859 12.1657 79.5049C15.9227 88.2239 21.5208 95.6641 28.4438 101.14L87.5339 151.852C94.6243 159.391 103.47 164.345 113.006 166.117C122.542 167.89 132.362 166.405 141.282 161.843L142.514 161.211L133.714 137.228ZM130.454 138.786C127.068 140.169 123.494 140.774 119.932 140.568C113.749 140.216 107.88 137.464 103.258 132.75C98.6362 128.036 95.5277 121.631 94.4271 114.554L130.454 138.786ZM30.0322 98.6157L29.992 98.5823C23.383 93.3339 18.0446 86.2088 14.4696 77.8648C9.21959 65.5663 8.1457 51.3477 11.4591 38.0056C14.7724 24.6635 22.2333 13.1637 32.3741 5.76781L95.0041 59.2737C89.3382 63.5194 84.4386 69.0257 80.5929 75.4697C76.7471 81.9136 74.0327 89.1653 72.6089 96.7993C71.1851 104.433 71.0805 112.296 72.3014 119.925C73.5222 127.555 76.0439 134.798 79.7184 141.23L30.0322 98.6157ZM118.659 163.662C108.605 163.107 99.016 158.848 91.2724 151.497C83.5287 144.147 78.0304 134.085 75.5694 122.76C73.1085 111.436 73.8118 99.433 77.5781 88.4811C81.3444 77.5291 87.9793 68.193 96.5273 61.8176L105.224 78.9235C99.8506 83.0654 95.7075 89.0535 93.3846 96.0355C91.0618 103.018 90.6776 110.638 92.2868 117.811C93.8959 124.985 97.4164 131.346 102.347 135.99C107.278 140.635 113.368 143.324 119.749 143.677C124.006 143.928 128.274 143.118 132.27 141.301L138.973 159.612C132.516 162.686 125.579 164.072 118.659 163.671L118.659 163.662Z" fill="#50C9FC"/>
<path d="M138.985 159.612C132.525 162.688 125.584 164.074 118.66 163.67C108.604 163.118 99.0115 158.86 91.2656 151.509C83.5198 144.158 78.02 134.094 75.5588 122.767C73.0975 111.44 73.8019 99.4349 77.5704 88.4814C81.3389 77.5278 87.9769 68.1914 96.528 61.8174L105.225 78.9233C99.8514 83.0652 95.7082 89.0533 93.3854 96.0353C91.0626 103.017 90.6784 110.637 92.2875 117.811C93.8967 124.985 97.4172 131.346 102.348 135.99C107.279 140.634 113.368 143.324 119.75 143.677C124.006 143.928 128.275 143.118 132.271 141.301L138.985 159.612Z" fill="#FFA1C4"/>
<path d="M71.5539 105.57C70.8425 118.248 73.7076 130.778 79.7127 141.252L30.0277 98.6152L29.9875 98.5819C23.3785 93.3334 18.04 86.2083 14.465 77.8643C9.21506 65.5658 8.14117 51.3472 11.4545 38.0051C14.7679 24.6631 22.2287 13.1632 32.3696 5.76732L94.9996 59.2732C88.2478 64.3323 82.6 71.1695 78.5232 79.2199C74.4463 87.2702 72.0574 96.3025 71.5539 105.57Z" fill="#50C9FC"/>
</svg>
