<svg width="232" height="213" viewBox="0 0 232 213" fill="none" xmlns="http://www.w3.org/2000/svg">
<path d="M84.3558 80.0322L65.2003 135.831L136.543 110.561L151.853 57.2794L84.3558 80.0322ZM134.484 108.622L90.5624 124.179L100.152 96.2846L142.367 81.1852L134.484 108.622ZM98.1903 94.3279L87.5605 125.239L69.2559 131.721L86.3302 81.9895L148.13 61.158L143.23 78.2136L98.1903 94.3279Z" fill="#50C9FC"/>
<path d="M69.0029 68.608L37.2225 160.65L51.644 179.72L168.479 140.35L193.319 49.6777L178.454 30.0067L69.0029 68.608ZM52.5496 176.765L40.6525 161.034L151.824 121.799L165.348 138.756L52.5496 176.765ZM151.214 119.36L40.6607 158.372L70.9743 70.5672L176.116 33.4924L151.214 119.36ZM190.566 50.2099L166.868 136.674L153.619 120.061L178.486 34.247L190.566 50.2099Z" fill="#50C9FC"/>
<path d="M165.348 138.756L52.5493 176.765L40.6521 161.034L151.825 121.802L165.348 138.756Z" fill="#50C9FC"/>
<path d="M178.506 34.244L190.576 50.2045L166.883 136.665L153.634 120.052L178.506 34.244Z" fill="#50C9FC"/>
<path d="M70.9776 70.5726L40.664 158.377L151.236 119.355L176.135 33.4886L70.9776 70.5726ZM136.542 110.56L65.1993 135.831L84.3548 80.0319L151.852 57.2791L136.542 110.56Z" fill="#F0DC28"/>
<path d="M148.125 61.1777L143.224 78.2334L98.1846 94.3476L87.5548 125.258L69.2502 131.741L86.3245 82.0093L148.125 61.1777Z" fill="#50C9FC"/>
</svg>
