<svg width="162" height="211" viewBox="0 0 162 211" fill="none" xmlns="http://www.w3.org/2000/svg">
<path d="M48.2618 184.529C52.0342 183.033 55.4405 180.742 58.2492 177.813L58.266 177.769L144.401 74.1609C147.252 71.5585 149.545 68.4051 151.142 64.8913C152.74 61.3774 153.608 57.5762 153.694 53.7173C153.781 49.8585 153.084 46.0222 151.645 42.4404C150.207 38.8586 148.057 35.6056 145.326 32.8783C142.595 30.1509 139.339 28.0057 135.755 26.5724C132.171 25.1392 128.334 24.4475 124.475 24.5394C120.616 24.6313 116.816 25.5047 113.305 27.1069C109.793 28.7091 106.643 31.0068 104.045 33.8611L103.864 34.0793C103.427 34.5626 103.012 35.0631 102.609 35.5765L16.2666 139.097C12.0111 143.911 9.50377 150.02 9.15001 156.436C8.79624 162.852 10.6167 169.199 14.3171 174.452C18.0175 179.705 23.3814 183.557 29.5417 185.384C35.702 187.211 42.2985 186.907 48.2646 184.521L48.2618 184.529ZM104.719 37.3607L105.993 35.8369C110.539 30.8027 116.879 27.7529 123.65 27.343C130.42 26.933 137.082 29.1956 142.202 33.6444C147.322 38.0933 150.493 44.3733 151.033 51.1349C151.573 57.8965 149.438 64.6001 145.088 69.8048C140.738 75.0096 134.52 78.3002 127.77 78.9694C121.02 79.6387 114.277 77.6331 108.99 73.3839C103.703 69.1346 100.293 62.9807 99.4949 56.2448C98.6964 49.5088 100.572 42.7284 104.719 37.3607ZM18.3598 140.925L97.454 46.094C96.1399 51.2033 96.2677 56.577 97.8233 61.6181C99.379 66.6592 102.302 71.1705 106.266 74.6508C110.231 78.1311 115.083 80.4443 120.283 81.3335C125.484 82.2227 130.829 81.653 135.725 79.6877C136.014 79.5702 136.306 79.4365 136.593 79.314L56.2564 175.943C51.5688 180.783 45.1733 183.598 38.4374 183.784C31.7015 183.971 25.16 181.514 20.2119 176.94C15.2638 172.366 12.3019 166.037 11.9594 159.308C11.617 152.578 13.9214 145.981 18.3797 140.929L18.3598 140.925Z" fill="#50C9FC"/>
<path d="M101.138 62.744C99.4717 58.5684 98.9254 54.03 99.5531 49.5783C100.181 45.1267 101.961 40.9163 104.717 37.3644L105.991 35.8406C109.755 31.6947 114.766 28.8866 120.267 27.8407C125.768 26.7947 131.46 27.5677 136.483 30.0428C141.506 32.5179 145.587 36.5607 148.11 41.5602C150.632 46.5597 151.458 52.2443 150.464 57.755C149.47 63.2658 146.709 68.3032 142.599 72.1062C138.489 75.9092 133.253 78.2711 127.681 78.835C122.11 79.3989 116.507 78.1342 111.718 75.2319C106.929 72.3296 103.215 67.9475 101.136 62.7477L101.138 62.744Z" fill="#50C9FC"/>
<path d="M13.7138 167.599C11.9233 163.162 11.4083 158.313 12.2268 153.599C13.0452 148.885 15.1646 144.493 18.3459 140.919L97.44 46.0882C96.1258 51.1976 96.2537 56.5712 97.8094 61.6123C99.365 66.6534 102.288 71.1647 106.252 74.645C110.217 78.1253 115.069 80.4385 120.269 81.3277C125.47 82.2169 130.815 81.6472 135.711 79.6819C136 79.5644 136.292 79.4308 136.579 79.3082L56.2424 175.937C53.2497 179.033 49.5299 181.331 45.4218 182.622C41.3136 183.913 36.9477 184.155 32.7221 183.326C28.4964 182.498 24.5452 180.625 21.2286 177.878C17.912 175.132 15.3354 171.599 13.7336 167.602L13.7138 167.599Z" fill="#F0DC28"/>
</svg>
