<svg width="25" height="25" viewBox="0 0 25 25" fill="none" xmlns="http://www.w3.org/2000/svg">
<path d="M12.5 24.9878C19.3383 24.9878 25 19.3166 25 12.4939C25 5.659 19.326 0 12.4877 0C5.66176 0 0 5.659 0 12.4939C0 19.3166 5.67401 24.9878 12.5 24.9878ZM12.5 22.9055C6.71568 22.9055 2.09558 18.2754 2.09558 12.4939C2.09558 6.71241 6.70343 2.08232 12.4877 2.08232C18.272 2.08232 22.9166 6.71241 22.9166 12.4939C22.9166 18.2754 18.2843 22.9055 12.5 22.9055ZM11.875 17.369H19.3627C20.3063 17.369 20.6372 17.0995 20.6372 16.5728C20.6372 15.0417 18.7132 12.9226 15.625 12.9226C12.5245 12.9226 10.5882 15.0417 10.5882 16.5728C10.5882 17.0995 10.9314 17.369 11.875 17.369ZM15.625 11.8692C16.9118 11.8692 18.0024 10.7056 18.0024 9.21119C18.0024 7.74132 16.8995 6.66341 15.625 6.66341C14.3382 6.66341 13.2353 7.77806 13.2353 9.22344C13.2475 10.7056 14.3382 11.8692 15.625 11.8692ZM5.41667 17.369H9.96322C9.33823 16.487 10.098 14.662 11.3848 13.682C10.7108 13.241 9.85293 12.9104 8.74999 12.9104C6.05392 12.9104 4.375 14.8947 4.375 16.5361C4.375 17.075 4.66911 17.369 5.41667 17.369ZM8.74999 11.9917C9.86519 11.9917 10.8211 10.9873 10.8211 9.6889C10.8211 8.415 9.86519 7.4596 8.74999 7.4596C7.64705 7.4596 6.66666 8.43951 6.66666 9.70115C6.67892 10.9873 7.63479 11.9917 8.74999 11.9917Z" fill="black" fill-opacity="0.85"/>
</svg>
