<svg width="21" height="20" viewBox="0 0 21 20" fill="none" xmlns="http://www.w3.org/2000/svg">
<path d="M15.7574 14.4939L16.5039 14.6099C16.8025 14.6513 17.068 14.8336 17.2422 15.0904L18.9758 17.675C19.1417 17.9318 19.1666 18.1969 18.9923 18.3792L17.5076 19.862C17.3251 20.0443 17.068 20.0443 16.8025 19.8704L14.2062 18.1141C13.9574 17.9485 13.7667 17.6834 13.7251 17.3851L13.609 16.6395L9.98979 13.0249C10.2116 12.7384 10.4547 12.4367 10.7238 12.1178L14.7703 16.1591L14.9362 17.0868L17.0348 18.6692L17.7896 17.9153L16.2053 15.8111L15.2763 15.6537L11.1867 11.5772C11.4271 11.3009 11.6868 11.0121 11.9681 10.7095L15.7574 14.4939ZM5.52992 1.80266L10.4786 6.752C10.527 6.89098 10.5841 7.02778 10.6478 7.16248C10.4085 7.3982 10.1759 7.62316 9.95182 7.83426L4.65897 2.54822C4.05345 1.95177 3.40646 1.94348 2.81753 2.53994L1.64796 3.71628C1.05073 4.32103 1.04244 4.95062 1.64796 5.55536L6.69973 10.6006C6.36398 10.8497 6.04913 11.0701 5.75221 11.2683L0.90143 6.41692C-0.259838 5.25714 -0.259838 4.01452 0.876548 2.87959L1.97975 1.7778C3.11614 0.642874 4.36036 0.642874 5.52992 1.80266ZM3.14932 4.63583L6.25157 7.73409C6.37598 7.85836 6.36769 8.04889 6.25157 8.16487C6.13544 8.28913 5.93637 8.28913 5.81194 8.16487L2.7097 5.08317C2.58527 4.96719 2.59357 4.76837 2.7097 4.63583C2.83411 4.51985 3.04148 4.53641 3.14932 4.63583ZM4.17787 3.61688L7.28012 6.70686C7.39625 6.82283 7.39625 7.01337 7.27182 7.1542C7.16399 7.26189 6.94833 7.27846 6.8322 7.1542L3.74654 4.04765C3.63041 3.93167 3.62212 3.74114 3.74654 3.61688C3.85437 3.5009 4.05345 3.49261 4.17787 3.61688Z" fill="black"/>
<path d="M1.32481 18.8849C2.76811 20.3097 4.70079 20.3263 6.1192 18.9014C7.90258 17.1038 7.62055 15.0825 13.0619 9.56523C14.837 10.4019 16.9853 10.1203 18.4121 8.70362C19.9051 7.2125 20.1623 4.85981 19.0508 2.95446L16.7946 5.20774C16.5706 5.43141 16.2886 5.44798 16.048 5.20774L15.0361 4.1888C14.7955 3.94027 14.7706 3.65032 14.9946 3.42665L17.2591 1.18165C15.3679 0.0798613 13.0205 0.328385 11.5274 1.82781C10.1007 3.25268 9.81041 5.38999 10.6482 7.16279C5.13212 12.5972 3.10819 12.3155 1.30823 14.0883C-0.126774 15.5049 -0.110185 17.4434 1.32481 18.8849ZM12.4232 7.80067C10.9468 6.3261 10.8887 3.98997 12.2989 2.59824C13.0952 1.79468 14.2315 1.4716 15.3181 1.64556L14.1153 2.84676C13.5016 3.4515 13.5181 4.23021 14.1569 4.85153L15.3845 6.06929C15.9983 6.68232 16.7863 6.69888 17.3669 6.11071L18.5863 4.88466C18.7687 5.98645 18.4369 7.12138 17.6323 7.93322C16.2306 9.33322 13.908 9.26697 12.4232 7.80067ZM2.146 18.0647C1.1921 17.0955 1.20869 15.8611 2.12111 14.9416C4.12845 12.9534 5.3229 13.7984 11.2039 8.05748C11.3366 8.23974 11.4859 8.40542 11.6436 8.57111C11.8011 8.72847 11.9753 8.88592 12.1578 9.01842C6.41781 14.8919 7.26388 16.0848 5.27313 18.073C4.35241 19.0008 3.10819 19.0091 2.146 18.0647ZM3.68882 17.5676C4.25287 17.5676 4.71738 17.1038 4.71738 16.5404C4.71738 15.9771 4.25287 15.5215 3.68882 15.5215C3.12478 15.5215 2.66857 15.9771 2.66857 16.5404C2.66857 17.1038 3.12478 17.5676 3.68882 17.5676Z" fill="black"/>
</svg>
