<svg width="21" height="20" viewBox="0 0 21 20" fill="none" xmlns="http://www.w3.org/2000/svg">
<path d="M9.98049 6.07422L8.74639 7.33458C9.97118 7.43728 10.7692 7.80138 11.3723 8.40822C12.9961 10.0421 12.9869 12.3573 11.3816 13.9725L8.3474 17.016C6.73287 18.6405 4.45026 18.6498 2.82646 17.0253C1.20266 15.3822 1.21193 13.0855 2.82646 11.4611L4.64512 9.63127C4.38531 9.04307 4.32036 8.34287 4.42243 7.73603L1.69443 10.4715C-0.523222 12.7121 -0.541779 15.8863 1.70371 18.1456C3.95849 20.4143 7.11331 20.3956 9.33096 18.1643L12.5043 14.962C14.7313 12.7215 14.7498 9.54721 12.4951 7.2879C11.9105 6.69974 11.1682 6.27962 9.98049 6.07422ZM9.74855 13.767L10.9826 12.5067C9.75777 12.4133 8.95981 12.0399 8.35668 11.4331C6.73287 9.79924 6.74215 7.48396 8.3474 5.86884L11.3723 2.8253C12.9961 1.20085 15.2788 1.19151 16.9026 2.8253C18.5263 4.4591 18.5078 6.76509 16.9026 8.38021L15.0839 10.21C15.3437 10.8075 15.3993 11.4984 15.3066 12.1053L18.0346 9.36983C20.2522 7.12919 20.2708 3.96429 18.0253 1.69565C15.7705 -0.572994 12.6157 -0.554322 10.3888 1.68632L7.22466 4.87922C4.99772 7.11985 4.97916 10.2941 7.23393 12.5534C7.81851 13.1415 8.56082 13.5617 9.74855 13.767Z" fill="black" fill-opacity="0.85"/>
</svg>
