<svg width="20" height="20" viewBox="0 0 20 20" fill="none" xmlns="http://www.w3.org/2000/svg">
<path d="M0.32636 19.6737C0.76779 20.1024 1.4993 20.1024 1.92812 19.6737L9.99997 11.6069L18.0718 19.6737C18.5007 20.1024 19.2447 20.1149 19.6736 19.6737C20.1024 19.2326 20.1024 18.5142 19.6736 18.0856L11.6017 10.0062L19.6736 1.93939C20.1024 1.51084 20.1151 0.779782 19.6736 0.351233C19.2322 -0.0899201 18.5007 -0.0899201 18.0718 0.351233L9.99997 8.41804L1.92812 0.351233C1.4993 -0.0899201 0.755177 -0.102524 0.32636 0.351233C-0.102458 0.792387 -0.102458 1.51084 0.32636 1.93939L8.39822 10.0062L0.32636 18.0856C-0.102458 18.5142 -0.11507 19.2452 0.32636 19.6737Z" fill="black"/>
</svg>
