<svg width="21" height="20" viewBox="0 0 21 20" fill="none" xmlns="http://www.w3.org/2000/svg">
<path d="M6.00234 19.9998C6.44012 19.9998 6.74388 19.7631 7.28886 19.2715L10.3711 16.4768H16.1069C18.7693 16.4768 20.1987 14.9748 20.1987 12.3075V5.33436C20.1987 2.66709 18.7693 1.16504 16.1069 1.16504H4.59968C1.93728 1.16504 0.507812 2.65798 0.507812 5.33436V12.3075C0.507812 14.9839 1.93728 16.4768 4.59968 16.4768H5.02852V18.8436C5.02852 19.5446 5.37695 19.9998 6.00234 19.9998ZM6.36864 18.3339V15.6939C6.36864 15.2024 6.18102 15.0112 5.69858 15.0112H4.59968C2.79497 15.0112 1.94622 14.0736 1.94622 12.2984V5.33436C1.94622 3.55921 2.79497 2.63068 4.59968 2.63068H16.1069C17.9027 2.63068 18.7604 3.55921 18.7604 5.33436V12.2984C18.7604 14.0736 17.9027 15.0112 16.1069 15.0112H10.3176C9.81726 15.0112 9.56708 15.084 9.22758 15.439L6.36864 18.3339Z" fill="black" fill-opacity="0.85"/>
</svg>
