<svg width="17" height="20" viewBox="0 0 17 20" fill="none" xmlns="http://www.w3.org/2000/svg">
<path d="M6.3407 3.36283C7.33447 3.36283 8.16122 2.601 8.16122 1.68526C8.16122 0.76183 7.33447 0 6.3407 0C5.33858 0 4.51183 0.76183 4.51183 1.68526C4.51183 2.601 5.33858 3.36283 6.3407 3.36283ZM7.41798 15.9908C7.74367 16.0677 8.29483 15.96 8.45351 15.4675L9.66437 11.766C9.78965 11.3659 9.59758 10.958 9.13829 10.8118L5.85634 9.7653L6.26554 7.18737C6.28224 7.03346 6.49937 6.99498 6.57453 7.1412L7.27601 8.39552C7.43468 8.68023 7.71027 8.81876 8.0276 8.81876H11.3847C11.844 8.81876 12.2282 8.48788 12.2282 8.0492C12.2282 7.63369 11.844 7.27971 11.3847 7.27971H8.54536L7.45138 5.28664C7.10064 4.64024 6.47431 4.18622 5.68932 4.04771L5.22167 3.96306C4.36151 3.80915 3.66838 3.97845 3.13391 4.28625L0.41984 5.8407C0.186013 5.98691 0.0273438 6.23316 0.0273438 6.51019V9.59596C0.0273438 10.0192 0.41149 10.3809 0.870794 10.3809C1.3301 10.3809 1.71425 10.0192 1.71425 9.59596V6.92573L2.88338 6.25624C2.99195 6.20237 3.11721 6.26394 3.09216 6.37936L2.70802 9.23434C2.55769 10.3271 2.95019 11.0734 4.31141 11.3659L7.79377 12.1201L6.85011 15.0365C6.72484 15.4366 6.89186 15.8522 7.41798 15.9908ZM1.25494 18.7764C1.55558 18.9611 2.0984 18.9611 2.40738 18.5456L4.87928 15.1519C4.99619 14.9903 5.05465 14.8672 5.08805 14.6748L5.43879 12.4048L4.12768 12.1201C3.92726 12.0815 3.75189 12.02 3.58487 11.9661L3.4095 14.4055L1.02111 17.6991C0.762232 18.0531 0.854093 18.5379 1.25494 18.7764ZM4.57864 19.9846H7.26766C7.52654 19.9846 7.74367 19.7845 7.74367 19.546V18.0607H9.96504C10.2156 18.0607 10.4243 17.876 10.4243 17.6298V16.1369H12.6624C12.9213 16.1369 13.1217 15.9522 13.1217 15.7137V14.2208H15.2596C15.5184 14.2208 15.7355 14.0284 15.7355 13.7899C15.7355 13.559 15.5184 13.3589 15.2596 13.3589H12.6624C12.4036 13.3589 12.2031 13.559 12.2031 13.7899V15.2828H9.96504C9.69781 15.2828 9.50574 15.4828 9.50574 15.7137V17.2066H7.26766C7.01713 17.2066 6.8167 17.3913 6.8167 17.6298V19.1304H4.57864C4.31141 19.1304 4.11934 19.3151 4.11934 19.546C4.11934 19.7845 4.31141 19.9846 4.57864 19.9846Z" fill="black"/>
</svg>
