<svg width="114" height="30" viewBox="0 0 114 30" fill="none" xmlns="http://www.w3.org/2000/svg">
<g filter="url(#filter0_d_858_1408)">
<mask id="path-1-outside-1_858_1408" maskUnits="userSpaceOnUse" x="1" y="13.0294" width="112" height="15" fill="black">
<rect fill="white" x="1" y="13.0294" width="112" height="15"/>
<path d="M12.9481 18.4669H10.4595C10.414 18.1449 10.3212 17.859 10.181 17.609C10.0409 17.3552 9.86097 17.1393 9.64128 16.9612C9.42158 16.7832 9.16779 16.6468 8.87991 16.5521C8.59582 16.4574 8.28711 16.4101 7.95378 16.4101C7.3515 16.4101 6.82688 16.5597 6.37991 16.859C5.93294 17.1544 5.58635 17.5862 5.34014 18.1544C5.09393 18.7188 4.97082 19.4044 4.97082 20.2112C4.97082 21.0408 5.09393 21.7378 5.34014 22.3021C5.59014 22.8665 5.93862 23.2927 6.38559 23.5806C6.83256 23.8684 7.34961 24.0124 7.93673 24.0124C8.26628 24.0124 8.5712 23.9688 8.8515 23.8817C9.13559 23.7946 9.38749 23.6677 9.60719 23.501C9.82688 23.3306 10.0087 23.1241 10.1526 22.8817C10.3004 22.6393 10.4026 22.3628 10.4595 22.0521L12.9481 22.0635C12.8837 22.5976 12.7227 23.1128 12.4651 23.609C12.2114 24.1014 11.8685 24.5427 11.4367 24.9328C11.0087 25.3192 10.4973 25.626 9.90264 25.8533C9.31173 26.0768 8.64317 26.1885 7.89696 26.1885C6.85908 26.1885 5.93105 25.9537 5.11287 25.484C4.29847 25.0143 3.65453 24.3343 3.18105 23.4442C2.71135 22.554 2.4765 21.4764 2.4765 20.2112C2.4765 18.9423 2.71514 17.8628 3.19241 16.9726C3.66969 16.0824 4.31741 15.4044 5.13559 14.9385C5.95378 14.4688 6.87423 14.234 7.89696 14.234C8.5712 14.234 9.1962 14.3287 9.77196 14.5181C10.3515 14.7074 10.8648 14.984 11.3117 15.3476C11.7587 15.7074 12.1223 16.1487 12.4026 16.6715C12.6867 17.1942 12.8685 17.7927 12.9481 18.4669ZM26.8455 20.2112C26.8455 21.4802 26.605 22.5597 26.1239 23.4499C25.6466 24.34 24.9951 25.0199 24.1693 25.4896C23.3474 25.9556 22.4231 26.1885 21.3966 26.1885C20.3625 26.1885 19.4345 25.9537 18.6125 25.484C17.7906 25.0143 17.1409 24.3343 16.6637 23.4442C16.1864 22.554 15.9478 21.4764 15.9478 20.2112C15.9478 18.9423 16.1864 17.8628 16.6637 16.9726C17.1409 16.0824 17.7906 15.4044 18.6125 14.9385C19.4345 14.4688 20.3625 14.234 21.3966 14.234C22.4231 14.234 23.3474 14.4688 24.1693 14.9385C24.9951 15.4044 25.6466 16.0824 26.1239 16.9726C26.605 17.8628 26.8455 18.9423 26.8455 20.2112ZM24.3512 20.2112C24.3512 19.3893 24.2281 18.6961 23.9818 18.1317C23.7394 17.5673 23.3966 17.1393 22.9534 16.8476C22.5103 16.5559 21.9913 16.4101 21.3966 16.4101C20.8019 16.4101 20.283 16.5559 19.8398 16.8476C19.3966 17.1393 19.0519 17.5673 18.8057 18.1317C18.5633 18.6961 18.4421 19.3893 18.4421 20.2112C18.4421 21.0332 18.5633 21.7264 18.8057 22.2908C19.0519 22.8552 19.3966 23.2832 19.8398 23.5749C20.283 23.8665 20.8019 24.0124 21.3966 24.0124C21.9913 24.0124 22.5103 23.8665 22.9534 23.5749C23.3966 23.2832 23.7394 22.8552 23.9818 22.2908C24.2281 21.7264 24.3512 21.0332 24.3512 20.2112ZM30.1079 26.0294V14.3931H32.5682V24.001H37.5568V26.0294H30.1079ZM40.626 26.0294V14.3931H43.0863V24.001H48.0749V26.0294H40.626ZM53.4467 26.0294H50.8104L54.8274 14.3931H57.9979L62.0092 26.0294H59.3729L56.4581 17.0521H56.3672L53.4467 26.0294ZM53.282 21.4556H59.5092V23.376H53.282V21.4556ZM64.8498 26.0294V14.3931H69.5089C70.365 14.3931 71.079 14.5199 71.6509 14.7737C72.2229 15.0275 72.6528 15.3798 72.9407 15.8306C73.2286 16.2775 73.3725 16.7927 73.3725 17.376C73.3725 17.8306 73.2816 18.2302 73.0998 18.5749C72.918 18.9158 72.668 19.1961 72.3498 19.4158C72.0354 19.6317 71.6756 19.7851 71.2703 19.876V19.9896C71.7134 20.0086 72.1282 20.1336 72.5146 20.3646C72.9047 20.5957 73.221 20.9196 73.4634 21.3362C73.7059 21.7491 73.8271 22.2415 73.8271 22.8135C73.8271 23.4309 73.6737 23.9821 73.3668 24.4669C73.0638 24.948 72.615 25.3287 72.0203 25.609C71.4256 25.8893 70.6926 26.0294 69.8214 26.0294H64.8498ZM67.31 24.0181H69.3157C70.0013 24.0181 70.5013 23.8874 70.8157 23.626C71.1301 23.3609 71.2873 23.0086 71.2873 22.5692C71.2873 22.2472 71.2096 21.9631 71.0543 21.7169C70.899 21.4707 70.6775 21.2775 70.3896 21.1374C70.1055 20.9972 69.7665 20.9271 69.3725 20.9271H67.31V24.0181ZM67.31 19.2624H69.1339C69.471 19.2624 69.7703 19.2037 70.0316 19.0862C70.2968 18.965 70.5051 18.7946 70.6566 18.5749C70.8119 18.3552 70.8896 18.0919 70.8896 17.7851C70.8896 17.3646 70.74 17.0256 70.4407 16.7681C70.1453 16.5105 69.7248 16.3817 69.1793 16.3817H67.31V19.2624ZM87.5611 20.2112C87.5611 21.4802 87.3206 22.5597 86.8395 23.4499C86.3622 24.34 85.7107 25.0199 84.885 25.4896C84.063 25.9556 83.1388 26.1885 82.1122 26.1885C81.0782 26.1885 80.1501 25.9537 79.3282 25.484C78.5062 25.0143 77.8566 24.3343 77.3793 23.4442C76.902 22.554 76.6634 21.4764 76.6634 20.2112C76.6634 18.9423 76.902 17.8628 77.3793 16.9726C77.8566 16.0824 78.5062 15.4044 79.3282 14.9385C80.1501 14.4688 81.0782 14.234 82.1122 14.234C83.1388 14.234 84.063 14.4688 84.885 14.9385C85.7107 15.4044 86.3622 16.0824 86.8395 16.9726C87.3206 17.8628 87.5611 18.9423 87.5611 20.2112ZM85.0668 20.2112C85.0668 19.3893 84.9437 18.6961 84.6975 18.1317C84.455 17.5673 84.1122 17.1393 83.6691 16.8476C83.2259 16.5559 82.7069 16.4101 82.1122 16.4101C81.5175 16.4101 80.9986 16.5559 80.5554 16.8476C80.1122 17.1393 79.7675 17.5673 79.5213 18.1317C79.2789 18.6961 79.1577 19.3893 79.1577 20.2112C79.1577 21.0332 79.2789 21.7264 79.5213 22.2908C79.7675 22.8552 80.1122 23.2832 80.5554 23.5749C80.9986 23.8665 81.5175 24.0124 82.1122 24.0124C82.7069 24.0124 83.2259 23.8665 83.6691 23.5749C84.1122 23.2832 84.455 22.8552 84.6975 22.2908C84.9437 21.7264 85.0668 21.0332 85.0668 20.2112ZM90.8236 26.0294V14.3931H95.4145C96.2932 14.3931 97.0432 14.5503 97.6645 14.8646C98.2895 15.1753 98.7648 15.6165 99.0906 16.1885C99.4201 16.7567 99.5849 17.4253 99.5849 18.1942C99.5849 18.9669 99.4182 19.6317 99.0849 20.1885C98.7516 20.7415 98.2686 21.1658 97.6361 21.4612C97.0073 21.7567 96.2459 21.9044 95.352 21.9044H92.2781V19.9271H94.9542C95.4239 19.9271 95.8141 19.8628 96.1247 19.734C96.4353 19.6052 96.6664 19.412 96.8179 19.1544C96.9732 18.8968 97.0508 18.5768 97.0508 18.1942C97.0508 17.8078 96.9732 17.4821 96.8179 17.2169C96.6664 16.9518 96.4334 16.751 96.119 16.6146C95.8084 16.4745 95.4164 16.4044 94.9429 16.4044H93.2838V26.0294H90.8236ZM97.1076 20.734L99.9997 26.0294H97.2838L94.4542 20.734H97.1076ZM107.036 26.1885C106.161 26.1885 105.383 26.0465 104.701 25.7624C104.023 25.4745 103.491 25.0824 103.104 24.5862C102.718 24.09 102.525 23.5275 102.525 22.8987C102.525 22.4139 102.635 21.9688 102.854 21.5635C103.078 21.1544 103.381 20.8154 103.764 20.5465C104.146 20.2737 104.574 20.0995 105.048 20.0237V19.9442C104.426 19.8192 103.923 19.5181 103.536 19.0408C103.15 18.5597 102.957 18.001 102.957 17.3646C102.957 16.7624 103.133 16.2264 103.485 15.7567C103.837 15.2832 104.32 14.912 104.934 14.6431C105.551 14.3703 106.252 14.234 107.036 14.234C107.82 14.234 108.519 14.3703 109.133 14.6431C109.75 14.9158 110.235 15.2889 110.587 15.7624C110.94 16.2321 111.118 16.7662 111.122 17.3646C111.118 18.0048 110.921 18.5635 110.531 19.0408C110.14 19.5181 109.64 19.8192 109.031 19.9442V20.0237C109.497 20.0995 109.919 20.2737 110.298 20.5465C110.68 20.8154 110.983 21.1544 111.207 21.5635C111.434 21.9688 111.55 22.4139 111.553 22.8987C111.55 23.5275 111.354 24.09 110.968 24.5862C110.582 25.0824 110.048 25.4745 109.366 25.7624C108.688 26.0465 107.911 26.1885 107.036 26.1885ZM107.036 24.3817C107.426 24.3817 107.767 24.3116 108.059 24.1715C108.351 24.0275 108.578 23.8306 108.741 23.5806C108.907 23.3268 108.991 23.0351 108.991 22.7056C108.991 22.3684 108.906 22.0711 108.735 21.8135C108.565 21.5521 108.334 21.3476 108.042 21.1999C107.75 21.0484 107.415 20.9726 107.036 20.9726C106.661 20.9726 106.326 21.0484 106.031 21.1999C105.735 21.3476 105.502 21.5521 105.332 21.8135C105.165 22.0711 105.082 22.3684 105.082 22.7056C105.082 23.0351 105.163 23.3268 105.326 23.5806C105.489 23.8306 105.718 24.0275 106.014 24.1715C106.309 24.3116 106.65 24.3817 107.036 24.3817ZM107.036 19.1828C107.362 19.1828 107.652 19.1165 107.906 18.984C108.159 18.8514 108.358 18.6677 108.502 18.4328C108.646 18.198 108.718 17.9271 108.718 17.6203C108.718 17.3173 108.646 17.0521 108.502 16.8249C108.358 16.5938 108.161 16.4139 107.911 16.2851C107.661 16.1525 107.37 16.0862 107.036 16.0862C106.707 16.0862 106.415 16.1525 106.161 16.2851C105.907 16.4139 105.709 16.5938 105.565 16.8249C105.425 17.0521 105.354 17.3173 105.354 17.6203C105.354 17.9271 105.426 18.198 105.57 18.4328C105.714 18.6677 105.913 18.8514 106.167 18.984C106.421 19.1165 106.711 19.1828 107.036 19.1828Z"/>
</mask>
<path d="M12.9481 18.4669H10.4595C10.414 18.1449 10.3212 17.859 10.181 17.609C10.0409 17.3552 9.86097 17.1393 9.64128 16.9612C9.42158 16.7832 9.16779 16.6468 8.87991 16.5521C8.59582 16.4574 8.28711 16.4101 7.95378 16.4101C7.3515 16.4101 6.82688 16.5597 6.37991 16.859C5.93294 17.1544 5.58635 17.5862 5.34014 18.1544C5.09393 18.7188 4.97082 19.4044 4.97082 20.2112C4.97082 21.0408 5.09393 21.7378 5.34014 22.3021C5.59014 22.8665 5.93862 23.2927 6.38559 23.5806C6.83256 23.8684 7.34961 24.0124 7.93673 24.0124C8.26628 24.0124 8.5712 23.9688 8.8515 23.8817C9.13559 23.7946 9.38749 23.6677 9.60719 23.501C9.82688 23.3306 10.0087 23.1241 10.1526 22.8817C10.3004 22.6393 10.4026 22.3628 10.4595 22.0521L12.9481 22.0635C12.8837 22.5976 12.7227 23.1128 12.4651 23.609C12.2114 24.1014 11.8685 24.5427 11.4367 24.9328C11.0087 25.3192 10.4973 25.626 9.90264 25.8533C9.31173 26.0768 8.64317 26.1885 7.89696 26.1885C6.85908 26.1885 5.93105 25.9537 5.11287 25.484C4.29847 25.0143 3.65453 24.3343 3.18105 23.4442C2.71135 22.554 2.4765 21.4764 2.4765 20.2112C2.4765 18.9423 2.71514 17.8628 3.19241 16.9726C3.66969 16.0824 4.31741 15.4044 5.13559 14.9385C5.95378 14.4688 6.87423 14.234 7.89696 14.234C8.5712 14.234 9.1962 14.3287 9.77196 14.5181C10.3515 14.7074 10.8648 14.984 11.3117 15.3476C11.7587 15.7074 12.1223 16.1487 12.4026 16.6715C12.6867 17.1942 12.8685 17.7927 12.9481 18.4669ZM26.8455 20.2112C26.8455 21.4802 26.605 22.5597 26.1239 23.4499C25.6466 24.34 24.9951 25.0199 24.1693 25.4896C23.3474 25.9556 22.4231 26.1885 21.3966 26.1885C20.3625 26.1885 19.4345 25.9537 18.6125 25.484C17.7906 25.0143 17.1409 24.3343 16.6637 23.4442C16.1864 22.554 15.9478 21.4764 15.9478 20.2112C15.9478 18.9423 16.1864 17.8628 16.6637 16.9726C17.1409 16.0824 17.7906 15.4044 18.6125 14.9385C19.4345 14.4688 20.3625 14.234 21.3966 14.234C22.4231 14.234 23.3474 14.4688 24.1693 14.9385C24.9951 15.4044 25.6466 16.0824 26.1239 16.9726C26.605 17.8628 26.8455 18.9423 26.8455 20.2112ZM24.3512 20.2112C24.3512 19.3893 24.2281 18.6961 23.9818 18.1317C23.7394 17.5673 23.3966 17.1393 22.9534 16.8476C22.5103 16.5559 21.9913 16.4101 21.3966 16.4101C20.8019 16.4101 20.283 16.5559 19.8398 16.8476C19.3966 17.1393 19.0519 17.5673 18.8057 18.1317C18.5633 18.6961 18.4421 19.3893 18.4421 20.2112C18.4421 21.0332 18.5633 21.7264 18.8057 22.2908C19.0519 22.8552 19.3966 23.2832 19.8398 23.5749C20.283 23.8665 20.8019 24.0124 21.3966 24.0124C21.9913 24.0124 22.5103 23.8665 22.9534 23.5749C23.3966 23.2832 23.7394 22.8552 23.9818 22.2908C24.2281 21.7264 24.3512 21.0332 24.3512 20.2112ZM30.1079 26.0294V14.3931H32.5682V24.001H37.5568V26.0294H30.1079ZM40.626 26.0294V14.3931H43.0863V24.001H48.0749V26.0294H40.626ZM53.4467 26.0294H50.8104L54.8274 14.3931H57.9979L62.0092 26.0294H59.3729L56.4581 17.0521H56.3672L53.4467 26.0294ZM53.282 21.4556H59.5092V23.376H53.282V21.4556ZM64.8498 26.0294V14.3931H69.5089C70.365 14.3931 71.079 14.5199 71.6509 14.7737C72.2229 15.0275 72.6528 15.3798 72.9407 15.8306C73.2286 16.2775 73.3725 16.7927 73.3725 17.376C73.3725 17.8306 73.2816 18.2302 73.0998 18.5749C72.918 18.9158 72.668 19.1961 72.3498 19.4158C72.0354 19.6317 71.6756 19.7851 71.2703 19.876V19.9896C71.7134 20.0086 72.1282 20.1336 72.5146 20.3646C72.9047 20.5957 73.221 20.9196 73.4634 21.3362C73.7059 21.7491 73.8271 22.2415 73.8271 22.8135C73.8271 23.4309 73.6737 23.9821 73.3668 24.4669C73.0638 24.948 72.615 25.3287 72.0203 25.609C71.4256 25.8893 70.6926 26.0294 69.8214 26.0294H64.8498ZM67.31 24.0181H69.3157C70.0013 24.0181 70.5013 23.8874 70.8157 23.626C71.1301 23.3609 71.2873 23.0086 71.2873 22.5692C71.2873 22.2472 71.2096 21.9631 71.0543 21.7169C70.899 21.4707 70.6775 21.2775 70.3896 21.1374C70.1055 20.9972 69.7665 20.9271 69.3725 20.9271H67.31V24.0181ZM67.31 19.2624H69.1339C69.471 19.2624 69.7703 19.2037 70.0316 19.0862C70.2968 18.965 70.5051 18.7946 70.6566 18.5749C70.8119 18.3552 70.8896 18.0919 70.8896 17.7851C70.8896 17.3646 70.74 17.0256 70.4407 16.7681C70.1453 16.5105 69.7248 16.3817 69.1793 16.3817H67.31V19.2624ZM87.5611 20.2112C87.5611 21.4802 87.3206 22.5597 86.8395 23.4499C86.3622 24.34 85.7107 25.0199 84.885 25.4896C84.063 25.9556 83.1388 26.1885 82.1122 26.1885C81.0782 26.1885 80.1501 25.9537 79.3282 25.484C78.5062 25.0143 77.8566 24.3343 77.3793 23.4442C76.902 22.554 76.6634 21.4764 76.6634 20.2112C76.6634 18.9423 76.902 17.8628 77.3793 16.9726C77.8566 16.0824 78.5062 15.4044 79.3282 14.9385C80.1501 14.4688 81.0782 14.234 82.1122 14.234C83.1388 14.234 84.063 14.4688 84.885 14.9385C85.7107 15.4044 86.3622 16.0824 86.8395 16.9726C87.3206 17.8628 87.5611 18.9423 87.5611 20.2112ZM85.0668 20.2112C85.0668 19.3893 84.9437 18.6961 84.6975 18.1317C84.455 17.5673 84.1122 17.1393 83.6691 16.8476C83.2259 16.5559 82.7069 16.4101 82.1122 16.4101C81.5175 16.4101 80.9986 16.5559 80.5554 16.8476C80.1122 17.1393 79.7675 17.5673 79.5213 18.1317C79.2789 18.6961 79.1577 19.3893 79.1577 20.2112C79.1577 21.0332 79.2789 21.7264 79.5213 22.2908C79.7675 22.8552 80.1122 23.2832 80.5554 23.5749C80.9986 23.8665 81.5175 24.0124 82.1122 24.0124C82.7069 24.0124 83.2259 23.8665 83.6691 23.5749C84.1122 23.2832 84.455 22.8552 84.6975 22.2908C84.9437 21.7264 85.0668 21.0332 85.0668 20.2112ZM90.8236 26.0294V14.3931H95.4145C96.2932 14.3931 97.0432 14.5503 97.6645 14.8646C98.2895 15.1753 98.7648 15.6165 99.0906 16.1885C99.4201 16.7567 99.5849 17.4253 99.5849 18.1942C99.5849 18.9669 99.4182 19.6317 99.0849 20.1885C98.7516 20.7415 98.2686 21.1658 97.6361 21.4612C97.0073 21.7567 96.2459 21.9044 95.352 21.9044H92.2781V19.9271H94.9542C95.4239 19.9271 95.8141 19.8628 96.1247 19.734C96.4353 19.6052 96.6664 19.412 96.8179 19.1544C96.9732 18.8968 97.0508 18.5768 97.0508 18.1942C97.0508 17.8078 96.9732 17.4821 96.8179 17.2169C96.6664 16.9518 96.4334 16.751 96.119 16.6146C95.8084 16.4745 95.4164 16.4044 94.9429 16.4044H93.2838V26.0294H90.8236ZM97.1076 20.734L99.9997 26.0294H97.2838L94.4542 20.734H97.1076ZM107.036 26.1885C106.161 26.1885 105.383 26.0465 104.701 25.7624C104.023 25.4745 103.491 25.0824 103.104 24.5862C102.718 24.09 102.525 23.5275 102.525 22.8987C102.525 22.4139 102.635 21.9688 102.854 21.5635C103.078 21.1544 103.381 20.8154 103.764 20.5465C104.146 20.2737 104.574 20.0995 105.048 20.0237V19.9442C104.426 19.8192 103.923 19.5181 103.536 19.0408C103.15 18.5597 102.957 18.001 102.957 17.3646C102.957 16.7624 103.133 16.2264 103.485 15.7567C103.837 15.2832 104.32 14.912 104.934 14.6431C105.551 14.3703 106.252 14.234 107.036 14.234C107.82 14.234 108.519 14.3703 109.133 14.6431C109.75 14.9158 110.235 15.2889 110.587 15.7624C110.94 16.2321 111.118 16.7662 111.122 17.3646C111.118 18.0048 110.921 18.5635 110.531 19.0408C110.14 19.5181 109.64 19.8192 109.031 19.9442V20.0237C109.497 20.0995 109.919 20.2737 110.298 20.5465C110.68 20.8154 110.983 21.1544 111.207 21.5635C111.434 21.9688 111.55 22.4139 111.553 22.8987C111.55 23.5275 111.354 24.09 110.968 24.5862C110.582 25.0824 110.048 25.4745 109.366 25.7624C108.688 26.0465 107.911 26.1885 107.036 26.1885ZM107.036 24.3817C107.426 24.3817 107.767 24.3116 108.059 24.1715C108.351 24.0275 108.578 23.8306 108.741 23.5806C108.907 23.3268 108.991 23.0351 108.991 22.7056C108.991 22.3684 108.906 22.0711 108.735 21.8135C108.565 21.5521 108.334 21.3476 108.042 21.1999C107.75 21.0484 107.415 20.9726 107.036 20.9726C106.661 20.9726 106.326 21.0484 106.031 21.1999C105.735 21.3476 105.502 21.5521 105.332 21.8135C105.165 22.0711 105.082 22.3684 105.082 22.7056C105.082 23.0351 105.163 23.3268 105.326 23.5806C105.489 23.8306 105.718 24.0275 106.014 24.1715C106.309 24.3116 106.65 24.3817 107.036 24.3817ZM107.036 19.1828C107.362 19.1828 107.652 19.1165 107.906 18.984C108.159 18.8514 108.358 18.6677 108.502 18.4328C108.646 18.198 108.718 17.9271 108.718 17.6203C108.718 17.3173 108.646 17.0521 108.502 16.8249C108.358 16.5938 108.161 16.4139 107.911 16.2851C107.661 16.1525 107.37 16.0862 107.036 16.0862C106.707 16.0862 106.415 16.1525 106.161 16.2851C105.907 16.4139 105.709 16.5938 105.565 16.8249C105.425 17.0521 105.354 17.3173 105.354 17.6203C105.354 17.9271 105.426 18.198 105.57 18.4328C105.714 18.6677 105.913 18.8514 106.167 18.984C106.421 19.1165 106.711 19.1828 107.036 19.1828Z" fill="#F0DC28"/>
<path d="M12.9481 18.4669V19.4669H14.073L13.9412 18.3498L12.9481 18.4669ZM10.4595 18.4669L9.46928 18.6067L9.59072 19.4669H10.4595V18.4669ZM10.181 17.609L9.30564 18.0924L9.30877 18.098L10.181 17.609ZM9.64128 16.9612L9.01169 17.7382L9.01169 17.7382L9.64128 16.9612ZM8.87991 16.5521L8.56368 17.5008L8.56744 17.5021L8.87991 16.5521ZM6.37991 16.859L6.93136 17.6932L6.93624 17.6899L6.37991 16.859ZM5.34014 18.1544L6.25672 18.5543L6.2577 18.552L5.34014 18.1544ZM5.34014 22.3021L4.42355 22.702L4.42582 22.7071L5.34014 22.3021ZM6.38559 23.5806L5.84412 24.4213L5.84412 24.4213L6.38559 23.5806ZM8.8515 23.8817L8.55831 22.9256L8.5547 22.9268L8.8515 23.8817ZM9.60719 23.501L10.2116 24.2977L10.2202 24.2911L9.60719 23.501ZM10.1526 22.8817L9.29864 22.3613L9.29279 22.3712L10.1526 22.8817ZM10.4595 22.0521L10.464 21.0522L9.62649 21.0483L9.47578 21.8722L10.4595 22.0521ZM12.9481 22.0635L13.9409 22.1832L14.0753 21.0686L12.9527 21.0635L12.9481 22.0635ZM12.4651 23.609L11.5776 23.1482L11.5763 23.1508L12.4651 23.609ZM11.4367 24.9328L12.1068 25.6751L12.1071 25.6748L11.4367 24.9328ZM9.90264 25.8533L10.2564 26.7886L10.2596 26.7874L9.90264 25.8533ZM5.11287 25.484L4.61326 26.3502L4.615 26.3512L5.11287 25.484ZM3.18105 23.4442L2.29662 23.9109L2.29818 23.9138L3.18105 23.4442ZM3.19241 16.9726L4.07373 17.4451L4.07373 17.4451L3.19241 16.9726ZM5.13559 14.9385L5.63044 15.8075L5.63346 15.8058L5.13559 14.9385ZM9.77196 14.5181L9.45948 15.468L9.46133 15.4686L9.77196 14.5181ZM11.3117 15.3476L10.6806 16.1233L10.6846 16.1265L11.3117 15.3476ZM12.4026 16.6715L11.5213 17.144L11.524 17.149L12.4026 16.6715ZM12.9481 17.4669H10.4595V19.4669H12.9481V17.4669ZM11.4496 18.3271C11.3892 17.8988 11.2617 17.4916 11.0533 17.12L9.30877 18.098C9.38073 18.2263 9.43883 18.3911 9.46928 18.6067L11.4496 18.3271ZM11.0564 17.1255C10.8556 16.7619 10.5932 16.4455 10.2709 16.1843L9.01169 17.7382C9.12877 17.833 9.22617 17.9484 9.30566 18.0924L11.0564 17.1255ZM10.2709 16.1843C9.95026 15.9245 9.58727 15.7321 9.19239 15.6022L8.56744 17.5021C8.74832 17.5616 8.8929 17.6419 9.01169 17.7382L10.2709 16.1843ZM9.19614 15.6035C8.79925 15.4712 8.38254 15.4101 7.95378 15.4101V17.4101C8.19168 17.4101 8.3924 17.4437 8.56369 17.5008L9.19614 15.6035ZM7.95378 15.4101C7.17799 15.4101 6.45447 15.6056 5.82359 16.028L6.93624 17.6899C7.1993 17.5138 7.52501 17.4101 7.95378 17.4101V15.4101ZM5.82848 16.0247C5.1957 16.443 4.73361 17.0391 4.42258 17.7568L6.2577 18.552C6.43909 18.1334 6.67019 17.8658 6.93135 17.6932L5.82848 16.0247ZM4.42356 17.7546C4.1081 18.4777 3.97082 19.3075 3.97082 20.2112H5.97082C5.97082 19.5013 6.07976 18.9599 6.25672 18.5543L4.42356 17.7546ZM3.97082 20.2112C3.97082 21.1333 4.10677 21.9758 4.42356 22.702L6.25672 21.9023C6.08109 21.4997 5.97082 20.9483 5.97082 20.2112H3.97082ZM4.42582 22.7071C4.74186 23.4206 5.20787 24.0115 5.84412 24.4213L6.92707 22.7398C6.66938 22.5739 6.43842 22.3125 6.25446 21.8971L4.42582 22.7071ZM5.84412 24.4213C6.46916 24.8238 7.17834 25.0124 7.93673 25.0124V23.0124C7.52088 23.0124 7.19597 22.913 6.92707 22.7398L5.84412 24.4213ZM7.93673 25.0124C8.35474 25.0124 8.76093 24.957 9.14831 24.8366L8.5547 22.9268C8.38147 22.9806 8.17781 23.0124 7.93673 23.0124V25.0124ZM9.14469 24.8377C9.53233 24.7189 9.89129 24.5407 10.2116 24.2977L9.0028 22.7043C8.88369 22.7947 8.73886 22.8703 8.55831 22.9256L9.14469 24.8377ZM10.2202 24.2911C10.5404 24.0427 10.8054 23.741 11.0125 23.3922L9.29279 22.3712C9.21196 22.5073 9.1134 22.6184 8.99419 22.7109L10.2202 24.2911ZM11.0066 23.4021C11.2248 23.044 11.3667 22.6497 11.4431 22.2321L9.47578 21.8722C9.43853 22.0758 9.37594 22.2346 9.2987 22.3613L11.0066 23.4021ZM10.4549 23.0521L12.9435 23.0635L12.9527 21.0635L10.464 21.0522L10.4549 23.0521ZM11.9553 21.9438C11.9058 22.3542 11.7821 22.7542 11.5776 23.1483L13.3527 24.0697C13.6633 23.4713 13.8616 22.841 13.9409 22.1832L11.9553 21.9438ZM11.5763 23.1508C11.3804 23.5309 11.1134 23.8773 10.7663 24.1908L12.1071 25.6748C12.6237 25.2081 13.0423 24.6719 13.354 24.0671L11.5763 23.1508ZM10.7667 24.1905C10.4393 24.486 10.037 24.7314 9.54566 24.9192L10.2596 26.7874C10.9576 26.5206 11.5781 26.1524 12.1068 25.6751L10.7667 24.1905ZM9.54889 24.9179C9.08947 25.0917 8.54375 25.1885 7.89696 25.1885V27.1885C8.7426 27.1885 9.53399 27.0618 10.2564 26.7886L9.54889 24.9179ZM7.89696 25.1885C7.01582 25.1885 6.26256 24.9909 5.61073 24.6167L4.615 26.3512C5.59954 26.9164 6.70234 27.1885 7.89696 27.1885V25.1885ZM5.61247 24.6177C4.97233 24.2485 4.45601 23.7117 4.06392 22.9746L2.29818 23.9138C2.85306 24.957 3.62462 25.78 4.61326 26.3502L5.61247 24.6177ZM4.06548 22.9775C3.68872 22.2635 3.4765 21.3547 3.4765 20.2112H1.4765C1.4765 21.5981 1.73398 22.8446 2.29662 23.9109L4.06548 22.9775ZM3.4765 20.2112C3.4765 19.0657 3.69184 18.1574 4.07373 17.4451L2.3111 16.5001C1.73844 17.5681 1.4765 18.8189 1.4765 20.2112H3.4765ZM4.07373 17.4451C4.4688 16.7083 4.9878 16.1734 5.63043 15.8075L4.64076 14.0695C3.64703 14.6354 2.87057 15.4566 2.3111 16.5001L4.07373 17.4451ZM5.63346 15.8058C6.28752 15.4303 7.03379 15.234 7.89696 15.234V13.234C6.71467 13.234 5.62003 13.5073 4.63773 14.0713L5.63346 15.8058ZM7.89696 15.234C8.47687 15.234 8.99521 15.3153 9.45948 15.468L10.0844 13.5681C9.39719 13.3421 8.66554 13.234 7.89696 13.234V15.234ZM9.46133 15.4686C9.93109 15.6221 10.3343 15.8415 10.6806 16.1233L11.9428 14.5719C11.3952 14.1264 10.7719 13.7928 10.0826 13.5675L9.46133 15.4686ZM10.6846 16.1265C11.0237 16.3995 11.3022 16.7354 11.5214 17.144L13.2839 16.1989C12.9425 15.5621 12.4937 15.0154 11.9388 14.5687L10.6846 16.1265ZM11.524 17.149C11.7394 17.5453 11.8883 18.0185 11.955 18.5841L13.9412 18.3498C13.8488 17.5669 13.634 16.8431 13.2813 16.194L11.524 17.149ZM26.1239 23.4499L25.2441 22.9744L25.2426 22.9773L26.1239 23.4499ZM24.1693 25.4896L24.6625 26.3596L24.6638 26.3589L24.1693 25.4896ZM18.6125 25.484L19.1087 24.6157L18.6125 25.484ZM16.6637 23.4442L15.7824 23.9167L15.7824 23.9167L16.6637 23.4442ZM16.6637 16.9726L17.545 17.4451L17.545 17.4451L16.6637 16.9726ZM18.6125 14.9385L19.1056 15.8085L19.1087 15.8068L18.6125 14.9385ZM24.1693 14.9385L23.6732 15.8068L23.6779 15.8094L24.1693 14.9385ZM26.1239 16.9726L25.2426 17.4451L25.2441 17.448L26.1239 16.9726ZM23.9818 18.1317L23.063 18.5264L23.0653 18.5315L23.9818 18.1317ZM22.9534 16.8476L22.4037 17.6829L22.4037 17.6829L22.9534 16.8476ZM19.8398 16.8476L20.3895 17.6829L20.3895 17.6829L19.8398 16.8476ZM18.8057 18.1317L17.8891 17.7318L17.8869 17.737L18.8057 18.1317ZM18.8057 22.2908L17.8869 22.6855L17.8891 22.6906L18.8057 22.2908ZM19.8398 23.5749L20.3895 22.7395L20.3895 22.7395L19.8398 23.5749ZM22.9534 23.5749L22.4037 22.7395L22.4037 22.7395L22.9534 23.5749ZM23.9818 22.2908L23.0653 21.8909L23.063 21.8961L23.9818 22.2908ZM25.8455 20.2112C25.8455 21.3556 25.6287 22.2629 25.2441 22.9744L27.0036 23.9253C27.5812 22.8566 27.8455 21.6048 27.8455 20.2112H25.8455ZM25.2426 22.9773C24.8484 23.7124 24.3264 24.2498 23.6749 24.6204L24.6638 26.3589C25.6638 25.7901 26.4448 24.9676 27.0052 23.9224L25.2426 22.9773ZM23.6762 24.6197C23.0175 24.9931 22.2657 25.1885 21.3966 25.1885V27.1885C22.5806 27.1885 23.6773 26.918 24.6625 26.3596L23.6762 24.6197ZM21.3966 25.1885C20.52 25.1885 19.7658 24.9912 19.1087 24.6157L18.1164 26.3522C19.1032 26.9161 20.205 27.1885 21.3966 27.1885V25.1885ZM19.1087 24.6157C18.4607 24.2455 17.9397 23.7079 17.545 22.9717L15.7824 23.9167C16.3421 24.9608 17.1204 25.7831 18.1164 26.3522L19.1087 24.6157ZM17.545 22.9717C17.1629 22.259 16.9478 21.3524 16.9478 20.2112H14.9478C14.9478 21.6004 15.2099 22.8491 15.7824 23.9167L17.545 22.9717ZM16.9478 20.2112C16.9478 19.0657 17.1631 18.1574 17.545 17.4451L15.7824 16.5001C15.2097 17.5681 14.9478 18.8189 14.9478 20.2112H16.9478ZM17.545 17.4451C17.9394 16.7095 18.4595 16.1747 19.1056 15.8085L18.1194 14.0685C17.1217 14.6341 16.3425 15.4554 15.7824 16.5001L17.545 17.4451ZM19.1087 15.8068C19.7658 15.4312 20.52 15.234 21.3966 15.234V13.234C20.205 13.234 19.1032 13.5064 18.1164 14.0703L19.1087 15.8068ZM21.3966 15.234C22.2642 15.234 23.0149 15.4306 23.6732 15.8068L24.6655 14.0703C23.6798 13.507 22.582 13.234 21.3966 13.234V15.234ZM23.6779 15.8094C24.3277 16.176 24.8488 16.7107 25.2426 17.4451L27.0052 16.5001C26.4445 15.4542 25.6625 14.6328 24.6607 14.0676L23.6779 15.8094ZM25.2441 17.448C25.6287 18.1596 25.8455 19.0669 25.8455 20.2112H27.8455C27.8455 18.8177 27.5812 17.5659 27.0036 16.4972L25.2441 17.448ZM25.3512 20.2112C25.3512 19.2953 25.2148 18.457 24.8984 17.7318L23.0653 18.5315C23.2413 18.9351 23.3512 19.4832 23.3512 20.2112H25.3512ZM24.9007 17.737C24.5935 17.0219 24.1344 16.4277 23.5032 16.0123L22.4037 17.6829C22.6588 17.8508 22.8854 18.1127 23.063 18.5264L24.9007 17.737ZM23.5032 16.0123C22.8775 15.6005 22.1623 15.4101 21.3966 15.4101V17.4101C21.8204 17.4101 22.143 17.5114 22.4037 17.6829L23.5032 16.0123ZM21.3966 15.4101C20.631 15.4101 19.9157 15.6005 19.2901 16.0123L20.3895 17.6829C20.6502 17.5114 20.9729 17.4101 21.3966 17.4101V15.4101ZM19.2901 16.0123C18.6603 16.4267 18.2001 17.019 17.8891 17.7318L19.7223 18.5315C19.9037 18.1156 20.133 17.8518 20.3895 17.6829L19.2901 16.0123ZM17.8869 17.737C17.5761 18.4606 17.4421 19.297 17.4421 20.2112H19.4421C19.4421 19.4816 19.5505 18.9316 19.7245 18.5264L17.8869 17.737ZM17.4421 20.2112C17.4421 21.1255 17.5761 21.9619 17.8869 22.6854L19.7245 21.8961C19.5505 21.4909 19.4421 20.9409 19.4421 20.2112H17.4421ZM17.8891 22.6906C18.2001 23.4035 18.6603 23.9957 19.2901 24.4102L20.3895 22.7395C20.133 22.5707 19.9037 22.3069 19.7223 21.8909L17.8891 22.6906ZM19.2901 24.4102C19.9157 24.822 20.631 25.0124 21.3966 25.0124V23.0124C20.9729 23.0124 20.6502 22.9111 20.3895 22.7395L19.2901 24.4102ZM21.3966 25.0124C22.1623 25.0124 22.8775 24.822 23.5032 24.4102L22.4037 22.7395C22.143 22.9111 21.8204 23.0124 21.3966 23.0124V25.0124ZM23.5032 24.4102C24.1344 23.9948 24.5935 23.4006 24.9007 22.6854L23.063 21.8961C22.8854 22.3098 22.6588 22.5717 22.4037 22.7395L23.5032 24.4102ZM24.8984 22.6906C25.2148 21.9655 25.3512 21.1272 25.3512 20.2112H23.3512C23.3512 20.9393 23.2413 21.4873 23.0653 21.8909L24.8984 22.6906ZM30.1079 26.0294H29.1079V27.0294H30.1079V26.0294ZM30.1079 14.3931V13.3931H29.1079V14.3931H30.1079ZM32.5682 14.3931H33.5682V13.3931H32.5682V14.3931ZM32.5682 24.001H31.5682V25.001H32.5682V24.001ZM37.5568 24.001H38.5568V23.001H37.5568V24.001ZM37.5568 26.0294V27.0294H38.5568V26.0294H37.5568ZM31.1079 26.0294V14.3931H29.1079V26.0294H31.1079ZM30.1079 15.3931H32.5682V13.3931H30.1079V15.3931ZM31.5682 14.3931V24.001H33.5682V14.3931H31.5682ZM32.5682 25.001H37.5568V23.001H32.5682V25.001ZM36.5568 24.001V26.0294H38.5568V24.001H36.5568ZM37.5568 25.0294H30.1079V27.0294H37.5568V25.0294ZM40.626 26.0294H39.626V27.0294H40.626V26.0294ZM40.626 14.3931V13.3931H39.626V14.3931H40.626ZM43.0863 14.3931H44.0863V13.3931H43.0863V14.3931ZM43.0863 24.001H42.0863V25.001H43.0863V24.001ZM48.0749 24.001H49.0749V23.001H48.0749V24.001ZM48.0749 26.0294V27.0294H49.0749V26.0294H48.0749ZM41.626 26.0294V14.3931H39.626V26.0294H41.626ZM40.626 15.3931H43.0863V13.3931H40.626V15.3931ZM42.0863 14.3931V24.001H44.0863V14.3931H42.0863ZM43.0863 25.001H48.0749V23.001H43.0863V25.001ZM47.0749 24.001V26.0294H49.0749V24.001H47.0749ZM48.0749 25.0294H40.626V27.0294H48.0749V25.0294ZM53.4467 26.0294V27.0294H54.173L54.3977 26.3388L53.4467 26.0294ZM50.8104 26.0294L49.8651 25.7031L49.4072 27.0294H50.8104V26.0294ZM54.8274 14.3931V13.3931H54.1147L53.8822 14.0667L54.8274 14.3931ZM57.9979 14.3931L58.9433 14.0671L58.7109 13.3931H57.9979V14.3931ZM62.0092 26.0294V27.0294H63.4117L62.9546 25.7035L62.0092 26.0294ZM59.3729 26.0294L58.4217 26.3382L58.6462 27.0294H59.3729V26.0294ZM56.4581 17.0521L57.4092 16.7433L57.1848 16.0521H56.4581V17.0521ZM56.3672 17.0521V16.0521H55.6409L55.4162 16.7428L56.3672 17.0521ZM53.282 21.4556V20.4556H52.282V21.4556H53.282ZM59.5092 21.4556H60.5092V20.4556H59.5092V21.4556ZM59.5092 23.376V24.376H60.5092V23.376H59.5092ZM53.282 23.376H52.282V24.376H53.282V23.376ZM53.4467 25.0294H50.8104V27.0294H53.4467V25.0294ZM51.7556 26.3557L55.7727 14.7194L53.8822 14.0667L49.8651 25.7031L51.7556 26.3557ZM54.8274 15.3931H57.9979V13.3931H54.8274V15.3931ZM57.0525 14.719L61.0638 26.3553L62.9546 25.7035L58.9433 14.0671L57.0525 14.719ZM62.0092 25.0294H59.3729V27.0294H62.0092V25.0294ZM60.324 25.7206L57.4092 16.7433L55.507 17.361L58.4217 26.3382L60.324 25.7206ZM56.4581 16.0521H56.3672V18.0521H56.4581V16.0521ZM55.4162 16.7428L52.4958 25.7201L54.3977 26.3388L57.3181 17.3615L55.4162 16.7428ZM53.282 22.4556H59.5092V20.4556H53.282V22.4556ZM58.5092 21.4556V23.376H60.5092V21.4556H58.5092ZM59.5092 22.376H53.282V24.376H59.5092V22.376ZM54.282 23.376V21.4556H52.282V23.376H54.282ZM64.8498 26.0294H63.8498V27.0294H64.8498V26.0294ZM64.8498 14.3931V13.3931H63.8498V14.3931H64.8498ZM71.6509 14.7737L71.2454 15.6878L71.2454 15.6878L71.6509 14.7737ZM72.9407 15.8306L72.0979 16.3688L72.1 16.372L72.9407 15.8306ZM73.0998 18.5749L73.9822 19.0455L73.9843 19.0414L73.0998 18.5749ZM72.3498 19.4158L72.9159 20.2401L72.918 20.2387L72.3498 19.4158ZM71.2703 19.876L71.0514 18.9003L70.2703 19.0755V19.876H71.2703ZM71.2703 19.9896H70.2703V20.9478L71.2276 20.9887L71.2703 19.9896ZM72.5146 20.3646L72.0013 21.2229L72.005 21.2251L72.5146 20.3646ZM73.4634 21.3362L72.5991 21.8391L72.6011 21.8426L73.4634 21.3362ZM73.3668 24.4669L72.5218 23.9322L72.5207 23.9339L73.3668 24.4669ZM72.0203 25.609L71.5939 24.7044L71.5939 24.7044L72.0203 25.609ZM67.31 24.0181H66.31V25.0181H67.31V24.0181ZM70.8157 23.626L71.455 24.395L71.4604 24.3904L70.8157 23.626ZM71.0543 21.7169L70.2085 22.2504L70.2085 22.2504L71.0543 21.7169ZM70.3896 21.1374L69.9471 22.0342L69.9518 22.0365L70.3896 21.1374ZM67.31 20.9271V19.9271H66.31V20.9271H67.31ZM67.31 19.2624H66.31V20.2624H67.31V19.2624ZM70.0316 19.0862L70.4414 19.9984L70.4474 19.9957L70.0316 19.0862ZM70.6566 18.5749L69.84 17.9976L69.8334 18.0071L70.6566 18.5749ZM70.4407 16.7681L69.7836 17.5218L69.7883 17.526L70.4407 16.7681ZM67.31 16.3817V15.3817H66.31V16.3817H67.31ZM65.8498 26.0294V14.3931H63.8498V26.0294H65.8498ZM64.8498 15.3931H69.5089V13.3931H64.8498V15.3931ZM69.5089 15.3931C70.2736 15.3931 70.8389 15.5075 71.2454 15.6878L72.0565 13.8597C71.319 13.5324 70.4563 13.3931 69.5089 13.3931V15.3931ZM71.2454 15.6878C71.669 15.8758 71.9327 16.1101 72.0979 16.3688L73.7835 15.2923C73.373 14.6495 72.7768 14.1793 72.0565 13.8597L71.2454 15.6878ZM72.1 16.372C72.2739 16.642 72.3725 16.9653 72.3725 17.376H74.3725C74.3725 16.62 74.1833 15.9131 73.7814 15.2891L72.1 16.372ZM72.3725 17.376C72.3725 17.6951 72.3096 17.9297 72.2153 18.1083L73.9843 19.0414C74.2537 18.5307 74.3725 17.966 74.3725 17.376H72.3725ZM72.2174 18.1043C72.1108 18.3043 71.9686 18.4638 71.7816 18.5929L72.918 20.2387C73.3674 19.9284 73.7252 19.5273 73.9822 19.0455L72.2174 18.1043ZM71.7837 18.5915C71.5834 18.729 71.3435 18.8347 71.0514 18.9003L71.4891 20.8518C72.0076 20.7355 72.4875 20.5344 72.9159 20.2401L71.7837 18.5915ZM70.2703 19.876V19.9896H72.2703V19.876H70.2703ZM71.2276 20.9887C71.5021 21.0005 71.7554 21.0758 72.0013 21.2229L73.0278 19.5064C72.501 19.1913 71.9248 19.0167 71.313 18.9906L71.2276 20.9887ZM72.005 21.2251C72.239 21.3637 72.4369 21.5603 72.5991 21.8391L74.3278 20.8333C74.0051 20.2788 73.5704 19.8277 73.0241 19.5042L72.005 21.2251ZM72.6011 21.8426C72.7373 22.0745 72.8271 22.3848 72.8271 22.8135H74.8271C74.8271 22.0983 74.6745 21.4237 74.3258 20.8299L72.6011 21.8426ZM72.8271 22.8135C72.8271 23.2566 72.7197 23.6195 72.5218 23.9322L74.2119 25.0017C74.6277 24.3446 74.8271 23.6052 74.8271 22.8135H72.8271ZM72.5207 23.9339C72.3344 24.2297 72.0437 24.4924 71.5939 24.7044L72.4466 26.5135C73.1862 26.1649 73.7932 25.6663 74.213 24.9999L72.5207 23.9339ZM71.5939 24.7044C71.1685 24.9049 70.5909 25.0294 69.8214 25.0294V27.0294C70.7943 27.0294 71.6826 26.8736 72.4466 26.5135L71.5939 24.7044ZM69.8214 25.0294H64.8498V27.0294H69.8214V25.0294ZM67.31 25.0181H69.3157V23.0181H67.31V25.0181ZM69.3157 25.0181C70.0895 25.0181 70.8743 24.8777 71.455 24.395L70.1764 22.857C70.1283 22.897 69.9131 23.0181 69.3157 23.0181V25.0181ZM71.4604 24.3904C72.0171 23.921 72.2873 23.2803 72.2873 22.5692H70.2873C70.2873 22.7368 70.2431 22.8008 70.171 22.8616L71.4604 24.3904ZM72.2873 22.5692C72.2873 22.0791 72.1667 21.606 71.9001 21.1834L70.2085 22.2504C70.2526 22.3203 70.2873 22.4153 70.2873 22.5692H72.2873ZM71.9001 21.1834C71.6357 20.7642 71.2653 20.4515 70.8273 20.2383L69.9518 22.0365C70.0896 22.1036 70.1624 22.1772 70.2085 22.2504L71.9001 21.1834ZM70.832 20.2406C70.3809 20.018 69.8834 19.9271 69.3725 19.9271V21.9271C69.6496 21.9271 69.8301 21.9764 69.9471 22.0342L70.832 20.2406ZM69.3725 19.9271H67.31V21.9271H69.3725V19.9271ZM66.31 20.9271V24.0181H68.31V20.9271H66.31ZM67.31 20.2624H69.1339V18.2624H67.31V20.2624ZM69.1339 20.2624C69.5876 20.2624 70.0305 20.183 70.4414 19.9984L69.6218 18.1741C69.5101 18.2243 69.3544 18.2624 69.1339 18.2624V20.2624ZM70.4474 19.9957C70.861 19.8066 71.2165 19.5245 71.4798 19.1426L69.8334 18.0071C69.7937 18.0647 69.7325 18.1234 69.6159 18.1768L70.4474 19.9957ZM71.4732 19.1521C71.7641 18.7406 71.8896 18.2686 71.8896 17.7851H69.8896C69.8896 17.9153 69.8597 17.9698 69.84 17.9976L71.4732 19.1521ZM71.8896 17.7851C71.8896 17.0949 71.6288 16.4713 71.0931 16.0102L69.7883 17.526C69.8511 17.58 69.8896 17.6344 69.8896 17.7851H71.8896ZM71.0978 16.0143C70.5599 15.5453 69.8721 15.3817 69.1793 15.3817V17.3817C69.5775 17.3817 69.7306 17.4756 69.7836 17.5218L71.0978 16.0143ZM69.1793 15.3817H67.31V17.3817H69.1793V15.3817ZM66.31 16.3817V19.2624H68.31V16.3817H66.31ZM86.8395 23.4499L85.9598 22.9744L85.9582 22.9773L86.8395 23.4499ZM84.885 25.4896L85.3781 26.3596L85.3794 26.3589L84.885 25.4896ZM79.3282 25.484L79.8243 24.6157L79.3282 25.484ZM77.3793 23.4442L76.498 23.9167L76.498 23.9167L77.3793 23.4442ZM77.3793 16.9726L78.2606 17.4451L78.2606 17.4451L77.3793 16.9726ZM79.3282 14.9385L79.8213 15.8085L79.8243 15.8068L79.3282 14.9385ZM84.885 14.9385L84.3888 15.8068L84.3936 15.8094L84.885 14.9385ZM86.8395 16.9726L85.9582 17.4451L85.9598 17.448L86.8395 16.9726ZM84.6975 18.1317L83.7786 18.5264L83.7809 18.5315L84.6975 18.1317ZM83.6691 16.8476L83.1193 17.6829L83.1193 17.6829L83.6691 16.8476ZM80.5554 16.8476L81.1052 17.6829L81.1052 17.6829L80.5554 16.8476ZM79.5213 18.1317L78.6047 17.7318L78.6025 17.737L79.5213 18.1317ZM79.5213 22.2908L78.6025 22.6855L78.6048 22.6906L79.5213 22.2908ZM80.5554 23.5749L81.1052 22.7395L81.1052 22.7395L80.5554 23.5749ZM83.6691 23.5749L83.1193 22.7395L83.1193 22.7395L83.6691 23.5749ZM84.6975 22.2908L83.7809 21.8909L83.7786 21.8961L84.6975 22.2908ZM86.5611 20.2112C86.5611 21.3556 86.3443 22.2629 85.9598 22.9744L87.7193 23.9253C88.2968 22.8566 88.5611 21.6048 88.5611 20.2112H86.5611ZM85.9582 22.9773C85.5641 23.7124 85.0421 24.2498 84.3905 24.6204L85.3794 26.3589C86.3794 25.7901 87.1604 24.9676 87.7208 23.9224L85.9582 22.9773ZM84.3919 24.6197C83.7331 24.9931 82.9813 25.1885 82.1122 25.1885V27.1885C83.2962 27.1885 84.3929 26.918 85.3781 26.3596L84.3919 24.6197ZM82.1122 25.1885C81.2357 25.1885 80.4814 24.9912 79.8243 24.6157L78.832 26.3522C79.8188 26.9161 80.9206 27.1885 82.1122 27.1885V25.1885ZM79.8243 24.6157C79.1763 24.2455 78.6554 23.7079 78.2606 22.9717L76.498 23.9167C77.0578 24.9608 77.836 25.7831 78.832 26.3522L79.8243 24.6157ZM78.2606 22.9717C77.8785 22.259 77.6634 21.3524 77.6634 20.2112H75.6634C75.6634 21.6004 75.9255 22.8491 76.498 23.9167L78.2606 22.9717ZM77.6634 20.2112C77.6634 19.0657 77.8787 18.1574 78.2606 17.4451L76.498 16.5001C75.9253 17.5681 75.6634 18.8189 75.6634 20.2112H77.6634ZM78.2606 17.4451C78.655 16.7095 79.1751 16.1747 79.8213 15.8085L78.835 14.0685C77.8373 14.6341 77.0581 15.4554 76.498 16.5001L78.2606 17.4451ZM79.8243 15.8068C80.4814 15.4312 81.2357 15.234 82.1122 15.234V13.234C80.9206 13.234 79.8188 13.5064 78.832 14.0703L79.8243 15.8068ZM82.1122 15.234C82.9798 15.234 83.7306 15.4306 84.3888 15.8068L85.3811 14.0703C84.3954 13.507 83.2977 13.234 82.1122 13.234V15.234ZM84.3936 15.8094C85.0433 16.176 85.5644 16.7107 85.9582 17.4451L87.7208 16.5001C87.1601 15.4542 86.3782 14.6328 85.3764 14.0676L84.3936 15.8094ZM85.9598 17.448C86.3443 18.1596 86.5611 19.0669 86.5611 20.2112H88.5611C88.5611 18.8177 88.2968 17.5659 87.7193 16.4972L85.9598 17.448ZM86.0668 20.2112C86.0668 19.2953 85.9304 18.457 85.614 17.7318L83.7809 18.5315C83.957 18.9351 84.0668 19.4832 84.0668 20.2112H86.0668ZM85.6163 17.737C85.3091 17.0219 84.8501 16.4277 84.2188 16.0123L83.1193 17.6829C83.3744 17.8508 83.601 18.1127 83.7786 18.5264L85.6163 17.737ZM84.2188 16.0123C83.5931 15.6005 82.8779 15.4101 82.1122 15.4101V17.4101C82.536 17.4101 82.8586 17.5114 83.1193 17.6829L84.2188 16.0123ZM82.1122 15.4101C81.3466 15.4101 80.6314 15.6005 80.0057 16.0123L81.1052 17.6829C81.3658 17.5114 81.6885 17.4101 82.1122 17.4101V15.4101ZM80.0057 16.0123C79.3759 16.4267 78.9157 17.019 78.6048 17.7318L80.4379 18.5315C80.6194 18.1156 80.8486 17.8518 81.1052 17.6829L80.0057 16.0123ZM78.6025 17.737C78.2917 18.4606 78.1577 19.297 78.1577 20.2112H80.1577C80.1577 19.4816 80.2661 18.9316 80.4402 18.5264L78.6025 17.737ZM78.1577 20.2112C78.1577 21.1255 78.2917 21.9619 78.6025 22.6854L80.4402 21.8961C80.2661 21.4909 80.1577 20.9409 80.1577 20.2112H78.1577ZM78.6048 22.6906C78.9157 23.4035 79.3759 23.9957 80.0057 24.4102L81.1052 22.7395C80.8486 22.5707 80.6194 22.3069 80.4379 21.8909L78.6048 22.6906ZM80.0057 24.4102C80.6314 24.822 81.3466 25.0124 82.1122 25.0124V23.0124C81.6885 23.0124 81.3658 22.9111 81.1052 22.7395L80.0057 24.4102ZM82.1122 25.0124C82.8779 25.0124 83.5931 24.822 84.2188 24.4102L83.1193 22.7395C82.8586 22.9111 82.536 23.0124 82.1122 23.0124V25.0124ZM84.2188 24.4102C84.8501 23.9948 85.3091 23.4006 85.6163 22.6854L83.7786 21.8961C83.601 22.3098 83.3744 22.5717 83.1193 22.7395L84.2188 24.4102ZM85.614 22.6906C85.9304 21.9655 86.0668 21.1272 86.0668 20.2112H84.0668C84.0668 20.9393 83.957 21.4873 83.7809 21.8909L85.614 22.6906ZM90.8236 26.0294H89.8236V27.0294H90.8236V26.0294ZM90.8236 14.3931V13.3931H89.8236V14.3931H90.8236ZM97.6645 14.8646L97.2129 15.7569L97.2194 15.7602L97.6645 14.8646ZM99.0906 16.1885L98.2216 16.6834L98.2256 16.6902L99.0906 16.1885ZM99.0849 20.1885L99.9414 20.7047L99.9429 20.7021L99.0849 20.1885ZM97.6361 21.4612L97.2129 20.5552L97.2108 20.5562L97.6361 21.4612ZM92.2781 21.9044H91.2781V22.9044H92.2781V21.9044ZM92.2781 19.9271V18.9271H91.2781V19.9271H92.2781ZM96.1247 19.734L96.5077 20.6577L96.5077 20.6577L96.1247 19.734ZM96.8179 19.1544L95.9614 18.638L95.9559 18.6474L96.8179 19.1544ZM96.8179 17.2169L95.9496 17.7131L95.955 17.7223L96.8179 17.2169ZM96.119 16.6146L95.7077 17.5262L95.7144 17.5292L95.7211 17.5321L96.119 16.6146ZM93.2838 16.4044V15.4044H92.2838V16.4044H93.2838ZM93.2838 26.0294V27.0294H94.2838V26.0294H93.2838ZM97.1076 20.734L97.9853 20.2547L97.7009 19.734H97.1076V20.734ZM99.9997 26.0294V27.0294H101.685L100.877 25.5501L99.9997 26.0294ZM97.2838 26.0294L96.4018 26.5007L96.6843 27.0294H97.2838V26.0294ZM94.4542 20.734V19.734H92.7861L93.5722 21.2052L94.4542 20.734ZM91.8236 26.0294V14.3931H89.8236V26.0294H91.8236ZM90.8236 15.3931H95.4145V13.3931H90.8236V15.3931ZM95.4145 15.3931C96.1765 15.3931 96.7635 15.5295 97.2129 15.7569L98.116 13.9724C97.323 13.571 96.41 13.3931 95.4145 13.3931V15.3931ZM97.2194 15.7602C97.6777 15.9879 98.0003 16.2948 98.2216 16.6834L99.9595 15.6936C99.5294 14.9383 98.9012 14.3626 98.1095 13.9691L97.2194 15.7602ZM98.2256 16.6902C98.4526 17.0817 98.5849 17.5711 98.5849 18.1942H100.585C100.585 17.2794 100.388 16.4317 99.9556 15.6868L98.2256 16.6902ZM98.5849 18.1942C98.5849 18.8207 98.451 19.3006 98.2269 19.6749L99.9429 20.7021C100.386 19.9628 100.585 19.1131 100.585 18.1942H98.5849ZM98.2285 19.6723C98.006 20.0413 97.6808 20.3366 97.2129 20.5552L98.0592 22.3673C98.8564 21.9949 99.4971 21.4418 99.9414 20.7047L98.2285 19.6723ZM97.2108 20.5562C96.7475 20.7739 96.1395 20.9044 95.352 20.9044V22.9044C96.3523 22.9044 97.2671 22.7395 98.0613 22.3663L97.2108 20.5562ZM95.352 20.9044H92.2781V22.9044H95.352V20.9044ZM93.2781 21.9044V19.9271H91.2781V21.9044H93.2781ZM92.2781 20.9271H94.9542V18.9271H92.2781V20.9271ZM94.9542 20.9271C95.5069 20.9271 96.0377 20.8526 96.5077 20.6577L95.7417 18.8102C95.5904 18.8729 95.341 18.9271 94.9542 18.9271V20.9271ZM96.5077 20.6577C96.9926 20.4566 97.4045 20.1294 97.6798 19.6614L95.9559 18.6474C95.9282 18.6945 95.878 18.7537 95.7417 18.8102L96.5077 20.6577ZM97.6742 19.6708C97.9459 19.2203 98.0508 18.7099 98.0508 18.1942H96.0508C96.0508 18.4436 96.0005 18.5734 95.9615 18.6381L97.6742 19.6708ZM98.0508 18.1942C98.0508 17.6753 97.9462 17.1647 97.6808 16.7115L95.955 17.7223C96.0001 17.7994 96.0508 17.9403 96.0508 18.1942H98.0508ZM97.6861 16.7208C97.4145 16.2454 97.0041 15.9085 96.5169 15.6972L95.7211 17.5321C95.8627 17.5935 95.9182 17.6581 95.9496 17.7131L97.6861 16.7208ZM96.5303 15.7031C96.0504 15.4866 95.5065 15.4044 94.9429 15.4044V17.4044C95.3262 17.4044 95.5664 17.4624 95.7077 17.5262L96.5303 15.7031ZM94.9429 15.4044H93.2838V17.4044H94.9429V15.4044ZM92.2838 16.4044V26.0294H94.2838V16.4044H92.2838ZM93.2838 25.0294H90.8236V27.0294H93.2838V25.0294ZM96.23 21.2133L99.122 26.5087L100.877 25.5501L97.9853 20.2547L96.23 21.2133ZM99.9997 25.0294H97.2838V27.0294H99.9997V25.0294ZM98.1658 25.5581L95.3362 20.2627L93.5722 21.2052L96.4018 26.5007L98.1658 25.5581ZM94.4542 21.734H97.1076V19.734H94.4542V21.734ZM104.701 25.7624L104.31 26.6829L104.316 26.6855L104.701 25.7624ZM103.104 24.5862L102.315 25.2006L103.104 24.5862ZM102.854 21.5635L101.977 21.0841L101.975 21.087L102.854 21.5635ZM103.764 20.5465L104.339 21.3646L104.344 21.3607L103.764 20.5465ZM105.048 20.0237L105.206 21.0112L106.048 20.8765V20.0237H105.048ZM105.048 19.9442H106.048V19.1254L105.245 18.9638L105.048 19.9442ZM103.536 19.0408L102.757 19.667L102.759 19.67L103.536 19.0408ZM103.485 15.7567L104.285 16.3567L104.287 16.3536L103.485 15.7567ZM104.934 14.6431L105.335 15.559L105.338 15.5578L104.934 14.6431ZM109.133 14.6431L108.727 15.5569L108.729 15.5578L109.133 14.6431ZM110.587 15.7624L109.785 16.3593L109.787 16.3624L110.587 15.7624ZM111.122 17.3646L112.122 17.3706L112.121 17.3583L111.122 17.3646ZM110.531 19.0408L109.756 18.4079L109.756 18.4079L110.531 19.0408ZM109.031 19.9442L108.83 18.9646L108.031 19.1284V19.9442H109.031ZM109.031 20.0237H108.031V20.8743L108.87 21.0108L109.031 20.0237ZM110.298 20.5465L109.713 21.3581L109.723 21.3646L110.298 20.5465ZM111.207 21.5635L110.329 22.043L110.335 22.0526L111.207 21.5635ZM111.553 22.8987L112.553 22.9048L112.553 22.8909L111.553 22.8987ZM110.968 24.5862L110.179 23.9719L110.179 23.9719L110.968 24.5862ZM109.366 25.7624L109.752 26.6847L109.755 26.6836L109.366 25.7624ZM108.059 24.1715L108.492 25.0729L108.502 25.0682L108.059 24.1715ZM108.741 23.5806L107.905 23.0316L107.903 23.0347L108.741 23.5806ZM108.735 21.8135L107.898 22.3598L107.901 22.3654L108.735 21.8135ZM108.042 21.1999L107.581 22.0873L107.59 22.092L108.042 21.1999ZM106.031 21.1999L106.478 22.0943L106.487 22.0897L106.031 21.1999ZM105.332 21.8135L104.494 21.2672L104.492 21.2703L105.332 21.8135ZM105.326 23.5806L104.484 24.1207L104.488 24.1264L105.326 23.5806ZM106.014 24.1715L105.576 25.0705L105.585 25.075L106.014 24.1715ZM107.906 18.984L107.443 18.0976L107.443 18.0976L107.906 18.984ZM108.502 18.4328L107.65 17.9103L107.65 17.9103L108.502 18.4328ZM108.502 16.8249L107.653 17.3536L107.657 17.3599L108.502 16.8249ZM107.911 16.2851L107.443 17.1686L107.453 17.1741L107.911 16.2851ZM106.161 16.2851L106.614 17.1769L106.624 17.1714L106.161 16.2851ZM105.565 16.8249L104.716 16.2961L104.714 16.3L105.565 16.8249ZM105.57 18.4328L104.718 18.9554L104.718 18.9554L105.57 18.4328ZM106.167 18.984L106.63 18.0976L106.63 18.0976L106.167 18.984ZM107.036 25.1885C106.269 25.1885 105.625 25.0641 105.086 24.8393L104.316 26.6855C105.14 27.0288 106.053 27.1885 107.036 27.1885V25.1885ZM105.092 24.8419C104.543 24.6091 104.159 24.3125 103.893 23.9719L102.315 25.2006C102.823 25.8524 103.503 26.3399 104.31 26.6828L105.092 24.8419ZM103.893 23.9719C103.644 23.6512 103.525 23.3049 103.525 22.8987H101.525C101.525 23.7501 101.792 24.5288 102.315 25.2006L103.893 23.9719ZM103.525 22.8987C103.525 22.5714 103.597 22.2914 103.734 22.0401L101.975 21.087C101.672 21.6462 101.525 22.2564 101.525 22.8987H103.525ZM103.732 22.0429C103.882 21.7689 104.081 21.5456 104.339 21.3646L103.188 19.7284C102.681 20.0852 102.274 20.54 101.977 21.0841L103.732 22.0429ZM104.344 21.3607C104.598 21.1794 104.881 21.0631 105.206 21.0112L104.89 19.0363C104.267 19.1359 103.694 19.368 103.183 19.7322L104.344 21.3607ZM106.048 20.0237V19.9442H104.048V20.0237H106.048ZM105.245 18.9638C104.844 18.8832 104.548 18.7017 104.314 18.4116L102.759 19.67C103.297 20.3345 104.009 20.7552 104.85 20.9245L105.245 18.9638ZM104.316 18.4146C104.077 18.117 103.957 17.781 103.957 17.3646H101.957C101.957 18.221 102.223 19.0024 102.757 19.667L104.316 18.4146ZM103.957 17.3646C103.957 16.9727 104.066 16.6485 104.285 16.3567L102.685 15.1567C102.199 15.8042 101.957 16.552 101.957 17.3646H103.957ZM104.287 16.3536C104.523 16.0374 104.859 15.7678 105.335 15.559L104.533 13.7272C103.782 14.0562 103.152 14.529 102.683 15.1598L104.287 16.3536ZM105.338 15.5578C105.809 15.3497 106.369 15.234 107.036 15.234V13.234C106.135 13.234 105.294 13.391 104.53 13.7283L105.338 15.5578ZM107.036 15.234C107.704 15.234 108.261 15.3497 108.727 15.5569L109.539 13.7292C108.778 13.391 107.937 13.234 107.036 13.234V15.234ZM108.729 15.5578C109.211 15.7709 109.55 16.0432 109.785 16.3593L111.39 15.1655C110.92 14.5345 110.289 14.0607 109.537 13.7283L108.729 15.5578ZM109.787 16.3624C110.009 16.6572 110.119 16.9822 110.122 17.371L112.121 17.3583C112.116 16.5501 111.871 15.807 111.387 15.1624L109.787 16.3624ZM110.122 17.3587C110.119 17.7797 109.996 18.1149 109.756 18.4079L111.305 19.6737C111.846 19.0121 112.116 18.2299 112.121 17.3706L110.122 17.3587ZM109.756 18.4079C109.513 18.7052 109.217 18.8852 108.83 18.9646L109.231 20.9238C110.064 20.7531 110.768 20.331 111.305 19.6737L109.756 18.4079ZM108.031 19.9442V20.0237H110.031V19.9442H108.031ZM108.87 21.0108C109.185 21.062 109.462 21.1769 109.713 21.358L110.882 19.7349C110.376 19.3706 109.808 19.137 109.191 19.0367L108.87 21.0108ZM109.723 21.3646C109.98 21.5456 110.179 21.7689 110.329 22.0429L112.084 21.0841C111.787 20.54 111.38 20.0852 110.873 19.7284L109.723 21.3646ZM110.335 22.0526C110.476 22.3043 110.551 22.5827 110.553 22.9065L112.553 22.8909C112.548 22.245 112.392 21.6333 112.079 21.0744L110.335 22.0526ZM110.553 22.8927C110.551 23.301 110.43 23.6496 110.179 23.9719L111.757 25.2006C112.279 24.5304 112.548 23.7541 112.553 22.9048L110.553 22.8927ZM110.179 23.9719C109.915 24.3112 109.529 24.6079 108.977 24.8411L109.755 26.6836C110.566 26.3411 111.249 25.8537 111.757 25.2006L110.179 23.9719ZM108.979 24.8401C108.445 25.0641 107.803 25.1885 107.036 25.1885V27.1885C108.019 27.1885 108.931 27.0288 109.752 26.6847L108.979 24.8401ZM107.036 25.3817C107.546 25.3817 108.04 25.2899 108.492 25.0728L107.626 23.2701C107.494 23.3333 107.307 23.3817 107.036 23.3817V25.3817ZM108.502 25.0682C108.939 24.8523 109.309 24.5401 109.579 24.1264L107.903 23.0347C107.847 23.121 107.762 23.2028 107.616 23.2747L108.502 25.0682ZM109.577 24.1295C109.86 23.6987 109.991 23.2128 109.991 22.7056H107.991C107.991 22.8574 107.955 22.9548 107.905 23.0316L109.577 24.1295ZM109.991 22.7056C109.991 22.1909 109.858 21.6978 109.569 21.2616L107.901 22.3654C107.953 22.4443 107.991 22.546 107.991 22.7056H109.991ZM109.573 21.2672C109.302 20.8516 108.934 20.5309 108.494 20.3078L107.59 22.092C107.733 22.1643 107.828 22.2527 107.898 22.3598L109.573 21.2672ZM108.503 20.3125C108.049 20.0764 107.551 19.9726 107.036 19.9726V21.9726C107.279 21.9726 107.452 22.0203 107.581 22.0873L108.503 20.3125ZM107.036 19.9726C106.523 19.9726 106.028 20.0772 105.574 20.3101L106.487 22.0897C106.624 22.0195 106.799 21.9726 107.036 21.9726V19.9726ZM105.583 20.3054C105.139 20.5277 104.767 20.8484 104.494 21.2672L106.169 22.3598C106.237 22.2559 106.331 22.1675 106.478 22.0943L105.583 20.3054ZM104.492 21.2703C104.211 21.7055 104.082 22.1955 104.082 22.7056H106.082C106.082 22.5414 106.12 22.4367 106.171 22.3568L104.492 21.2703ZM104.082 22.7056C104.082 23.2081 104.209 23.6909 104.484 24.1207L106.168 23.0404C106.118 22.9627 106.082 22.8621 106.082 22.7056H104.082ZM104.488 24.1264C104.76 24.5433 105.134 24.8555 105.576 25.0705L106.452 23.2725C106.302 23.1996 106.218 23.1178 106.164 23.0347L104.488 24.1264ZM105.585 25.075C106.037 25.2892 106.528 25.3817 107.036 25.3817V23.3817C106.772 23.3817 106.581 23.3341 106.442 23.268L105.585 25.075ZM107.036 20.1828C107.501 20.1828 107.953 20.0873 108.369 19.8703L107.443 18.0976C107.35 18.1458 107.223 18.1828 107.036 18.1828V20.1828ZM108.369 19.8703C108.776 19.6574 109.112 19.3508 109.355 18.9554L107.65 17.9103C107.604 17.9846 107.543 18.0454 107.443 18.0976L108.369 19.8703ZM109.355 18.9554C109.606 18.5458 109.718 18.09 109.718 17.6203H107.718C107.718 17.7643 107.686 17.8501 107.65 17.9103L109.355 18.9554ZM109.718 17.6203C109.718 17.1525 109.605 16.6968 109.347 16.2898L107.657 17.3599C107.688 17.4075 107.718 17.4821 107.718 17.6203H109.718ZM109.351 16.2961C109.108 15.9067 108.774 15.6047 108.369 15.3961L107.453 17.1741C107.548 17.2231 107.608 17.2809 107.653 17.3536L109.351 16.2961ZM108.38 15.4016C107.962 15.18 107.504 15.0862 107.036 15.0862V17.0862C107.235 17.0862 107.361 17.1251 107.443 17.1686L108.38 15.4016ZM107.036 15.0862C106.57 15.0862 106.115 15.181 105.698 15.3988L106.624 17.1714C106.715 17.1241 106.844 17.0862 107.036 17.0862V15.0862ZM105.709 15.3934C105.3 15.6008 104.961 15.903 104.716 16.2961L106.413 17.3536C106.456 17.2846 106.515 17.227 106.614 17.1769L105.709 15.3934ZM104.714 16.3C104.463 16.7055 104.354 17.1575 104.354 17.6203H106.354C106.354 17.4771 106.386 17.3988 106.416 17.3498L104.714 16.3ZM104.354 17.6203C104.354 18.09 104.467 18.5458 104.718 18.9554L106.423 17.9103C106.386 17.8501 106.354 17.7643 106.354 17.6203H104.354ZM104.718 18.9554C104.96 19.3508 105.296 19.6574 105.704 19.8703L106.63 18.0976C106.53 18.0454 106.469 17.9846 106.423 17.9103L104.718 18.9554ZM105.704 19.8703C106.119 20.0873 106.572 20.1828 107.036 20.1828V18.1828C106.849 18.1828 106.722 18.1458 106.63 18.0976L105.704 19.8703Z" fill="black" mask="url(#path-1-outside-1_858_1408)"/>
</g>
<mask id="path-3-inside-2_858_1408" fill="white">
<path fill-rule="evenodd" clip-rule="evenodd" d="M61.1825 1.9438L59.1796 0L57.0764 2.04111L55.0029 0.0287811L53.0001 1.97259L55.0735 3.98492L53.0085 5.98902L55.0114 7.93282L57.0764 5.92872L59.1711 7.96161L61.174 6.0178L59.0793 3.98492L61.1825 1.9438Z"/>
</mask>
<path fill-rule="evenodd" clip-rule="evenodd" d="M61.1825 1.9438L59.1796 0L57.0764 2.04111L55.0029 0.0287811L53.0001 1.97259L55.0735 3.98492L53.0085 5.98902L55.0114 7.93282L57.0764 5.92872L59.1711 7.96161L61.174 6.0178L59.0793 3.98492L61.1825 1.9438Z" fill="#F0DC28"/>
<path d="M59.1796 0L59.876 -0.717611L59.1796 -1.39351L58.4831 -0.717611L59.1796 0ZM61.1825 1.9438L61.8789 2.66142L62.6183 1.9438L61.8789 1.22619L61.1825 1.9438ZM57.0764 2.04111L56.38 2.75872L57.0764 3.43462L57.7729 2.75872L57.0764 2.04111ZM55.0029 0.0287811L55.6994 -0.68883L55.0029 -1.36473L54.3065 -0.68883L55.0029 0.0287811ZM53.0001 1.97259L52.3036 1.25497L51.5642 1.97259L52.3036 2.6902L53.0001 1.97259ZM55.0735 3.98492L55.77 4.70253L56.5094 3.98492L55.77 3.26731L55.0735 3.98492ZM53.0085 5.98902L52.3121 5.27141L51.5727 5.98902L52.3121 6.70663L53.0085 5.98902ZM55.0114 7.93282L54.315 8.65044L55.0114 9.32634L55.7079 8.65044L55.0114 7.93282ZM57.0764 5.92872L57.7729 5.21111L57.0764 4.53521L56.38 5.21111L57.0764 5.92872ZM59.1711 7.96161L58.4747 8.67922L59.1711 9.35512L59.8675 8.67922L59.1711 7.96161ZM61.174 6.0178L61.8704 6.73541L62.6099 6.0178L61.8704 5.30019L61.174 6.0178ZM59.0793 3.98492L58.3829 3.26731L57.6435 3.98492L58.3829 4.70253L59.0793 3.98492ZM58.4831 0.717611L60.486 2.66142L61.8789 1.22619L59.876 -0.717611L58.4831 0.717611ZM57.7729 2.75872L59.876 0.717611L58.4831 -0.717611L56.38 1.3235L57.7729 2.75872ZM54.3065 0.746392L56.38 2.75872L57.7729 1.3235L55.6994 -0.68883L54.3065 0.746392ZM53.6965 2.6902L55.6994 0.746392L54.3065 -0.68883L52.3036 1.25497L53.6965 2.6902ZM55.77 3.26731L53.6965 1.25497L52.3036 2.6902L54.3771 4.70253L55.77 3.26731ZM53.705 6.70663L55.77 4.70253L54.3771 3.26731L52.3121 5.27141L53.705 6.70663ZM55.7079 7.21521L53.705 5.27141L52.3121 6.70663L54.315 8.65044L55.7079 7.21521ZM56.38 5.21111L54.315 7.21521L55.7079 8.65044L57.7729 6.64633L56.38 5.21111ZM59.8675 7.24399L57.7729 5.21111L56.38 6.64633L58.4747 8.67922L59.8675 7.24399ZM60.4775 5.30019L58.4747 7.24399L59.8675 8.67922L61.8704 6.73541L60.4775 5.30019ZM58.3829 4.70253L60.4775 6.73541L61.8704 5.30019L59.7758 3.26731L58.3829 4.70253ZM60.486 1.22619L58.3829 3.26731L59.7758 4.70253L61.8789 2.66142L60.486 1.22619Z" fill="black" mask="url(#path-3-inside-2_858_1408)"/>
<defs>
<filter id="filter0_d_858_1408" x="2.4765" y="14.234" width="109.077" height="13.9545" filterUnits="userSpaceOnUse" color-interpolation-filters="sRGB">
<feFlood flood-opacity="0" result="BackgroundImageFix"/>
<feColorMatrix in="SourceAlpha" type="matrix" values="0 0 0 0 0 0 0 0 0 0 0 0 0 0 0 0 0 0 127 0" result="hardAlpha"/>
<feOffset dy="2"/>
<feComposite in2="hardAlpha" operator="out"/>
<feColorMatrix type="matrix" values="0 0 0 0 0 0 0 0 0 0 0 0 0 0 0 0 0 0 1 0"/>
<feBlend mode="normal" in2="BackgroundImageFix" result="effect1_dropShadow_858_1408"/>
<feBlend mode="normal" in="SourceGraphic" in2="effect1_dropShadow_858_1408" result="shape"/>
</filter>
</defs>
</svg>
