<svg width="249" height="61" viewBox="0 0 249 61" fill="none" xmlns="http://www.w3.org/2000/svg">
<g filter="url(#filter0_d_843_1091)">
<mask id="path-1-outside-1_843_1091" maskUnits="userSpaceOnUse" x="0" y="25" width="249" height="30" fill="black">
<rect fill="white" y="25" width="249" height="30"/>
<path d="M25.3764 35.9844H19.777C19.6747 35.2599 19.4659 34.6165 19.1506 34.054C18.8352 33.483 18.4304 32.9972 17.9361 32.5966C17.4418 32.196 16.8707 31.8892 16.223 31.6761C15.5838 31.4631 14.8892 31.3565 14.1392 31.3565C12.7841 31.3565 11.6037 31.6932 10.598 32.3665C9.59233 33.0312 8.8125 34.0028 8.25852 35.2812C7.70455 36.5511 7.42756 38.0937 7.42756 39.9091C7.42756 41.7756 7.70455 43.3437 8.25852 44.6136C8.82102 45.8835 9.60511 46.8423 10.6108 47.4901C11.6165 48.1378 12.7798 48.4616 14.1009 48.4616C14.8423 48.4616 15.5284 48.3636 16.1591 48.1676C16.7983 47.9716 17.3651 47.6861 17.8594 47.3111C18.3537 46.9276 18.7628 46.4631 19.0866 45.9176C19.419 45.3722 19.6491 44.75 19.777 44.0511L25.3764 44.0767C25.2315 45.2784 24.8693 46.4375 24.2898 47.554C23.7188 48.6619 22.9474 49.6548 21.9759 50.5327C21.0128 51.402 19.8622 52.0923 18.5241 52.6037C17.1946 53.1065 15.6903 53.358 14.0114 53.358C11.6761 53.358 9.58807 52.8295 7.74716 51.7727C5.91477 50.7159 4.46591 49.1861 3.40057 47.1832C2.34375 45.1804 1.81534 42.7557 1.81534 39.9091C1.81534 37.054 2.35227 34.625 3.42614 32.6222C4.5 30.6193 5.95739 29.0937 7.7983 28.0455C9.6392 26.9886 11.7102 26.4602 14.0114 26.4602C15.5284 26.4602 16.9347 26.6733 18.2301 27.0994C19.5341 27.5256 20.6889 28.1477 21.6946 28.9659C22.7003 29.7756 23.5185 30.7685 24.1491 31.9446C24.7884 33.1207 25.1974 34.4673 25.3764 35.9844ZM56.6455 39.9091C56.6455 42.7642 56.1043 45.1932 55.022 47.196C53.9481 49.1989 52.4822 50.7287 50.6242 51.7855C48.7748 52.8338 46.6953 53.358 44.3856 53.358C42.0589 53.358 39.9708 52.8295 38.1214 51.7727C36.272 50.7159 34.8103 49.1861 33.7364 47.1832C32.6626 45.1804 32.1257 42.7557 32.1257 39.9091C32.1257 37.054 32.6626 34.625 33.7364 32.6222C34.8103 30.6193 36.272 29.0937 38.1214 28.0455C39.9708 26.9886 42.0589 26.4602 44.3856 26.4602C46.6953 26.4602 48.7748 26.9886 50.6242 28.0455C52.4822 29.0937 53.9481 30.6193 55.022 32.6222C56.1043 34.625 56.6455 37.054 56.6455 39.9091ZM51.0333 39.9091C51.0333 38.0597 50.7563 36.5 50.2024 35.2301C49.6569 33.9602 48.8856 32.9972 47.8884 32.3409C46.8913 31.6847 45.7237 31.3565 44.3856 31.3565C43.0475 31.3565 41.8799 31.6847 40.8828 32.3409C39.8856 32.9972 39.11 33.9602 38.5561 35.2301C38.0106 36.5 37.7379 38.0597 37.7379 39.9091C37.7379 41.7585 38.0106 43.3182 38.5561 44.5881C39.11 45.858 39.8856 46.821 40.8828 47.4773C41.8799 48.1335 43.0475 48.4616 44.3856 48.4616C45.7237 48.4616 46.8913 48.1335 47.8884 47.4773C48.8856 46.821 49.6569 45.858 50.2024 44.5881C50.7563 43.3182 51.0333 41.7585 51.0333 39.9091ZM63.986 53V26.8182H69.5215V48.4361H80.746V53H63.986ZM87.6518 53V26.8182H93.1873V48.4361H104.412V53H87.6518ZM116.498 53H110.567L119.605 26.8182H126.738L135.764 53H129.832L123.274 32.8011H123.069L116.498 53ZM116.128 42.7088H130.139V47.0298H116.128V42.7088ZM142.155 53V26.8182H152.638C154.564 26.8182 156.171 27.1037 157.458 27.6747C158.745 28.2457 159.712 29.0384 160.36 30.0526C161.008 31.0582 161.331 32.2173 161.331 33.5298C161.331 34.5526 161.127 35.4517 160.718 36.2273C160.309 36.9943 159.746 37.625 159.03 38.1193C158.323 38.6051 157.513 38.9503 156.601 39.1548V39.4105C157.598 39.4531 158.532 39.7344 159.401 40.2543C160.279 40.7741 160.99 41.5028 161.536 42.4403C162.081 43.3693 162.354 44.4773 162.354 45.7642C162.354 47.1534 162.009 48.3935 161.319 49.4844C160.637 50.5668 159.627 51.4233 158.289 52.054C156.951 52.6847 155.302 53 153.341 53H142.155ZM147.691 48.4744H152.204C153.746 48.4744 154.871 48.1804 155.579 47.5923C156.286 46.9957 156.64 46.2031 156.64 45.2145C156.64 44.4901 156.465 43.8509 156.115 43.2969C155.766 42.7429 155.267 42.3082 154.62 41.9929C153.981 41.6776 153.218 41.5199 152.331 41.5199H147.691V48.4744ZM147.691 37.7741H151.794C152.553 37.7741 153.226 37.642 153.814 37.3778C154.411 37.1051 154.88 36.7216 155.221 36.2273C155.57 35.733 155.745 35.1406 155.745 34.4503C155.745 33.5043 155.408 32.7415 154.735 32.1619C154.07 31.5824 153.124 31.2926 151.897 31.2926H147.691V37.7741ZM193.256 39.9091C193.256 42.7642 192.715 45.1932 191.632 47.196C190.558 49.1989 189.092 50.7287 187.234 51.7855C185.385 52.8338 183.305 53.358 180.996 53.358C178.669 53.358 176.581 52.8295 174.732 51.7727C172.882 50.7159 171.42 49.1861 170.347 47.1832C169.273 45.1804 168.736 42.7557 168.736 39.9091C168.736 37.054 169.273 34.625 170.347 32.6222C171.42 30.6193 172.882 29.0937 174.732 28.0455C176.581 26.9886 178.669 26.4602 180.996 26.4602C183.305 26.4602 185.385 26.9886 187.234 28.0455C189.092 29.0937 190.558 30.6193 191.632 32.6222C192.715 34.625 193.256 37.054 193.256 39.9091ZM187.643 39.9091C187.643 38.0597 187.366 36.5 186.813 35.2301C186.267 33.9602 185.496 32.9972 184.499 32.3409C183.501 31.6847 182.334 31.3565 180.996 31.3565C179.658 31.3565 178.49 31.6847 177.493 32.3409C176.496 32.9972 175.72 33.9602 175.166 35.2301C174.621 36.5 174.348 38.0597 174.348 39.9091C174.348 41.7585 174.621 43.3182 175.166 44.5881C175.72 45.858 176.496 46.821 177.493 47.4773C178.49 48.1335 179.658 48.4616 180.996 48.4616C182.334 48.4616 183.501 48.1335 184.499 47.4773C185.496 46.821 186.267 45.858 186.813 44.5881C187.366 43.3182 187.643 41.7585 187.643 39.9091ZM200.596 53V26.8182H210.926C212.903 26.8182 214.591 27.1719 215.988 27.8793C217.394 28.5781 218.464 29.571 219.197 30.858C219.939 32.1364 220.309 33.6406 220.309 35.3707C220.309 37.1094 219.934 38.6051 219.184 39.858C218.434 41.1023 217.348 42.0568 215.924 42.7216C214.51 43.3864 212.796 43.7188 210.785 43.7188H203.869V39.2699H209.89C210.947 39.2699 211.825 39.125 212.524 38.8352C213.223 38.5455 213.742 38.1108 214.083 37.5312C214.433 36.9517 214.608 36.2315 214.608 35.3707C214.608 34.5014 214.433 33.7685 214.083 33.1719C213.742 32.5753 213.218 32.1236 212.511 31.8168C211.812 31.5014 210.93 31.3438 209.865 31.3438H206.132V53H200.596ZM214.735 41.0852L221.242 53H215.132L208.765 41.0852H214.735ZM237.075 53.358C235.106 53.358 233.355 53.0384 231.821 52.3991C230.295 51.7514 229.098 50.8693 228.228 49.7528C227.359 48.6364 226.924 47.3707 226.924 45.956C226.924 44.8651 227.171 43.8636 227.666 42.9517C228.169 42.0312 228.85 41.2685 229.711 40.6634C230.572 40.0497 231.535 39.6577 232.6 39.4872V39.3082C231.203 39.027 230.069 38.3494 229.2 37.2756C228.331 36.1932 227.896 34.9361 227.896 33.5043C227.896 32.1491 228.292 30.9432 229.085 29.8864C229.877 28.821 230.964 27.9858 232.345 27.3807C233.734 26.767 235.311 26.4602 237.075 26.4602C238.839 26.4602 240.411 26.767 241.792 27.3807C243.181 27.9943 244.272 28.8338 245.065 29.8991C245.857 30.956 246.258 32.1577 246.267 33.5043C246.258 34.9446 245.815 36.2017 244.937 37.2756C244.059 38.3494 242.934 39.027 241.562 39.3082V39.4872C242.61 39.6577 243.561 40.0497 244.413 40.6634C245.274 41.2685 245.956 42.0312 246.458 42.9517C246.97 43.8636 247.23 44.8651 247.238 45.956C247.23 47.3707 246.791 48.6364 245.921 49.7528C245.052 50.8693 243.85 51.7514 242.316 52.3991C240.791 53.0384 239.044 53.358 237.075 53.358ZM237.075 49.2926C237.953 49.2926 238.72 49.1349 239.376 48.8196C240.032 48.4957 240.544 48.0526 240.91 47.4901C241.285 46.919 241.473 46.2628 241.473 45.5213C241.473 44.7628 241.281 44.0938 240.897 43.5142C240.514 42.9261 239.994 42.4659 239.338 42.1335C238.681 41.7926 237.927 41.6222 237.075 41.6222C236.231 41.6222 235.477 41.7926 234.812 42.1335C234.147 42.4659 233.623 42.9261 233.24 43.5142C232.865 44.0938 232.677 44.7628 232.677 45.5213C232.677 46.2628 232.86 46.919 233.227 47.4901C233.593 48.0526 234.109 48.4957 234.774 48.8196C235.438 49.1349 236.206 49.2926 237.075 49.2926ZM237.075 37.5952C237.808 37.5952 238.46 37.446 239.031 37.1477C239.602 36.8494 240.049 36.4361 240.373 35.9077C240.697 35.3793 240.859 34.7699 240.859 34.0795C240.859 33.3977 240.697 32.8011 240.373 32.2898C240.049 31.7699 239.606 31.3651 239.044 31.0753C238.481 30.777 237.825 30.6278 237.075 30.6278C236.333 30.6278 235.677 30.777 235.106 31.0753C234.535 31.3651 234.088 31.7699 233.764 32.2898C233.448 32.8011 233.291 33.3977 233.291 34.0795C233.291 34.7699 233.453 35.3793 233.777 35.9077C234.1 36.4361 234.548 36.8494 235.119 37.1477C235.69 37.446 236.342 37.5952 237.075 37.5952Z"/>
</mask>
<path d="M25.3764 35.9844H19.777C19.6747 35.2599 19.4659 34.6165 19.1506 34.054C18.8352 33.483 18.4304 32.9972 17.9361 32.5966C17.4418 32.196 16.8707 31.8892 16.223 31.6761C15.5838 31.4631 14.8892 31.3565 14.1392 31.3565C12.7841 31.3565 11.6037 31.6932 10.598 32.3665C9.59233 33.0312 8.8125 34.0028 8.25852 35.2812C7.70455 36.5511 7.42756 38.0937 7.42756 39.9091C7.42756 41.7756 7.70455 43.3437 8.25852 44.6136C8.82102 45.8835 9.60511 46.8423 10.6108 47.4901C11.6165 48.1378 12.7798 48.4616 14.1009 48.4616C14.8423 48.4616 15.5284 48.3636 16.1591 48.1676C16.7983 47.9716 17.3651 47.6861 17.8594 47.3111C18.3537 46.9276 18.7628 46.4631 19.0866 45.9176C19.419 45.3722 19.6491 44.75 19.777 44.0511L25.3764 44.0767C25.2315 45.2784 24.8693 46.4375 24.2898 47.554C23.7188 48.6619 22.9474 49.6548 21.9759 50.5327C21.0128 51.402 19.8622 52.0923 18.5241 52.6037C17.1946 53.1065 15.6903 53.358 14.0114 53.358C11.6761 53.358 9.58807 52.8295 7.74716 51.7727C5.91477 50.7159 4.46591 49.1861 3.40057 47.1832C2.34375 45.1804 1.81534 42.7557 1.81534 39.9091C1.81534 37.054 2.35227 34.625 3.42614 32.6222C4.5 30.6193 5.95739 29.0937 7.7983 28.0455C9.6392 26.9886 11.7102 26.4602 14.0114 26.4602C15.5284 26.4602 16.9347 26.6733 18.2301 27.0994C19.5341 27.5256 20.6889 28.1477 21.6946 28.9659C22.7003 29.7756 23.5185 30.7685 24.1491 31.9446C24.7884 33.1207 25.1974 34.4673 25.3764 35.9844ZM56.6455 39.9091C56.6455 42.7642 56.1043 45.1932 55.022 47.196C53.9481 49.1989 52.4822 50.7287 50.6242 51.7855C48.7748 52.8338 46.6953 53.358 44.3856 53.358C42.0589 53.358 39.9708 52.8295 38.1214 51.7727C36.272 50.7159 34.8103 49.1861 33.7364 47.1832C32.6626 45.1804 32.1257 42.7557 32.1257 39.9091C32.1257 37.054 32.6626 34.625 33.7364 32.6222C34.8103 30.6193 36.272 29.0937 38.1214 28.0455C39.9708 26.9886 42.0589 26.4602 44.3856 26.4602C46.6953 26.4602 48.7748 26.9886 50.6242 28.0455C52.4822 29.0937 53.9481 30.6193 55.022 32.6222C56.1043 34.625 56.6455 37.054 56.6455 39.9091ZM51.0333 39.9091C51.0333 38.0597 50.7563 36.5 50.2024 35.2301C49.6569 33.9602 48.8856 32.9972 47.8884 32.3409C46.8913 31.6847 45.7237 31.3565 44.3856 31.3565C43.0475 31.3565 41.8799 31.6847 40.8828 32.3409C39.8856 32.9972 39.11 33.9602 38.5561 35.2301C38.0106 36.5 37.7379 38.0597 37.7379 39.9091C37.7379 41.7585 38.0106 43.3182 38.5561 44.5881C39.11 45.858 39.8856 46.821 40.8828 47.4773C41.8799 48.1335 43.0475 48.4616 44.3856 48.4616C45.7237 48.4616 46.8913 48.1335 47.8884 47.4773C48.8856 46.821 49.6569 45.858 50.2024 44.5881C50.7563 43.3182 51.0333 41.7585 51.0333 39.9091ZM63.986 53V26.8182H69.5215V48.4361H80.746V53H63.986ZM87.6518 53V26.8182H93.1873V48.4361H104.412V53H87.6518ZM116.498 53H110.567L119.605 26.8182H126.738L135.764 53H129.832L123.274 32.8011H123.069L116.498 53ZM116.128 42.7088H130.139V47.0298H116.128V42.7088ZM142.155 53V26.8182H152.638C154.564 26.8182 156.171 27.1037 157.458 27.6747C158.745 28.2457 159.712 29.0384 160.36 30.0526C161.008 31.0582 161.331 32.2173 161.331 33.5298C161.331 34.5526 161.127 35.4517 160.718 36.2273C160.309 36.9943 159.746 37.625 159.03 38.1193C158.323 38.6051 157.513 38.9503 156.601 39.1548V39.4105C157.598 39.4531 158.532 39.7344 159.401 40.2543C160.279 40.7741 160.99 41.5028 161.536 42.4403C162.081 43.3693 162.354 44.4773 162.354 45.7642C162.354 47.1534 162.009 48.3935 161.319 49.4844C160.637 50.5668 159.627 51.4233 158.289 52.054C156.951 52.6847 155.302 53 153.341 53H142.155ZM147.691 48.4744H152.204C153.746 48.4744 154.871 48.1804 155.579 47.5923C156.286 46.9957 156.64 46.2031 156.64 45.2145C156.64 44.4901 156.465 43.8509 156.115 43.2969C155.766 42.7429 155.267 42.3082 154.62 41.9929C153.981 41.6776 153.218 41.5199 152.331 41.5199H147.691V48.4744ZM147.691 37.7741H151.794C152.553 37.7741 153.226 37.642 153.814 37.3778C154.411 37.1051 154.88 36.7216 155.221 36.2273C155.57 35.733 155.745 35.1406 155.745 34.4503C155.745 33.5043 155.408 32.7415 154.735 32.1619C154.07 31.5824 153.124 31.2926 151.897 31.2926H147.691V37.7741ZM193.256 39.9091C193.256 42.7642 192.715 45.1932 191.632 47.196C190.558 49.1989 189.092 50.7287 187.234 51.7855C185.385 52.8338 183.305 53.358 180.996 53.358C178.669 53.358 176.581 52.8295 174.732 51.7727C172.882 50.7159 171.42 49.1861 170.347 47.1832C169.273 45.1804 168.736 42.7557 168.736 39.9091C168.736 37.054 169.273 34.625 170.347 32.6222C171.42 30.6193 172.882 29.0937 174.732 28.0455C176.581 26.9886 178.669 26.4602 180.996 26.4602C183.305 26.4602 185.385 26.9886 187.234 28.0455C189.092 29.0937 190.558 30.6193 191.632 32.6222C192.715 34.625 193.256 37.054 193.256 39.9091ZM187.643 39.9091C187.643 38.0597 187.366 36.5 186.813 35.2301C186.267 33.9602 185.496 32.9972 184.499 32.3409C183.501 31.6847 182.334 31.3565 180.996 31.3565C179.658 31.3565 178.49 31.6847 177.493 32.3409C176.496 32.9972 175.72 33.9602 175.166 35.2301C174.621 36.5 174.348 38.0597 174.348 39.9091C174.348 41.7585 174.621 43.3182 175.166 44.5881C175.72 45.858 176.496 46.821 177.493 47.4773C178.49 48.1335 179.658 48.4616 180.996 48.4616C182.334 48.4616 183.501 48.1335 184.499 47.4773C185.496 46.821 186.267 45.858 186.813 44.5881C187.366 43.3182 187.643 41.7585 187.643 39.9091ZM200.596 53V26.8182H210.926C212.903 26.8182 214.591 27.1719 215.988 27.8793C217.394 28.5781 218.464 29.571 219.197 30.858C219.939 32.1364 220.309 33.6406 220.309 35.3707C220.309 37.1094 219.934 38.6051 219.184 39.858C218.434 41.1023 217.348 42.0568 215.924 42.7216C214.51 43.3864 212.796 43.7188 210.785 43.7188H203.869V39.2699H209.89C210.947 39.2699 211.825 39.125 212.524 38.8352C213.223 38.5455 213.742 38.1108 214.083 37.5312C214.433 36.9517 214.608 36.2315 214.608 35.3707C214.608 34.5014 214.433 33.7685 214.083 33.1719C213.742 32.5753 213.218 32.1236 212.511 31.8168C211.812 31.5014 210.93 31.3438 209.865 31.3438H206.132V53H200.596ZM214.735 41.0852L221.242 53H215.132L208.765 41.0852H214.735ZM237.075 53.358C235.106 53.358 233.355 53.0384 231.821 52.3991C230.295 51.7514 229.098 50.8693 228.228 49.7528C227.359 48.6364 226.924 47.3707 226.924 45.956C226.924 44.8651 227.171 43.8636 227.666 42.9517C228.169 42.0312 228.85 41.2685 229.711 40.6634C230.572 40.0497 231.535 39.6577 232.6 39.4872V39.3082C231.203 39.027 230.069 38.3494 229.2 37.2756C228.331 36.1932 227.896 34.9361 227.896 33.5043C227.896 32.1491 228.292 30.9432 229.085 29.8864C229.877 28.821 230.964 27.9858 232.345 27.3807C233.734 26.767 235.311 26.4602 237.075 26.4602C238.839 26.4602 240.411 26.767 241.792 27.3807C243.181 27.9943 244.272 28.8338 245.065 29.8991C245.857 30.956 246.258 32.1577 246.267 33.5043C246.258 34.9446 245.815 36.2017 244.937 37.2756C244.059 38.3494 242.934 39.027 241.562 39.3082V39.4872C242.61 39.6577 243.561 40.0497 244.413 40.6634C245.274 41.2685 245.956 42.0312 246.458 42.9517C246.97 43.8636 247.23 44.8651 247.238 45.956C247.23 47.3707 246.791 48.6364 245.921 49.7528C245.052 50.8693 243.85 51.7514 242.316 52.3991C240.791 53.0384 239.044 53.358 237.075 53.358ZM237.075 49.2926C237.953 49.2926 238.72 49.1349 239.376 48.8196C240.032 48.4957 240.544 48.0526 240.91 47.4901C241.285 46.919 241.473 46.2628 241.473 45.5213C241.473 44.7628 241.281 44.0938 240.897 43.5142C240.514 42.9261 239.994 42.4659 239.338 42.1335C238.681 41.7926 237.927 41.6222 237.075 41.6222C236.231 41.6222 235.477 41.7926 234.812 42.1335C234.147 42.4659 233.623 42.9261 233.24 43.5142C232.865 44.0938 232.677 44.7628 232.677 45.5213C232.677 46.2628 232.86 46.919 233.227 47.4901C233.593 48.0526 234.109 48.4957 234.774 48.8196C235.438 49.1349 236.206 49.2926 237.075 49.2926ZM237.075 37.5952C237.808 37.5952 238.46 37.446 239.031 37.1477C239.602 36.8494 240.049 36.4361 240.373 35.9077C240.697 35.3793 240.859 34.7699 240.859 34.0795C240.859 33.3977 240.697 32.8011 240.373 32.2898C240.049 31.7699 239.606 31.3651 239.044 31.0753C238.481 30.777 237.825 30.6278 237.075 30.6278C236.333 30.6278 235.677 30.777 235.106 31.0753C234.535 31.3651 234.088 31.7699 233.764 32.2898C233.448 32.8011 233.291 33.3977 233.291 34.0795C233.291 34.7699 233.453 35.3793 233.777 35.9077C234.1 36.4361 234.548 36.8494 235.119 37.1477C235.69 37.446 236.342 37.5952 237.075 37.5952Z" fill="#F0DC28"/>
<path d="M25.3764 35.9844V36.9844H26.5013L26.3695 35.8672L25.3764 35.9844ZM19.777 35.9844L18.7868 36.1242L18.9082 36.9844H19.777V35.9844ZM19.1506 34.054L18.2752 34.5374L18.2783 34.543L19.1506 34.054ZM17.9361 32.5966L17.3065 33.3735L17.3065 33.3735L17.9361 32.5966ZM16.223 31.6761L15.9068 32.6248L15.9105 32.6261L16.223 31.6761ZM10.598 32.3665L11.1495 33.2007L11.1543 33.1974L10.598 32.3665ZM8.25852 35.2812L9.17511 35.6811L9.17608 35.6789L8.25852 35.2812ZM8.25852 44.6136L7.34193 45.0135L7.34421 45.0186L8.25852 44.6136ZM10.6108 47.4901L10.0693 48.3308L10.6108 47.4901ZM16.1591 48.1676L15.8659 47.2116L15.8623 47.2127L16.1591 48.1676ZM17.8594 47.3111L18.4638 48.1078L18.4724 48.1012L17.8594 47.3111ZM19.0866 45.9176L18.2327 45.3972L18.2268 45.4071L19.0866 45.9176ZM19.777 44.0511L19.7816 43.0511L18.944 43.0473L18.7933 43.8712L19.777 44.0511ZM25.3764 44.0767L26.3692 44.1964L26.5036 43.0818L25.381 43.0767L25.3764 44.0767ZM24.2898 47.554L23.4022 47.0933L23.4009 47.0959L24.2898 47.554ZM21.9759 50.5327L22.6459 51.275L22.6463 51.2747L21.9759 50.5327ZM18.5241 52.6037L18.8779 53.539L18.8811 53.5378L18.5241 52.6037ZM7.74716 51.7727L7.24755 52.639L7.24929 52.64L7.74716 51.7727ZM3.40057 47.1832L2.51614 47.6499L2.5177 47.6529L3.40057 47.1832ZM3.42614 32.6222L4.30745 33.0947L3.42614 32.6222ZM7.7983 28.0455L8.29314 28.9144L8.29616 28.9127L7.7983 28.0455ZM18.2301 27.0994L17.9176 28.0494L17.9195 28.05L18.2301 27.0994ZM21.6946 28.9659L21.0635 29.7416L21.0675 29.7448L21.6946 28.9659ZM24.1491 31.9446L23.2678 32.4172L23.2705 32.4221L24.1491 31.9446ZM25.3764 34.9844H19.777V36.9844H25.3764V34.9844ZM20.7672 35.8446C20.6499 35.0138 20.4064 34.2491 20.0229 33.565L18.2783 34.543C18.5254 34.9838 18.6995 35.5061 18.7868 36.1242L20.7672 35.8446ZM20.026 33.5706C19.65 32.8897 19.1626 32.3034 18.5657 31.8197L17.3065 33.3735C17.6982 33.6909 18.0205 34.0762 18.2752 34.5374L20.026 33.5706ZM18.5657 31.8197C17.9704 31.3373 17.2902 30.9745 16.5355 30.7262L15.9105 32.6261C16.4513 32.8039 16.9131 33.0547 17.3065 33.3735L18.5657 31.8197ZM16.5392 30.7275C15.7872 30.4768 14.9846 30.3565 14.1392 30.3565V32.3565C14.7938 32.3565 15.3804 32.4494 15.9068 32.6248L16.5392 30.7275ZM14.1392 30.3565C12.6106 30.3565 11.2313 30.7391 10.0417 31.5355L11.1543 33.1974C11.9761 32.6473 12.9576 32.3565 14.1392 32.3565V30.3565ZM10.0466 31.5323C8.85509 32.3199 7.95976 33.4557 7.34097 34.8836L9.17608 35.6789C9.66524 34.55 10.3296 33.7426 11.1494 33.2007L10.0466 31.5323ZM7.34194 34.8814C6.71872 36.31 6.42756 37.9969 6.42756 39.9091H8.42756C8.42756 38.1906 8.69038 36.7922 9.1751 35.6811L7.34194 34.8814ZM6.42756 39.9091C6.42756 41.8681 6.71739 43.5818 7.34194 45.0135L9.1751 44.2138C8.6917 43.1057 8.42756 41.6831 8.42756 39.9091H6.42756ZM7.34421 45.0186C7.97274 46.4376 8.87436 47.5611 10.0693 48.3308L11.1523 46.6493C10.3359 46.1235 9.6693 45.3294 9.17284 44.2086L7.34421 45.0186ZM10.0693 48.3308C11.2531 49.0932 12.6086 49.4616 14.1009 49.4616V47.4616C12.9511 47.4616 11.9799 47.1824 11.1523 46.6493L10.0693 48.3308ZM14.1009 49.4616C14.9308 49.4616 15.7181 49.3519 16.4559 49.1226L15.8623 47.2127C15.3387 47.3754 14.7539 47.4616 14.1009 47.4616V49.4616ZM16.4523 49.1237C17.195 48.8959 17.8689 48.5591 18.4638 48.1078L17.255 46.5144C16.8613 46.8131 16.4016 47.0473 15.8659 47.2116L16.4523 49.1237ZM18.4724 48.1012C19.0672 47.6397 19.5595 47.0799 19.9465 46.4282L18.2268 45.4071C17.966 45.8462 17.6402 46.2154 17.2464 46.521L18.4724 48.1012ZM19.9406 46.438C20.3435 45.7769 20.6133 45.0369 20.7607 44.2311L18.7933 43.8712C18.685 44.4631 18.4946 44.9675 18.2327 45.3972L19.9406 46.438ZM19.7724 45.0511L25.3719 45.0767L25.381 43.0767L19.7816 43.0511L19.7724 45.0511ZM24.3836 43.957C24.2536 45.035 23.9287 46.079 23.4022 47.0933L25.1773 48.0147C25.8099 46.796 26.2094 45.5218 26.3692 44.1964L24.3836 43.957ZM23.4009 47.0959C22.8878 48.0915 22.1923 48.9894 21.3055 49.7907L22.6463 51.2747C23.7026 50.3203 24.5497 49.2324 25.1787 48.0121L23.4009 47.0959ZM21.3058 49.7904C20.4434 50.5688 19.4019 51.1977 18.1672 51.6696L18.8811 53.5378C20.3225 52.987 21.5821 52.2352 22.6459 51.275L21.3058 49.7904ZM18.1704 51.6684C16.9723 52.1215 15.5909 52.358 14.0114 52.358V54.358C15.7898 54.358 17.4169 54.0916 18.8779 53.539L18.1704 51.6684ZM14.0114 52.358C11.8329 52.358 9.91958 51.8668 8.24503 50.9055L7.24929 52.64C9.25656 53.7923 11.5194 54.358 14.0114 54.358V52.358ZM8.24677 50.9065C6.58863 49.9502 5.26738 48.5634 4.28344 46.7136L2.5177 47.6529C3.66444 49.8087 5.24091 51.4817 7.24755 52.639L8.24677 50.9065ZM4.285 46.7166C3.32112 44.8899 2.81534 42.634 2.81534 39.9091H0.815341C0.815341 42.8774 1.36638 45.4709 2.51614 47.6499L4.285 46.7166ZM2.81534 39.9091C2.81534 37.1774 3.32898 34.9196 4.30745 33.0947L2.54482 32.1496C1.37557 34.3304 0.815341 36.9305 0.815341 39.9091H2.81534ZM4.30745 33.0947C5.29911 31.2452 6.62777 29.8628 8.29313 28.9144L7.30346 27.1765C5.287 28.3247 3.70089 29.9935 2.54482 32.1496L4.30745 33.0947ZM8.29616 28.9127C9.97295 27.9501 11.8698 27.4602 14.0114 27.4602V25.4602C11.5507 25.4602 9.30546 26.0272 7.30043 27.1782L8.29616 28.9127ZM14.0114 27.4602C15.4341 27.4602 16.7337 27.6599 17.9176 28.0494L18.5426 26.1495C17.1356 25.6867 15.6227 25.4602 14.0114 25.4602V27.4602ZM17.9195 28.05C19.1137 28.4402 20.1585 29.0053 21.0635 29.7416L22.3257 28.1902C21.2194 27.2901 19.9545 26.6109 18.5407 26.1489L17.9195 28.05ZM21.0675 29.7448C21.9652 30.4676 22.6983 31.3551 23.2679 32.4172L25.0304 31.472C24.3386 30.1818 23.4353 29.0835 22.3217 28.187L21.0675 29.7448ZM23.2705 32.4221C23.841 33.4719 24.2171 34.6931 24.3833 36.1015L26.3695 35.8672C26.1777 34.2415 25.7357 32.7696 25.0278 31.4671L23.2705 32.4221ZM55.022 47.196L54.1422 46.7206L54.1406 46.7235L55.022 47.196ZM50.6242 51.7855L51.1173 52.6555L51.1187 52.6547L50.6242 51.7855ZM38.1214 51.7727L38.6175 50.9045L38.1214 51.7727ZM33.7365 47.1832L32.8551 47.6558L33.7365 47.1832ZM33.7365 32.6222L34.6178 33.0947L33.7365 32.6222ZM38.1214 28.0455L38.6145 28.9154L38.6175 28.9137L38.1214 28.0455ZM50.6242 28.0455L50.1281 28.9137L50.1328 28.9164L50.6242 28.0455ZM55.022 32.6222L54.1406 33.0947L54.1422 33.0976L55.022 32.6222ZM50.2024 35.2301L49.2835 35.6248L49.2858 35.63L50.2024 35.2301ZM47.8884 32.3409L47.3387 33.1762L47.8884 32.3409ZM40.8828 32.3409L41.4325 33.1762L40.8828 32.3409ZM38.556 35.2301L37.6395 34.8303L37.6372 34.8354L38.556 35.2301ZM38.556 44.5881L37.6372 44.9827L37.6395 44.9879L38.556 44.5881ZM40.8828 47.4773L41.4325 46.6419L40.8828 47.4773ZM47.8884 47.4773L47.3387 46.6419L47.8884 47.4773ZM50.2024 44.5881L49.2858 44.1882L49.2835 44.1934L50.2024 44.5881ZM55.6455 39.9091C55.6455 42.6396 55.1281 44.8963 54.1422 46.7206L55.9017 47.6715C57.0806 45.49 57.6455 42.8888 57.6455 39.9091H55.6455ZM54.1406 46.7235C53.1499 48.5713 51.8135 49.9586 50.1298 50.9163L51.1187 52.6547C53.1509 51.4988 54.7463 49.8265 55.9033 47.6686L54.1406 46.7235ZM50.1311 50.9155C48.4449 51.8713 46.5378 52.358 44.3856 52.358V54.358C46.8527 54.358 49.1047 53.7963 51.1173 52.6555L50.1311 50.9155ZM44.3856 52.358C42.2164 52.358 40.3021 51.8671 38.6175 50.9045L37.6253 52.641C39.6395 53.792 41.9014 54.358 44.3856 54.358V52.358ZM38.6175 50.9045C36.9421 49.9471 35.6091 48.5597 34.6178 46.7107L32.8551 47.6558C34.0115 49.8125 35.6018 51.4847 37.6253 52.641L38.6175 50.9045ZM34.6178 46.7107C33.6391 44.8854 33.1257 42.6317 33.1257 39.9091H31.1257C31.1257 42.8797 31.6861 45.4754 32.8551 47.6558L34.6178 46.7107ZM33.1257 39.9091C33.1257 37.1774 33.6393 34.9196 34.6178 33.0947L32.8551 32.1496C31.6859 34.3304 31.1257 36.9305 31.1257 39.9091H33.1257ZM34.6178 33.0947C35.6088 31.2463 36.9409 29.8641 38.6145 28.9154L37.6283 27.1755C35.6031 28.3234 34.0118 29.9923 32.8551 32.1496L34.6178 33.0947ZM38.6175 28.9137C40.3021 27.9511 42.2164 27.4602 44.3856 27.4602V25.4602C41.9014 25.4602 39.6395 26.0262 37.6253 27.1772L38.6175 28.9137ZM44.3856 27.4602C46.5363 27.4602 48.4424 27.9504 50.1281 28.9137L51.1204 27.1772C49.1072 26.0268 46.8542 25.4602 44.3856 25.4602V27.4602ZM50.1328 28.9164C51.8148 29.8654 53.1502 31.2475 54.1406 33.0947L55.9033 32.1496C54.7459 29.9911 53.1496 28.3221 51.1156 27.1745L50.1328 28.9164ZM54.1422 33.0976C55.1281 34.9219 55.6455 37.1786 55.6455 39.9091H57.6455C57.6455 36.9294 57.0806 34.3281 55.9017 32.1467L54.1422 33.0976ZM52.0333 39.9091C52.0333 37.9657 51.7431 36.2609 51.1189 34.8303L49.2858 35.63C49.7696 36.7391 50.0333 38.1536 50.0333 39.9091H52.0333ZM51.1212 34.8354C50.511 33.4148 49.6234 32.2856 48.4382 31.5056L47.3387 33.1762C48.1478 33.7087 48.8028 34.5057 49.2835 35.6248L51.1212 34.8354ZM48.4382 31.5056C47.2585 30.7292 45.8946 30.3565 44.3856 30.3565V32.3565C45.5527 32.3565 46.524 32.6401 47.3387 33.1762L48.4382 31.5056ZM44.3856 30.3565C42.8766 30.3565 41.5127 30.7292 40.333 31.5056L41.4325 33.1762C42.2472 32.6401 43.2185 32.3565 44.3856 32.3565V30.3565ZM40.333 31.5056C39.1493 32.2846 38.2582 33.4119 37.6395 34.8303L39.4726 35.63C39.9618 34.5085 40.6219 33.7097 41.4325 33.1762L40.333 31.5056ZM37.6372 34.8354C37.0234 36.2645 36.7379 37.9674 36.7379 39.9091H38.7379C38.7379 38.152 38.9978 36.7355 39.4749 35.6248L37.6372 34.8354ZM36.7379 39.9091C36.7379 41.8508 37.0234 43.5537 37.6372 44.9827L39.4749 44.1934C38.9978 43.0827 38.7379 41.6662 38.7379 39.9091H36.7379ZM37.6395 44.9879C38.2582 46.4063 39.1493 47.5336 40.333 48.3126L41.4325 46.6419C40.6219 46.1085 39.9618 45.3096 39.4726 44.1882L37.6395 44.9879ZM40.333 48.3126C41.5127 49.089 42.8766 49.4616 44.3856 49.4616V47.4616C43.2185 47.4616 42.2472 47.1781 41.4325 46.6419L40.333 48.3126ZM44.3856 49.4616C45.8946 49.4616 47.2585 49.089 48.4382 48.3126L47.3387 46.6419C46.524 47.1781 45.5527 47.4616 44.3856 47.4616V49.4616ZM48.4382 48.3126C49.6234 47.5326 50.511 46.4034 51.1212 44.9827L49.2835 44.1934C48.8028 45.3125 48.1478 46.1095 47.3387 46.6419L48.4382 48.3126ZM51.1189 44.9879C51.7431 43.5572 52.0333 41.8525 52.0333 39.9091H50.0333C50.0333 41.6646 49.7696 43.0791 49.2858 44.1882L51.1189 44.9879ZM63.986 53H62.986V54H63.986V53ZM63.986 26.8182V25.8182H62.986V26.8182H63.986ZM69.5215 26.8182H70.5215V25.8182H69.5215V26.8182ZM69.5215 48.4361H68.5215V49.4361H69.5215V48.4361ZM80.746 48.4361H81.746V47.4361H80.746V48.4361ZM80.746 53V54H81.746V53H80.746ZM64.986 53V26.8182H62.986V53H64.986ZM63.986 27.8182H69.5215V25.8182H63.986V27.8182ZM68.5215 26.8182V48.4361H70.5215V26.8182H68.5215ZM69.5215 49.4361H80.746V47.4361H69.5215V49.4361ZM79.746 48.4361V53H81.746V48.4361H79.746ZM80.746 52H63.986V54H80.746V52ZM87.6518 53H86.6518V54H87.6518V53ZM87.6518 26.8182V25.8182H86.6518V26.8182H87.6518ZM93.1873 26.8182H94.1873V25.8182H93.1873V26.8182ZM93.1873 48.4361H92.1873V49.4361H93.1873V48.4361ZM104.412 48.4361H105.412V47.4361H104.412V48.4361ZM104.412 53V54H105.412V53H104.412ZM88.6518 53V26.8182H86.6518V53H88.6518ZM87.6518 27.8182H93.1873V25.8182H87.6518V27.8182ZM92.1873 26.8182V48.4361H94.1873V26.8182H92.1873ZM93.1873 49.4361H104.412V47.4361H93.1873V49.4361ZM103.412 48.4361V53H105.412V48.4361H103.412ZM104.412 52H87.6518V54H104.412V52ZM116.498 53V54H117.225L117.449 53.3094L116.498 53ZM110.567 53L109.621 52.6737L109.163 54H110.567V53ZM119.605 26.8182V25.8182H118.892L118.66 26.4919L119.605 26.8182ZM126.738 26.8182L127.684 26.4923L127.451 25.8182H126.738V26.8182ZM135.764 53V54H137.166L136.709 52.6741L135.764 53ZM129.832 53L128.881 53.3088L129.105 54H129.832V53ZM123.274 32.8011L124.225 32.4923L124.001 31.8011H123.274V32.8011ZM123.069 32.8011V31.8011H122.343L122.118 32.4918L123.069 32.8011ZM116.128 42.7088V41.7088H115.128V42.7088H116.128ZM130.139 42.7088H131.139V41.7088H130.139V42.7088ZM130.139 47.0298V48.0298H131.139V47.0298H130.139ZM116.128 47.0298H115.128V48.0298H116.128V47.0298ZM116.498 52H110.567V54H116.498V52ZM111.512 53.3263L120.55 27.1445L118.66 26.4919L109.621 52.6737L111.512 53.3263ZM119.605 27.8182H126.738V25.8182H119.605V27.8182ZM125.793 27.1441L134.819 53.3259L136.709 52.6741L127.684 26.4923L125.793 27.1441ZM135.764 52H129.832V54H135.764V52ZM130.783 52.6912L124.225 32.4923L122.323 33.1099L128.881 53.3088L130.783 52.6912ZM123.274 31.8011H123.069V33.8011H123.274V31.8011ZM122.118 32.4918L115.547 52.6906L117.449 53.3094L124.02 33.1105L122.118 32.4918ZM116.128 43.7088H130.139V41.7088H116.128V43.7088ZM129.139 42.7088V47.0298H131.139V42.7088H129.139ZM130.139 46.0298H116.128V48.0298H130.139V46.0298ZM117.128 47.0298V42.7088H115.128V47.0298H117.128ZM142.155 53H141.155V54H142.155V53ZM142.155 26.8182V25.8182H141.155V26.8182H142.155ZM157.458 27.6747L157.052 28.5888L157.458 27.6747ZM160.36 30.0526L159.517 30.5908L159.519 30.594L160.36 30.0526ZM160.718 36.2273L161.6 36.6979L161.602 36.6938L160.718 36.2273ZM159.03 38.1193L159.596 38.9437L159.598 38.9422L159.03 38.1193ZM156.601 39.1548L156.382 38.1791L155.601 38.3543V39.1548H156.601ZM156.601 39.4105H155.601V40.3687L156.559 40.4096L156.601 39.4105ZM159.401 40.2543L158.888 41.1125L158.891 41.1147L159.401 40.2543ZM161.536 42.4403L160.672 42.9432L160.674 42.9467L161.536 42.4403ZM161.319 49.4844L160.474 48.9496L160.472 48.9514L161.319 49.4844ZM158.289 52.054L157.862 51.1494V51.1494L158.289 52.054ZM147.691 48.4744H146.691V49.4744H147.691V48.4744ZM155.579 47.5923L156.218 48.3613L156.223 48.3568L155.579 47.5923ZM156.115 43.2969L155.27 43.8304L156.115 43.2969ZM154.62 41.9929L154.177 42.8897L154.182 42.892L154.62 41.9929ZM147.691 41.5199V40.5199H146.691V41.5199H147.691ZM147.691 37.7741H146.691V38.7741H147.691V37.7741ZM153.814 37.3778L154.224 38.29L154.23 38.2873L153.814 37.3778ZM155.221 36.2273L154.404 35.65L154.397 35.6595L155.221 36.2273ZM154.735 32.1619L154.078 32.9157L154.082 32.9198L154.735 32.1619ZM147.691 31.2926V30.2926H146.691V31.2926H147.691ZM143.155 53V26.8182H141.155V53H143.155ZM142.155 27.8182H152.638V25.8182H142.155V27.8182ZM152.638 27.8182C154.473 27.8182 155.931 28.0912 157.052 28.5888L157.863 26.7607C156.411 26.1162 154.656 25.8182 152.638 25.8182V27.8182ZM157.052 28.5888C158.191 29.094 158.992 29.7687 159.517 30.5908L161.203 29.5143C160.432 28.308 159.299 27.3975 157.863 26.7607L157.052 28.5888ZM159.519 30.594C160.053 31.4227 160.331 32.39 160.331 33.5298H162.331C162.331 32.0447 161.962 30.6938 161.201 29.5111L159.519 30.594ZM160.331 33.5298C160.331 34.4171 160.155 35.1512 159.833 35.7607L161.602 36.6938C162.099 35.7522 162.331 34.688 162.331 33.5298H160.331ZM159.835 35.7567C159.501 36.3828 159.047 36.8927 158.462 37.2964L159.598 38.9422C160.446 38.3573 161.116 37.6058 161.6 36.6979L159.835 35.7567ZM158.464 37.295C157.871 37.7025 157.181 37.9999 156.382 38.1791L156.82 40.1306C157.845 39.9006 158.775 39.5078 159.596 38.9436L158.464 37.295ZM155.601 39.1548V39.4105H157.601V39.1548H155.601ZM156.559 40.4096C157.387 40.445 158.159 40.6766 158.888 41.1125L159.914 39.396C158.904 38.7921 157.81 38.4612 156.644 38.4114L156.559 40.4096ZM158.891 41.1147C159.613 41.5421 160.206 42.1436 160.672 42.9432L162.4 41.9374C161.775 40.8621 160.945 40.0062 159.911 39.3938L158.891 41.1147ZM160.674 42.9467C161.113 43.6947 161.354 44.6205 161.354 45.7642H163.354C163.354 44.334 163.05 43.0439 162.398 41.934L160.674 42.9467ZM161.354 45.7642C161.354 46.9791 161.055 48.0309 160.474 48.9496L162.164 50.0191C162.963 48.756 163.354 47.3277 163.354 45.7642H161.354ZM160.472 48.9514C159.907 49.8484 159.056 50.587 157.862 51.1494L158.715 52.9585C160.198 52.2595 161.366 51.2851 162.165 50.0174L160.472 48.9514ZM157.862 51.1494C156.694 51.7003 155.2 52 153.341 52V54C155.403 54 157.208 53.669 158.715 52.9585L157.862 51.1494ZM153.341 52H142.155V54H153.341V52ZM147.691 49.4744H152.204V47.4744H147.691V49.4744ZM152.204 49.4744C153.834 49.4744 155.244 49.1707 156.218 48.3613L154.939 46.8233C154.498 47.1901 153.658 47.4744 152.204 47.4744V49.4744ZM156.223 48.3568C157.173 47.5558 157.64 46.4749 157.64 45.2145H155.64C155.64 45.9314 155.399 46.4356 154.934 46.8279L156.223 48.3568ZM157.64 45.2145C157.64 44.3219 157.422 43.4937 156.961 42.7634L155.27 43.8304C155.508 44.208 155.64 44.6582 155.64 45.2145H157.64ZM156.961 42.7634C156.503 42.0364 155.855 41.4822 155.057 41.0938L154.182 42.892C154.68 43.1343 155.029 43.4494 155.27 43.8304L156.961 42.7634ZM155.062 41.0961C154.256 40.6984 153.335 40.5199 152.331 40.5199V42.5199C153.101 42.5199 153.705 42.6567 154.177 42.8897L155.062 41.0961ZM152.331 40.5199H147.691V42.5199H152.331V40.5199ZM146.691 41.5199V48.4744H148.691V41.5199H146.691ZM147.691 38.7741H151.794V36.7741H147.691V38.7741ZM151.794 38.7741C152.67 38.7741 153.486 38.6214 154.224 38.29L153.405 36.4657C152.966 36.6627 152.436 36.7741 151.794 36.7741V38.7741ZM154.23 38.2873C154.975 37.9467 155.591 37.4515 156.044 36.795L154.397 35.6595C154.168 35.9917 153.847 36.2635 153.399 36.4684L154.23 38.2873ZM156.037 36.8045C156.522 36.1183 156.745 35.3173 156.745 34.4503H154.745C154.745 34.964 154.618 35.3476 154.404 35.65L156.037 36.8045ZM156.745 34.4503C156.745 33.2345 156.297 32.1871 155.387 31.404L154.082 32.9198C154.519 33.2958 154.745 33.774 154.745 34.4503H156.745ZM155.392 31.4082C154.485 30.6172 153.271 30.2926 151.897 30.2926V32.2926C152.977 32.2926 153.655 32.5475 154.078 32.9157L155.392 31.4082ZM151.897 30.2926H147.691V32.2926H151.897V30.2926ZM146.691 31.2926V37.7741H148.691V31.2926H146.691ZM191.632 47.196L190.752 46.7206L190.751 46.7235L191.632 47.196ZM187.234 51.7855L187.728 52.6555L187.729 52.6547L187.234 51.7855ZM174.732 51.7727L175.228 50.9045L174.732 51.7727ZM170.347 47.1832L169.465 47.6558L170.347 47.1832ZM170.347 32.6222L171.228 33.0947L170.347 32.6222ZM174.732 28.0455L175.225 28.9154L175.228 28.9137L174.732 28.0455ZM187.234 28.0455L186.738 28.9137L186.743 28.9164L187.234 28.0455ZM191.632 32.6222L190.751 33.0947L190.752 33.0976L191.632 32.6222ZM186.813 35.2301L185.894 35.6248L185.896 35.63L186.813 35.2301ZM184.499 32.3409L183.949 33.1762L184.499 32.3409ZM177.493 32.3409L178.043 33.1762L177.493 32.3409ZM175.166 35.2301L174.25 34.8303L174.247 34.8354L175.166 35.2301ZM175.166 44.5881L174.247 44.9827L174.25 44.9879L175.166 44.5881ZM177.493 47.4773L178.043 46.6419L177.493 47.4773ZM184.499 47.4773L183.949 46.6419L184.499 47.4773ZM186.813 44.5881L185.896 44.1882L185.894 44.1934L186.813 44.5881ZM192.256 39.9091C192.256 42.6396 191.738 44.8963 190.752 46.7206L192.512 47.6715C193.691 45.49 194.256 42.8888 194.256 39.9091H192.256ZM190.751 46.7235C189.76 48.5713 188.424 49.9586 186.74 50.9163L187.729 52.6547C189.761 51.4988 191.356 49.8265 192.513 47.6686L190.751 46.7235ZM186.741 50.9155C185.055 51.8713 183.148 52.358 180.996 52.358V54.358C183.463 54.358 185.715 53.7963 187.728 52.6555L186.741 50.9155ZM180.996 52.358C178.827 52.358 176.912 51.8671 175.228 50.9045L174.235 52.641C176.25 53.792 178.512 54.358 180.996 54.358V52.358ZM175.228 50.9045C173.552 49.9471 172.219 48.5597 171.228 46.7107L169.465 47.6558C170.622 49.8125 172.212 51.4847 174.235 52.641L175.228 50.9045ZM171.228 46.7107C170.249 44.8854 169.736 42.6317 169.736 39.9091H167.736C167.736 42.8797 168.296 45.4754 169.465 47.6558L171.228 46.7107ZM169.736 39.9091C169.736 37.1774 170.249 34.9196 171.228 33.0947L169.465 32.1496C168.296 34.3304 167.736 36.9305 167.736 39.9091H169.736ZM171.228 33.0947C172.219 31.2463 173.551 29.8641 175.225 28.9154L174.238 27.1755C172.213 28.3234 170.622 29.9923 169.465 32.1496L171.228 33.0947ZM175.228 28.9137C176.912 27.9511 178.827 27.4602 180.996 27.4602V25.4602C178.512 25.4602 176.25 26.0262 174.235 27.1772L175.228 28.9137ZM180.996 27.4602C183.146 27.4602 185.053 27.9504 186.738 28.9137L187.731 27.1772C185.717 26.0268 183.464 25.4602 180.996 25.4602V27.4602ZM186.743 28.9164C188.425 29.8654 189.76 31.2475 190.751 33.0947L192.513 32.1496C191.356 29.9911 189.76 28.3221 187.726 27.1745L186.743 28.9164ZM190.752 33.0976C191.738 34.9219 192.256 37.1786 192.256 39.9091H194.256C194.256 36.9294 193.691 34.3281 192.512 32.1467L190.752 33.0976ZM188.643 39.9091C188.643 37.9657 188.353 36.2609 187.729 34.8303L185.896 35.63C186.38 36.7391 186.643 38.1536 186.643 39.9091H188.643ZM187.731 34.8354C187.121 33.4148 186.234 32.2856 185.048 31.5056L183.949 33.1762C184.758 33.7087 185.413 34.5057 185.894 35.6248L187.731 34.8354ZM185.048 31.5056C183.869 30.7292 182.505 30.3565 180.996 30.3565V32.3565C182.163 32.3565 183.134 32.6401 183.949 33.1762L185.048 31.5056ZM180.996 30.3565C179.487 30.3565 178.123 30.7292 176.943 31.5056L178.043 33.1762C178.857 32.6401 179.829 32.3565 180.996 32.3565V30.3565ZM176.943 31.5056C175.759 32.2846 174.868 33.4119 174.25 34.8303L176.083 35.63C176.572 34.5085 177.232 33.7097 178.043 33.1762L176.943 31.5056ZM174.247 34.8354C173.634 36.2645 173.348 37.9674 173.348 39.9091H175.348C175.348 38.152 175.608 36.7355 176.085 35.6248L174.247 34.8354ZM173.348 39.9091C173.348 41.8508 173.634 43.5537 174.247 44.9827L176.085 44.1934C175.608 43.0827 175.348 41.6662 175.348 39.9091H173.348ZM174.25 44.9879C174.868 46.4063 175.759 47.5336 176.943 48.3126L178.043 46.6419C177.232 46.1085 176.572 45.3096 176.083 44.1882L174.25 44.9879ZM176.943 48.3126C178.123 49.089 179.487 49.4616 180.996 49.4616V47.4616C179.829 47.4616 178.857 47.1781 178.043 46.6419L176.943 48.3126ZM180.996 49.4616C182.505 49.4616 183.869 49.089 185.048 48.3126L183.949 46.6419C183.134 47.1781 182.163 47.4616 180.996 47.4616V49.4616ZM185.048 48.3126C186.234 47.5326 187.121 46.4034 187.731 44.9827L185.894 44.1934C185.413 45.3125 184.758 46.1095 183.949 46.6419L185.048 48.3126ZM187.729 44.9879C188.353 43.5572 188.643 41.8525 188.643 39.9091H186.643C186.643 41.6646 186.38 43.0791 185.896 44.1882L187.729 44.9879ZM200.596 53H199.596V54H200.596V53ZM200.596 26.8182V25.8182H199.596V26.8182H200.596ZM215.988 27.8793L215.537 28.7715L215.543 28.7748L215.988 27.8793ZM219.197 30.858L218.328 31.3529L218.332 31.3597L219.197 30.858ZM219.184 39.858L220.041 40.3742L220.042 40.3716L219.184 39.858ZM215.924 42.7216L215.501 41.8155L215.499 41.8165L215.924 42.7216ZM203.869 43.7188H202.869V44.7188H203.869V43.7188ZM203.869 39.2699V38.2699H202.869V39.2699H203.869ZM212.524 38.8352L212.907 39.759L212.524 38.8352ZM214.083 37.5312L213.227 37.0149L213.221 37.0242L214.083 37.5312ZM214.083 33.1719L213.215 33.668L213.221 33.6773L214.083 33.1719ZM212.511 31.8168L212.1 32.7283L212.106 32.7313L212.113 32.7342L212.511 31.8168ZM206.132 31.3438V30.3438H205.132V31.3438H206.132ZM206.132 53V54H207.132V53H206.132ZM214.735 41.0852L215.613 40.6059L215.329 40.0852H214.735V41.0852ZM221.242 53V54H222.928L222.12 52.5207L221.242 53ZM215.132 53L214.25 53.4713L214.532 54H215.132V53ZM208.765 41.0852V40.0852H207.097L207.883 41.5565L208.765 41.0852ZM201.596 53V26.8182H199.596V53H201.596ZM200.596 27.8182H210.926V25.8182H200.596V27.8182ZM210.926 27.8182C212.786 27.8182 214.311 28.1511 215.537 28.7715L216.44 26.987C214.87 26.1927 213.02 25.8182 210.926 25.8182V27.8182ZM215.543 28.7748C216.783 29.3908 217.7 30.2493 218.328 31.3529L220.066 30.3631C219.229 28.8928 218.006 27.7654 216.433 26.9838L215.543 28.7748ZM218.332 31.3597C218.971 32.4614 219.309 33.7865 219.309 35.3707H221.309C221.309 33.4948 220.906 31.8113 220.062 30.3562L218.332 31.3597ZM219.309 35.3707C219.309 36.9632 218.967 38.274 218.326 39.3443L220.042 40.3716C220.902 38.9362 221.309 37.2556 221.309 35.3707H219.309ZM218.328 39.3417C217.689 40.4021 216.76 41.2277 215.501 41.8155L216.347 43.6276C217.935 42.886 219.18 41.8025 220.041 40.3742L218.328 39.3417ZM215.499 41.8165C214.25 42.4035 212.69 42.7188 210.785 42.7188V44.7188C212.903 44.7188 214.769 44.3692 216.35 43.6267L215.499 41.8165ZM210.785 42.7188H203.869V44.7188H210.785V42.7188ZM204.869 43.7188V39.2699H202.869V43.7188H204.869ZM203.869 40.2699H209.89V38.2699H203.869V40.2699ZM209.89 40.2699C211.03 40.2699 212.049 40.1148 212.907 39.759L212.141 37.9115C211.601 38.1352 210.864 38.2699 209.89 38.2699V40.2699ZM212.907 39.759C213.78 39.3969 214.481 38.8282 214.945 38.0383L213.221 37.0242C213.004 37.3933 212.665 37.694 212.141 37.9115L212.907 39.759ZM214.94 38.0476C215.406 37.2751 215.608 36.3647 215.608 35.3707H213.608C213.608 36.0984 213.46 36.6283 213.227 37.0149L214.94 38.0476ZM215.608 35.3707C215.608 34.3689 215.406 33.4511 214.946 32.6665L213.221 33.6773C213.46 34.0858 213.608 34.6339 213.608 35.3707H215.608ZM214.952 32.6757C214.491 31.8689 213.789 31.2811 212.909 30.8993L212.113 32.7342C212.648 32.9661 212.994 33.2816 213.215 33.668L214.952 32.6757ZM212.922 30.9053C212.054 30.5135 211.02 30.3438 209.865 30.3438V32.3438C210.84 32.3438 211.57 32.4893 212.1 32.7283L212.922 30.9053ZM209.865 30.3438H206.132V32.3438H209.865V30.3438ZM205.132 31.3438V53H207.132V31.3438H205.132ZM206.132 52H200.596V54H206.132V52ZM213.858 41.5645L220.365 53.4793L222.12 52.5207L215.613 40.6059L213.858 41.5645ZM221.242 52H215.132V54H221.242V52ZM216.014 52.5287L209.647 40.614L207.883 41.5565L214.25 53.4713L216.014 52.5287ZM208.765 42.0852H214.735V40.0852H208.765V42.0852ZM231.821 52.3991L231.43 53.3196L231.436 53.3222L231.821 52.3991ZM228.228 49.7528L227.439 50.3672L228.228 49.7528ZM227.666 42.9517L226.788 42.4723L226.787 42.4752L227.666 42.9517ZM229.711 40.6634L230.286 41.4815L230.292 41.4776L229.711 40.6634ZM232.6 39.4872L232.758 40.4747L233.6 40.3399V39.4872H232.6ZM232.6 39.3082H233.6V38.4894L232.798 38.3279L232.6 39.3082ZM229.2 37.2756L228.42 37.9018L228.423 37.9048L229.2 37.2756ZM229.085 29.8864L229.885 30.4864L229.887 30.4833L229.085 29.8864ZM232.345 27.3807L232.746 28.2966L232.749 28.2954L232.345 27.3807ZM241.792 27.3807L241.386 28.2945L241.388 28.2954L241.792 27.3807ZM245.065 29.8991L244.263 30.4961L244.265 30.4991L245.065 29.8991ZM246.267 33.5043L247.267 33.5102L247.267 33.4979L246.267 33.5043ZM244.937 37.2756L244.163 36.6427L244.937 37.2756ZM241.562 39.3082L241.361 38.3286L240.562 38.4924V39.3082H241.562ZM241.562 39.4872H240.562V40.3377L241.402 40.4743L241.562 39.4872ZM244.413 40.6634L243.829 41.4749L243.838 41.4814L244.413 40.6634ZM246.458 42.9517L245.581 43.4312L245.586 43.4408L246.458 42.9517ZM247.238 45.956L248.238 45.962L248.238 45.9482L247.238 45.956ZM245.921 49.7528L245.132 49.1385L245.921 49.7528ZM242.316 52.3991L242.703 53.3215L242.705 53.3204L242.316 52.3991ZM239.376 48.8196L239.809 49.721L239.819 49.7163L239.376 48.8196ZM240.91 47.4901L240.074 46.9411L240.072 46.9442L240.91 47.4901ZM240.897 43.5142L240.06 44.0605L240.063 44.0661L240.897 43.5142ZM239.338 42.1335L238.877 43.021L238.886 43.0256L239.338 42.1335ZM234.812 42.1335L235.259 43.028L235.268 43.0233L234.812 42.1335ZM233.24 43.5142L232.402 42.9679L232.4 42.971L233.24 43.5142ZM233.227 47.4901L232.385 48.0302L232.389 48.0359L233.227 47.4901ZM234.774 48.8196L234.336 49.7186L234.345 49.7231L234.774 48.8196ZM239.031 37.1477L238.568 36.2614L239.031 37.1477ZM240.373 35.9077L239.521 35.3851V35.3851L240.373 35.9077ZM240.373 32.2898L239.524 32.8185L239.528 32.8248L240.373 32.2898ZM239.044 31.0753L238.575 31.9588L238.586 31.9643L239.044 31.0753ZM235.106 31.0753L235.559 31.9671L235.569 31.9616L235.106 31.0753ZM233.764 32.2898L232.915 31.761L232.913 31.7649L233.764 32.2898ZM233.777 35.9077L232.924 36.4302L233.777 35.9077ZM235.119 37.1477L235.582 36.2614L235.119 37.1477ZM237.075 52.358C235.214 52.358 233.597 52.056 232.205 51.4761L231.436 53.3222C233.112 54.0207 234.998 54.358 237.075 54.358V52.358ZM232.211 51.4787C230.815 50.886 229.765 50.0993 229.017 49.1385L227.439 50.3672C228.43 51.6393 229.775 52.6168 231.43 53.3196L232.211 51.4787ZM229.017 49.1385C228.285 48.1976 227.924 47.1481 227.924 45.956H225.924C225.924 47.5933 226.433 49.0751 227.439 50.3672L229.017 49.1385ZM227.924 45.956C227.924 45.0226 228.134 44.1862 228.545 43.4283L226.787 42.4752C226.209 43.541 225.924 44.7075 225.924 45.956H227.924ZM228.543 43.4311C228.972 42.6457 229.551 41.9986 230.286 41.4814L229.136 39.8453C228.15 40.5383 227.365 41.4168 226.788 42.4723L228.543 43.4311ZM230.292 41.4776C231.024 40.9554 231.842 40.6213 232.758 40.4747L232.442 38.4998C231.228 38.6941 230.12 39.144 229.131 39.8491L230.292 41.4776ZM233.6 39.4872V39.3082H231.6V39.4872H233.6ZM232.798 38.3279C231.62 38.091 230.695 37.533 229.977 36.6464L228.423 37.9048C229.443 39.1658 230.785 39.963 232.403 40.2886L232.798 38.3279ZM229.979 36.6494C229.258 35.7505 228.896 34.7161 228.896 33.5043H226.896C226.896 35.1561 227.403 36.6359 228.42 37.9018L229.979 36.6494ZM228.896 33.5043C228.896 32.3595 229.226 31.3653 229.885 30.4864L228.285 29.2864C227.359 30.521 226.896 31.9388 226.896 33.5043H228.896ZM229.887 30.4833C230.563 29.5753 231.503 28.8416 232.746 28.2966L231.943 26.4648C230.425 27.13 229.192 28.0668 228.282 29.2894L229.887 30.4833ZM232.749 28.2954C233.992 27.7464 235.427 27.4602 237.075 27.4602V25.4602C235.194 25.4602 233.476 25.7877 231.941 26.4659L232.749 28.2954ZM237.075 27.4602C238.722 27.4602 240.153 27.7464 241.386 28.2945L242.198 26.4669C240.67 25.7877 238.956 25.4602 237.075 25.4602V27.4602ZM241.388 28.2954C242.642 28.8494 243.587 29.5882 244.263 30.4961L245.867 29.3022C244.957 28.0795 243.72 27.1392 242.196 26.4659L241.388 28.2954ZM244.265 30.4991C244.926 31.3811 245.259 32.3737 245.267 33.5106L247.267 33.4979C247.257 31.9416 246.789 30.5309 245.865 29.2991L244.265 30.4991ZM245.267 33.4983C245.259 34.7195 244.89 35.7531 244.163 36.6427L245.711 37.9085C246.74 36.6503 247.257 35.1697 247.267 33.5102L245.267 33.4983ZM244.163 36.6427C243.432 37.5365 242.51 38.093 241.361 38.3286L241.763 40.2879C243.358 39.9609 244.686 39.1623 245.711 37.9085L244.163 36.6427ZM240.562 39.3082V39.4872H242.562V39.3082H240.562ZM241.402 40.4743C242.299 40.6201 243.104 40.9529 243.829 41.4749L244.997 39.8518C244.018 39.1466 242.922 38.6952 241.723 38.5002L241.402 40.4743ZM243.838 41.4814C244.574 41.9986 245.152 42.6457 245.581 43.4311L247.336 42.4723C246.759 41.4168 245.974 40.5383 244.988 39.8453L243.838 41.4814ZM245.586 43.4408C246.011 44.1992 246.231 45.0339 246.238 45.9638L248.238 45.9482C248.228 44.6962 247.928 43.5281 247.331 42.4626L245.586 43.4408ZM246.238 45.9499C246.231 47.1442 245.866 48.196 245.132 49.1385L246.71 50.3672C247.715 49.0768 248.228 47.5973 248.238 45.962L246.238 45.9499ZM245.132 49.1385C244.385 50.0981 243.332 50.8848 241.927 51.4779L242.705 53.3204C244.369 52.618 245.719 51.6405 246.71 50.3672L245.132 49.1385ZM241.93 51.4768C240.548 52.056 238.936 52.358 237.075 52.358V54.358C239.151 54.358 241.034 54.0207 242.703 53.3215L241.93 51.4768ZM237.075 50.2926C238.072 50.2926 238.993 50.1132 239.809 49.7209L238.943 47.9183C238.447 48.1567 237.833 48.2926 237.075 48.2926V50.2926ZM239.819 49.7163C240.621 49.3205 241.275 48.7621 241.748 48.0359L240.072 46.9442C239.812 47.343 239.444 47.671 238.933 47.9229L239.819 49.7163ZM241.746 48.039C242.237 47.291 242.473 46.4405 242.473 45.5213H240.473C240.473 46.0851 240.333 46.5471 240.074 46.9411L241.746 48.039ZM242.473 45.5213C242.473 44.5852 242.233 43.7205 241.731 42.9623L240.063 44.0661C240.329 44.467 240.473 44.9403 240.473 45.5213H242.473ZM241.735 42.9679C241.251 42.2256 240.595 41.6492 239.789 41.2414L238.886 43.0256C239.393 43.2826 239.777 43.6267 240.06 44.0605L241.735 42.9679ZM239.799 41.2461C238.98 40.8207 238.063 40.6222 237.075 40.6222V42.6222C237.791 42.6222 238.383 42.7646 238.877 43.0209L239.799 41.2461ZM237.075 40.6222C236.093 40.6222 235.179 40.8215 234.356 41.2437L235.268 43.0233C235.775 42.7637 236.369 42.6222 237.075 42.6222V40.6222ZM234.365 41.2391C233.551 41.646 232.888 42.2224 232.402 42.9679L234.077 44.0605C234.358 43.6298 234.744 43.2858 235.259 43.028L234.365 41.2391ZM232.4 42.971C231.91 43.7282 231.677 44.5898 231.677 45.5213H233.677C233.677 44.9358 233.819 44.4593 234.079 44.0575L232.4 42.971ZM231.677 45.5213C231.677 46.4358 231.906 47.2831 232.385 48.0302L234.068 46.9499C233.815 46.5549 233.677 46.0898 233.677 45.5213H231.677ZM232.389 48.0359C232.864 48.7653 233.525 49.3237 234.336 49.7186L235.212 47.9206C234.693 47.6678 234.322 47.3398 234.065 46.9442L232.389 48.0359ZM234.345 49.7231C235.166 50.1125 236.084 50.2926 237.075 50.2926V48.2926C236.327 48.2926 235.711 48.1574 235.202 47.9161L234.345 49.7231ZM237.075 38.5952C237.947 38.5952 238.761 38.4168 239.494 38.0341L238.568 36.2614C238.158 36.4753 237.669 36.5952 237.075 36.5952V38.5952ZM239.494 38.0341C240.219 37.6555 240.803 37.1192 241.226 36.4302L239.521 35.3851C239.295 35.753 238.985 36.0434 238.568 36.2614L239.494 38.0341ZM241.226 36.4302C241.657 35.7271 241.859 34.9327 241.859 34.0795H239.859C239.859 34.6071 239.737 35.0314 239.521 35.3851L241.226 36.4302ZM241.859 34.0795C241.859 33.2329 241.656 32.4458 241.218 31.7547L239.528 32.8248C239.738 33.1565 239.859 33.5625 239.859 34.0795H241.859ZM241.222 31.761C240.799 31.0828 240.219 30.5558 239.502 30.1863L238.586 31.9643C238.993 32.1743 239.299 32.457 239.524 32.8185L241.222 31.761ZM239.512 30.1918C238.782 29.8045 237.959 29.6278 237.075 29.6278V31.6278C237.691 31.6278 238.181 31.7495 238.575 31.9587L239.512 30.1918ZM237.075 29.6278C236.197 29.6278 235.377 29.8054 234.643 30.1889L235.569 31.9616C235.977 31.7486 236.47 31.6278 237.075 31.6278V29.6278ZM234.654 30.1835C233.928 30.552 233.34 31.079 232.915 31.761L234.613 32.8185C234.835 32.4607 235.143 32.1782 235.559 31.967L234.654 30.1835ZM232.913 31.7649C232.487 32.4545 232.291 33.238 232.291 34.0795H234.291C234.291 33.5575 234.41 33.1478 234.615 32.8147L232.913 31.7649ZM232.291 34.0795C232.291 34.9327 232.493 35.7271 232.924 36.4302L234.629 35.3851C234.412 35.0314 234.291 34.6071 234.291 34.0795H232.291ZM232.924 36.4302C233.346 37.1192 233.931 37.6555 234.656 38.0341L235.582 36.2614C235.165 36.0434 234.855 35.753 234.629 35.3851L232.924 36.4302ZM234.656 38.0341C235.388 38.4168 236.203 38.5952 237.075 38.5952V36.5952C236.481 36.5952 235.991 36.4753 235.582 36.2614L234.656 38.0341Z" fill="black" mask="url(#path-1-outside-1_843_1091)"/>
</g>
<mask id="path-3-inside-2_843_1091" fill="white">
<path fill-rule="evenodd" clip-rule="evenodd" d="M133 4.40595L128.594 0L123.968 4.62667L119.406 0.0651041L115 4.47106L119.562 9.03263L115.019 13.5751L119.425 17.9811L123.968 13.4386L128.575 18.0462L132.981 13.6402L128.373 9.03263L133 4.40595Z"/>
</mask>
<path fill-rule="evenodd" clip-rule="evenodd" d="M133 4.40595L128.594 0L123.968 4.62667L119.406 0.0651041L115 4.47106L119.562 9.03263L115.019 13.5751L119.425 17.9811L123.968 13.4386L128.575 18.0462L132.981 13.6402L128.373 9.03263L133 4.40595Z" fill="#F0DC28"/>
<path d="M128.594 0L129.301 -0.707107L128.594 -1.41421L127.887 -0.707107L128.594 0ZM133 4.40595L133.707 5.11306L134.414 4.40595L133.707 3.69885L133 4.40595ZM123.968 4.62667L123.26 5.33378L123.968 6.04089L124.675 5.33378L123.968 4.62667ZM119.406 0.0651041L120.113 -0.642003L119.406 -1.34911L118.699 -0.642003L119.406 0.0651041ZM115 4.47106L114.293 3.76395L113.586 4.47106L114.293 5.17816L115 4.47106ZM119.562 9.03263L120.269 9.73973L120.976 9.03263L120.269 8.32552L119.562 9.03263ZM115.019 13.5751L114.312 12.868L113.605 13.5751L114.312 14.2822L115.019 13.5751ZM119.425 17.9811L118.718 18.6882L119.425 19.3953L120.132 18.6882L119.425 17.9811ZM123.968 13.4386L124.675 12.7315L123.968 12.0244L123.26 12.7315L123.968 13.4386ZM128.575 18.0462L127.868 18.7533L128.575 19.4604L129.282 18.7533L128.575 18.0462ZM132.981 13.6402L133.688 14.3473L134.395 13.6402L133.688 12.9331L132.981 13.6402ZM128.373 9.03263L127.666 8.32552L126.959 9.03263L127.666 9.73973L128.373 9.03263ZM127.887 0.707107L132.293 5.11306L133.707 3.69885L129.301 -0.707107L127.887 0.707107ZM124.675 5.33378L129.301 0.707107L127.887 -0.707107L123.26 3.91956L124.675 5.33378ZM118.699 0.772211L123.26 5.33378L124.675 3.91956L120.113 -0.642003L118.699 0.772211ZM115.707 5.17816L120.113 0.772211L118.699 -0.642003L114.293 3.76395L115.707 5.17816ZM120.269 8.32552L115.707 3.76395L114.293 5.17816L118.854 9.73973L120.269 8.32552ZM115.726 14.2822L120.269 9.73973L118.854 8.32552L114.312 12.868L115.726 14.2822ZM120.132 17.2739L115.726 12.868L114.312 14.2822L118.718 18.6882L120.132 17.2739ZM123.26 12.7315L118.718 17.2739L120.132 18.6882L124.675 14.1457L123.26 12.7315ZM129.282 17.3391L124.675 12.7315L123.26 14.1457L127.868 18.7533L129.282 17.3391ZM132.274 12.9331L127.868 17.3391L129.282 18.7533L133.688 14.3473L132.274 12.9331ZM127.666 9.73973L132.274 14.3473L133.688 12.9331L129.081 8.32552L127.666 9.73973ZM132.293 3.69885L127.666 8.32552L129.081 9.73973L133.707 5.11306L132.293 3.69885Z" fill="black" mask="url(#path-3-inside-2_843_1091)"/>
<defs>
<filter id="filter0_d_843_1091" x="1.81543" y="26.4604" width="245.423" height="30.8975" filterUnits="userSpaceOnUse" color-interpolation-filters="sRGB">
<feFlood flood-opacity="0" result="BackgroundImageFix"/>
<feColorMatrix in="SourceAlpha" type="matrix" values="0 0 0 0 0 0 0 0 0 0 0 0 0 0 0 0 0 0 127 0" result="hardAlpha"/>
<feOffset dy="4"/>
<feComposite in2="hardAlpha" operator="out"/>
<feColorMatrix type="matrix" values="0 0 0 0 0 0 0 0 0 0 0 0 0 0 0 0 0 0 1 0"/>
<feBlend mode="normal" in2="BackgroundImageFix" result="effect1_dropShadow_843_1091"/>
<feBlend mode="normal" in="SourceGraphic" in2="effect1_dropShadow_843_1091" result="shape"/>
</filter>
</defs>
</svg>
