<svg width="49" height="47" viewBox="0 0 49 47" fill="none" xmlns="http://www.w3.org/2000/svg">
<path d="M9.29848 46.0075C10.1932 46.7068 11.328 46.4665 12.681 45.483L24.2251 36.9826L35.7911 45.483C37.1439 46.4665 38.257 46.7068 39.1734 46.0075C40.0682 45.33 40.2646 44.2156 39.7191 42.6204L35.1583 29.0285L46.8114 20.6372C48.1645 19.6758 48.7099 18.6706 48.3609 17.578C48.0116 16.5291 46.9859 16.0046 45.3057 16.0265L31.0119 16.1139L26.6691 2.45633C26.1456 0.839287 25.3599 0.0307617 24.2251 0.0307617C23.1121 0.0307617 22.3265 0.839287 21.8028 2.45633L17.4601 16.1139L3.16635 16.0265C1.48603 16.0046 0.460371 16.5291 0.11121 17.578C-0.259773 18.6706 0.307612 19.6758 1.66061 20.6372L13.3138 29.0285L8.75292 42.6204C8.20736 44.2156 8.40376 45.33 9.29848 46.0075Z" fill="#F0DC28"/>
</svg>
