<svg xmlns="http://www.w3.org/2000/svg" width="24" height="25" viewBox="0 0 24 25" fill="none">
  <g clip-path="url(#clip0_847_4191)">
    <path d="M4.52852 22.6789C4.96428 23.0179 5.51693 22.9014 6.17586 22.4245L11.7981 18.3027L17.4309 22.4245C18.0898 22.9014 18.6318 23.0179 19.0782 22.6789C19.5139 22.3503 19.6096 21.81 19.3439 21.0365L17.1227 14.4457L22.798 10.3768C23.4569 9.91061 23.7226 9.42319 23.5526 8.89339C23.3825 8.38478 22.883 8.13047 22.0647 8.14107L15.1033 8.18346L12.9883 1.56092C12.7334 0.776819 12.3507 0.384766 11.7981 0.384766C11.256 0.384766 10.8734 0.776819 10.6183 1.56092L8.50338 8.18346L1.54207 8.14107C0.723722 8.13047 0.224209 8.38478 0.0541614 8.89339C-0.126514 9.42319 0.149812 9.91061 0.808746 10.3768L6.48407 14.4457L4.26282 21.0365C3.99713 21.81 4.09278 22.3503 4.52852 22.6789ZM6.05895 20.5808C6.03769 20.5597 6.04833 20.5491 6.05895 20.4855L8.17391 14.4246C8.3227 14.0113 8.23768 13.6828 7.8657 13.4285L2.57299 9.78346C2.51984 9.75167 2.50922 9.73048 2.51984 9.69868C2.53048 9.6669 2.55173 9.6669 2.61549 9.6669L9.04541 9.78346C9.48116 9.79406 9.75748 9.61392 9.89565 9.17948L11.745 3.04437C11.7555 2.9808 11.7768 2.95961 11.7981 2.95961C11.83 2.95961 11.8512 2.9808 11.8618 3.04437L13.7111 9.17948C13.8492 9.61392 14.1256 9.79406 14.5613 9.78346L20.9912 9.6669C21.0549 9.6669 21.0763 9.6669 21.0868 9.69868C21.0975 9.73048 21.0763 9.75167 21.0337 9.78346L15.741 13.4285C15.369 13.6828 15.284 14.0113 15.4328 14.4246L17.5478 20.4855C17.5584 20.5491 17.569 20.5597 17.5478 20.5808C17.5266 20.6126 17.4947 20.5914 17.4521 20.5597L12.34 16.6709C11.9999 16.406 11.6067 16.406 11.2666 16.6709L6.15461 20.5597C6.11209 20.5914 6.08021 20.6126 6.05895 20.5808Z" fill="black"/>
  </g>
  <defs>
    <clipPath id="clip0_847_4191">
      <rect width="24" height="24" fill="white" transform="translate(0 0.384766)"/>
    </clipPath>
  </defs>
</svg>