<svg width="51" height="48" viewBox="0 0 51 48" fill="none" xmlns="http://www.w3.org/2000/svg">
<path d="M10.4573 46.9346C11.371 47.6485 12.5299 47.4031 13.9117 46.3992L25.7015 37.7217L37.5136 46.3992C38.8952 47.4031 40.0319 47.6485 40.9678 46.9346C41.8816 46.2429 42.0822 45.1054 41.5252 43.4769L36.8672 29.6018L48.7683 21.0358C50.1502 20.0543 50.7072 19.0281 50.3508 17.9128C49.9941 16.842 48.9465 16.3066 47.2306 16.329L32.6327 16.4182L28.1975 2.4761C27.6628 0.82537 26.8604 0 25.7015 0C24.5647 0 23.7625 0.82537 23.2276 2.4761L18.7925 16.4182L4.19466 16.329C2.47858 16.3066 1.4311 16.842 1.07451 17.9128C0.695638 19.0281 1.27509 20.0543 2.65688 21.0358L14.558 29.6018L9.90009 43.4769C9.34292 45.1054 9.5435 46.2429 10.4573 46.9346ZM13.6666 42.5178C13.622 42.4732 13.6443 42.4508 13.6666 42.317L18.1016 29.5573C18.4137 28.6872 18.2354 27.9958 17.4553 27.4603L6.35649 19.7866C6.24505 19.7197 6.22278 19.675 6.24505 19.6081C6.26735 19.5412 6.31192 19.5412 6.44563 19.5412L19.9292 19.7866C20.8429 19.8089 21.4224 19.4297 21.7121 18.5151L25.5901 5.59913C25.6123 5.46529 25.657 5.42068 25.7015 5.42068C25.7684 5.42068 25.8129 5.46529 25.8352 5.59913L29.7131 18.5151C30.0027 19.4297 30.5824 19.8089 31.4959 19.7866L44.9794 19.5412C45.1132 19.5412 45.1579 19.5412 45.18 19.6081C45.2024 19.675 45.1579 19.7197 45.0687 19.7866L33.9698 27.4603C33.1898 27.9958 33.0115 28.6872 33.3235 29.5573L37.7587 42.317C37.781 42.4508 37.8032 42.4732 37.7587 42.5178C37.7142 42.5847 37.6473 42.5399 37.5581 42.4732L26.838 34.2864C26.1248 33.7286 25.3003 33.7286 24.5871 34.2864L13.8672 42.4732C13.778 42.5399 13.7112 42.5847 13.6666 42.5178Z" fill="#F0DC28"/>
</svg>
