<svg xmlns="http://www.w3.org/2000/svg" width="15" height="15" viewBox="0 0 15 15" fill="none">
  <g clip-path="url(#clip0_847_5240)">
    <path d="M7.49999 14.9927C11.603 14.9927 15 11.5899 15 7.49634C15 3.3954 11.5956 0 7.49264 0C3.39706 0 0 3.3954 0 7.49634C0 11.5899 3.4044 14.9927 7.49999 14.9927ZM7.49999 13.7433C4.02941 13.7433 1.25735 10.9652 1.25735 7.49634C1.25735 4.02744 4.02206 1.24939 7.49264 1.24939C10.9632 1.24939 13.75 4.02744 13.75 7.49634C13.75 10.9652 10.9706 13.7433 7.49999 13.7433ZM6.69117 10.9873C6.93381 10.9873 7.1397 10.8697 7.28675 10.6418L10.647 5.35768C10.7279 5.21069 10.8235 5.049 10.8235 4.88732C10.8235 4.5566 10.5294 4.34346 10.2206 4.34346C10.0368 4.34346 9.8529 4.46105 9.71323 4.67419L6.66176 9.56882L5.21323 7.69477C5.03676 7.45959 4.87499 7.4008 4.66911 7.4008C4.35294 7.4008 4.10294 7.65804 4.10294 7.98142C4.10294 8.14307 4.16911 8.29743 4.27206 8.43703L6.06617 10.6418C6.24999 10.8844 6.44852 10.9873 6.69117 10.9873Z" fill="black"/>
  </g>
  <defs>
    <clipPath id="clip0_847_5240">
      <rect width="15" height="15" fill="white"/>
    </clipPath>
  </defs>
</svg>