<svg width="12" height="12" viewBox="0 0 12 12" fill="none" xmlns="http://www.w3.org/2000/svg">
<path d="M0.195816 11.8041C0.460674 12.0615 0.89958 12.0615 1.15687 11.8041L5.99999 6.96026L10.8431 11.8041C11.1004 12.0615 11.5468 12.069 11.8042 11.8041C12.0615 11.5392 12.0615 11.1079 11.8042 10.8505L6.96105 5.99906L11.8042 1.15517C12.0615 0.897835 12.0691 0.458855 11.8042 0.201523C11.5393 -0.0633769 11.1004 -0.0633769 10.8431 0.201523L5.99999 5.04541L1.15687 0.201523C0.89958 -0.0633769 0.453107 -0.0709454 0.195816 0.201523C-0.0614746 0.466424 -0.0614746 0.897835 0.195816 1.15517L5.03894 5.99906L0.195816 10.8505C-0.0614746 11.1079 -0.0690421 11.5468 0.195816 11.8041Z" fill="black"/>
</svg>
