<svg xmlns="http://www.w3.org/2000/svg" width="15" height="14" viewBox="0 0 15 14" fill="none">
  <g clip-path="url(#clip0_847_5226)">
    <path d="M1.94468 12.8139H8.39183C8.21222 12.4984 8.076 12.1578 7.98931 11.7981H1.85178C1.30058 11.7981 0.997114 11.5016 0.997114 10.9148V4.9653C0.997114 4.38485 1.30058 4.08201 1.85178 4.08201H10.4852C11.0363 4.08201 11.346 4.38485 11.346 4.9653V6.7571C11.5256 6.73817 11.6866 6.72558 11.8539 6.72558C12.0149 6.72558 12.1821 6.73817 12.3431 6.7571V3.15457C12.3431 1.85488 11.6991 1.19873 10.4046 1.19873H1.94468C0.65029 1.19873 0 1.84857 0 3.15457V10.858C0 12.164 0.65029 12.8139 1.94468 12.8139ZM4.96079 6.347H5.32619C5.54295 6.347 5.61727 6.28391 5.61727 6.06309V5.69085C5.61727 5.47003 5.54295 5.40063 5.32619 5.40063H4.96079C4.74402 5.40063 4.6697 5.47003 4.6697 5.69085V6.06309C4.6697 6.28391 4.74402 6.347 4.96079 6.347ZM7.02312 6.347H7.38233C7.59909 6.347 7.67342 6.28391 7.67342 6.06309V5.69085C7.67342 5.47003 7.59909 5.40063 7.38233 5.40063H7.02312C6.80021 5.40063 6.73203 5.47003 6.73203 5.69085V6.06309C6.73203 6.28391 6.80021 6.347 7.02312 6.347ZM9.07929 6.347H9.44471C9.66147 6.347 9.72958 6.28391 9.72958 6.06309V5.69085C9.72958 5.47003 9.66147 5.40063 9.44471 5.40063H9.07929C8.86252 5.40063 8.78819 5.47003 8.78819 5.69085V6.06309C8.78819 6.28391 8.86252 6.347 9.07929 6.347ZM2.90463 8.41011H3.27003C3.4868 8.41011 3.55492 8.34699 3.55492 8.12616V7.75397C3.55492 7.53315 3.4868 7.47003 3.27003 7.47003H2.90463C2.68787 7.47003 2.61354 7.53315 2.61354 7.75397V8.12616C2.61354 8.34699 2.68787 8.41011 2.90463 8.41011ZM4.96079 8.41011H5.32619C5.54295 8.41011 5.61727 8.34699 5.61727 8.12616V7.75397C5.61727 7.53315 5.54295 7.47003 5.32619 7.47003H4.96079C4.74402 7.47003 4.6697 7.53315 4.6697 7.75397V8.12616C4.6697 8.34699 4.74402 8.41011 4.96079 8.41011ZM7.02312 8.41011H7.38233C7.59909 8.41011 7.67342 8.34699 7.67342 8.12616V7.75397C7.67342 7.53315 7.59909 7.47003 7.38233 7.47003H7.02312C6.80021 7.47003 6.73203 7.53315 6.73203 7.75397V8.12616C6.73203 8.34699 6.80021 8.41011 7.02312 8.41011ZM2.90463 10.4795H3.27003C3.4868 10.4795 3.55492 10.4101 3.55492 10.1893V9.81703C3.55492 9.5962 3.4868 9.53315 3.27003 9.53315H2.90463C2.68787 9.53315 2.61354 9.5962 2.61354 9.81703V10.1893C2.61354 10.4101 2.68787 10.4795 2.90463 10.4795ZM4.96079 10.4795H5.32619C5.54295 10.4795 5.61727 10.4101 5.61727 10.1893V9.81703C5.61727 9.5962 5.54295 9.53315 5.32619 9.53315H4.96079C4.74402 9.53315 4.6697 9.5962 4.6697 9.81703V10.1893C4.6697 10.4101 4.74402 10.4795 4.96079 10.4795ZM7.02312 10.4795H7.38233C7.59909 10.4795 7.67342 10.4101 7.67342 10.1893V9.81703C7.67342 9.5962 7.59909 9.53315 7.38233 9.53315H7.02312C6.80021 9.53315 6.73203 9.5962 6.73203 9.81703V10.1893C6.73203 10.4101 6.80021 10.4795 7.02312 10.4795ZM11.8539 14C13.557 14 15 12.5489 15 10.795C15 9.03472 13.5756 7.58987 11.8539 7.58987C10.1259 7.58987 8.70772 9.04098 8.70772 10.795C8.70772 12.5615 10.1259 14 11.8539 14ZM10.3861 11.2871C10.1693 11.2871 9.99588 11.1104 9.99588 10.8959C9.99588 10.6877 10.1755 10.511 10.3861 10.511H11.5009V8.92747C11.5009 8.71925 11.6743 8.54888 11.8848 8.54888C12.0954 8.54888 12.2688 8.71925 12.2688 8.92747V10.8959C12.2688 11.1167 12.1016 11.2871 11.8848 11.2871H10.3861Z" fill="black"/>
  </g>
  <defs>
    <clipPath id="clip0_847_5226">
      <rect width="15" height="14" fill="white"/>
    </clipPath>
  </defs>
</svg>