<svg xmlns="http://www.w3.org/2000/svg" width="14" height="15" viewBox="0 0 14 15" fill="none">
  <g clip-path="url(#clip0_847_4173)">
    <path d="M6.96107 4.63672L6.09813 5.51897C6.95456 5.59086 7.51258 5.84573 7.93427 6.27052C9.06972 7.41421 9.06328 9.03489 7.94078 10.1655L5.81914 12.296C4.69018 13.4331 3.09407 13.4396 1.95864 12.3025C0.823199 11.1523 0.829684 9.54462 1.95864 8.40751L3.23033 7.12665C3.04866 6.71491 3.00325 6.22477 3.07461 5.79998L1.16707 7.71482C-0.383615 9.28323 -0.396592 11.5052 1.17356 13.0867C2.7502 14.6748 4.9562 14.6617 6.50689 13.0998L8.72583 10.8582C10.283 9.28979 10.296 7.06781 8.71939 5.4863C8.31059 5.07458 7.79156 4.7805 6.96107 4.63672ZM6.79889 10.0217L7.6618 9.13948C6.80533 9.0741 6.24736 8.81271 5.82562 8.3879C4.69018 7.24423 4.69667 5.62354 5.81914 4.49295L7.93427 2.36248C9.06972 1.22536 10.6659 1.21882 11.8013 2.36248C12.9367 3.50614 12.9237 5.12033 11.8013 6.25091L10.5296 7.53179C10.7112 7.95004 10.7502 8.43367 10.6853 8.85848L12.5929 6.94365C14.1435 5.3752 14.1565 3.15977 12.5864 1.57172C11.0097 -0.0163301 8.8037 -0.00325978 7.24656 1.56519L5.03406 3.80022C3.47689 5.36866 3.4639 7.59061 5.04055 9.17214C5.44931 9.58383 5.96837 9.87795 6.79889 10.0217Z" fill="black" fill-opacity="0.85"/>
  </g>
  <defs>
    <clipPath id="clip0_847_4173">
      <rect width="14" height="14" fill="white" transform="translate(0 0.384766)"/>
    </clipPath>
  </defs>
</svg>