<svg xmlns="http://www.w3.org/2000/svg" width="16" height="17" viewBox="0 0 16 17" fill="none">
  <path d="M1.70902 14.6003H10.4773C11.6353 14.6003 12.1863 14.2646 12.1863 13.5258C12.1863 11.7662 9.8774 9.22096 6.09666 9.22096C2.30891 9.22096 0 11.7662 0 13.5258C0 14.2646 0.55107 14.6003 1.70902 14.6003ZM1.38116 13.5862C1.1998 13.5862 1.12307 13.5392 1.12307 13.3982C1.12307 12.2901 2.89486 10.235 6.09666 10.235C9.29146 10.235 11.0633 12.2901 11.0633 13.3982C11.0633 13.5392 10.9935 13.5862 10.8121 13.5862H1.38116ZM6.09666 8.38146C7.75686 8.38146 9.1101 6.96442 9.1101 5.23173C9.1101 3.51248 7.76379 2.1626 6.09666 2.1626C4.44344 2.1626 3.08321 3.53934 3.08321 5.24517C3.08321 6.97114 4.43647 8.38146 6.09666 8.38146ZM6.09666 7.36737C5.07822 7.36737 4.20627 6.43387 4.20627 5.24517C4.20627 4.07661 5.06427 3.17669 6.09666 3.17669C7.13601 3.17669 7.98701 4.05647 7.98701 5.23173C7.98701 6.42044 7.12206 7.36737 6.09666 7.36737Z" fill="black"/>
</svg>