<svg xmlns="http://www.w3.org/2000/svg" width="19" height="12" viewBox="0 0 19 12" fill="none">
  <g clip-path="url(#clip0_847_5216)">
    <path d="M8.75295 11.9999H17.3217C18.461 11.9999 19 11.6816 19 10.9813C19 9.3134 16.7418 6.90065 13.0373 6.90065C9.33964 6.90065 7.08149 9.3134 7.08149 10.9813C7.08149 11.6816 7.62045 11.9999 8.75295 11.9999ZM8.42545 11.0386C8.24808 11.0386 8.17989 10.994 8.17989 10.8604C8.17989 9.81633 9.91277 7.86192 13.0373 7.86192C16.1687 7.86192 17.9016 9.81633 17.9016 10.8604C17.9016 10.994 17.8266 11.0386 17.6492 11.0386H8.42545ZM13.0442 6.11129C14.6678 6.11129 15.9913 4.76169 15.9913 3.11925C15.9913 1.48954 14.6747 0.209961 13.0442 0.209961C11.4205 0.209961 10.0901 1.515 10.0969 3.13198C10.1038 4.76805 11.4205 6.11129 13.0442 6.11129ZM13.0442 5.15001C12.0481 5.15001 11.1953 4.25877 11.1953 3.13198C11.1885 2.02429 12.0276 1.17124 13.0442 1.17124C14.0607 1.17124 14.893 2.01155 14.893 3.11925C14.893 4.24603 14.047 5.15001 13.0442 5.15001ZM1.38492 11.9999H6.74039C6.41292 11.828 6.16731 11.446 6.21507 11.0577H1.22119C1.07792 11.0577 1.01652 11.0068 1.01652 10.8858C1.01652 9.30702 2.94721 7.83011 5.17809 7.83011C6.03087 7.83011 6.80861 8.02111 7.4704 8.38395C7.68186 8.12932 7.93427 7.90651 8.2413 7.70918C7.3612 7.16806 6.30376 6.88794 5.17809 6.88794C2.31956 6.88794 0 8.82325 0 10.9431C0 11.6498 0.463913 11.9999 1.38492 11.9999ZM5.18492 6.16221C6.59029 6.16221 7.74327 4.98449 7.74327 3.53941C7.74327 2.12614 6.60394 0.986617 5.18492 0.986617C3.77953 0.986617 2.61975 2.14524 2.62657 3.55214C2.62657 4.99086 3.77953 6.16221 5.18492 6.16221ZM5.18492 5.21368C4.34577 5.21368 3.64308 4.46885 3.64308 3.55214C3.64308 2.65453 4.33895 1.93516 5.18492 1.93516C6.04451 1.93516 6.73356 2.64179 6.73356 3.53941C6.73356 4.46885 6.02405 5.21368 5.18492 5.21368Z" fill="black"/>
  </g>
  <defs>
    <clipPath id="clip0_847_5216">
      <rect width="19" height="12" fill="white"/>
    </clipPath>
  </defs>
</svg>