<svg xmlns="http://www.w3.org/2000/svg" width="13" height="13" viewBox="0 0 13 13" fill="none">
  <path d="M10.2135 9.42126L10.6982 9.49663C10.8921 9.52354 11.0645 9.64203 11.1776 9.80894L12.3032 11.489C12.4109 11.6559 12.4271 11.8282 12.314 11.9467L11.3499 12.9105C11.2314 13.029 11.0645 13.029 10.8921 12.9159L9.20635 11.7744C9.04482 11.6667 8.92095 11.4944 8.89398 11.3005L8.81859 10.8159L6.46862 8.46636C6.61262 8.28015 6.77051 8.08408 6.94523 7.87675L9.57261 10.5036L9.68032 11.1066L11.0429 12.1352L11.533 11.6451L10.5044 10.2774L9.90114 10.1751L7.2458 7.52541C7.40188 7.34576 7.57047 7.15807 7.75313 6.96139L10.2135 9.42126ZM3.57282 1.17192L6.78601 4.389C6.81745 4.47933 6.85451 4.56825 6.89587 4.65581C6.74051 4.80902 6.58945 4.95525 6.44397 5.09247L3.00731 1.65654C2.61415 1.26885 2.19406 1.26346 1.81167 1.65116L1.05227 2.41578C0.664488 2.80887 0.659105 3.2181 1.05227 3.61118L4.33238 6.89059C4.11438 7.05248 3.90995 7.19573 3.71716 7.32459L0.567544 4.17119C-0.186467 3.41733 -0.186467 2.60963 0.551389 1.87193L1.2677 1.15577C2.00555 0.418063 2.81343 0.418063 3.57282 1.17192ZM2.0271 3.01348L4.04139 5.02735C4.12217 5.10813 4.11679 5.23197 4.04139 5.30736C3.96599 5.38813 3.83673 5.38813 3.75594 5.30736L1.74165 3.30425C1.66086 3.22887 1.66625 3.09964 1.74165 3.01348C1.82244 2.9381 1.95708 2.94886 2.0271 3.01348ZM2.69494 2.35117L4.70923 4.35966C4.78463 4.43504 4.78463 4.55888 4.70384 4.65043C4.63383 4.72043 4.4938 4.73119 4.41839 4.65043L2.41488 2.63117C2.33947 2.55578 2.33409 2.43194 2.41488 2.35117C2.48489 2.27578 2.61415 2.27039 2.69494 2.35117Z" fill="black"/>
  <path d="M0.840936 12.275C1.77807 13.2012 3.03296 13.212 3.95393 12.2858C5.11188 11.1173 4.92876 9.80348 8.46186 6.21728C9.6144 6.76112 11.0093 6.57805 11.9357 5.65723C12.9051 4.688 13.0721 3.15875 12.3504 1.92028L10.8855 3.38491C10.74 3.5303 10.5569 3.54106 10.4007 3.38491L9.74367 2.72259C9.58748 2.56105 9.57132 2.37259 9.71675 2.2272L11.1871 0.767949C9.95909 0.0517878 8.43494 0.213328 7.46545 1.18796C6.53914 2.11412 6.35064 3.50337 6.89459 4.65569C3.31302 8.18806 1.99888 8.00495 0.830165 9.1573C-0.10158 10.0781 -0.0908084 11.3381 0.840936 12.275ZM8.04712 5.07032C7.0885 4.11184 7.05077 2.59336 7.96638 1.68873C8.48342 1.16642 9.22122 0.956415 9.92677 1.06949L9.14583 1.85027C8.74732 2.24335 8.75807 2.74951 9.1728 3.15337L9.9699 3.94491C10.3684 4.34338 10.8801 4.35415 11.2571 3.97184L12.0488 3.17491C12.1673 3.89107 11.9518 4.62877 11.4294 5.15647C10.5193 6.06647 9.01121 6.02341 8.04712 5.07032ZM1.37413 11.742C0.754764 11.1119 0.765534 10.3096 1.35797 9.71189C2.66134 8.41959 3.43689 8.96883 7.25544 5.23724C7.34158 5.35571 7.43854 5.4634 7.5409 5.5711C7.6432 5.67338 7.75631 5.77572 7.87478 5.86185C4.14782 9.67963 4.69717 10.455 3.40458 11.7474C2.80675 12.3504 1.99888 12.3558 1.37413 11.742ZM2.37589 11.4188C2.74212 11.4188 3.04373 11.1173 3.04373 10.7512C3.04373 10.385 2.74212 10.0888 2.37589 10.0888C2.00966 10.0888 1.71344 10.385 1.71344 10.7512C1.71344 11.1173 2.00966 11.4188 2.37589 11.4188Z" fill="black"/>
</svg>